<svg xmlns="http://www.w3.org/2000/svg" xmlns:xlink="http://www.w3.org/1999/xlink" width="126" zoomAndPan="magnify" viewBox="0 0 94.5 31.5" height="42" preserveAspectRatio="xMidYMid meet" version="1.0"><defs><g/><clipPath id="863e1414dc"><path d="M 41.816406 6.828125 L 52 6.828125 L 52 16 L 41.816406 16 Z M 41.816406 6.828125 " clip-rule="nonzero"/></clipPath><clipPath id="0b1ed78981"><path d="M 41.816406 6.828125 L 52.152344 6.828125 L 52.152344 20.855469 L 41.816406 20.855469 Z M 41.816406 6.828125 " clip-rule="nonzero"/></clipPath></defs><g fill="#222222" fill-opacity="1"><g transform="translate(11.940098, 23.018524)"><g><path d="M 0.296875 6.21875 C -0.046875 6.46875 -0.40625 6.679688 -0.78125 6.859375 C -1.164062 7.035156 -1.570312 7.171875 -2 7.265625 L -2 7.078125 C -1.019531 6.773438 -0.234375 6.253906 0.359375 5.515625 C 0.953125 4.773438 1.40625 3.945312 1.71875 3.03125 C 2.03125 2.113281 2.234375 1.144531 2.328125 0.125 C 2.429688 -0.882812 2.484375 -1.816406 2.484375 -2.671875 L 2.484375 -15.515625 C 2.484375 -15.796875 2.46875 -16.085938 2.4375 -16.390625 C 2.414062 -16.691406 2.359375 -16.976562 2.265625 -17.25 C 2.179688 -17.53125 2.046875 -17.773438 1.859375 -17.984375 C 1.671875 -18.203125 1.414062 -18.359375 1.09375 -18.453125 L 6.140625 -18.453125 C 5.816406 -18.359375 5.554688 -18.203125 5.359375 -17.984375 C 5.171875 -17.773438 5.035156 -17.53125 4.953125 -17.25 C 4.867188 -16.976562 4.816406 -16.691406 4.796875 -16.390625 C 4.785156 -16.085938 4.78125 -15.796875 4.78125 -15.515625 L 4.78125 -2.671875 C 4.78125 -0.867188 4.421875 0.800781 3.703125 2.34375 C 2.992188 3.894531 1.859375 5.1875 0.296875 6.21875 Z M 0.296875 6.21875 "/></g></g></g><g fill="#222222" fill-opacity="1"><g transform="translate(15.743381, 23.018524)"><g><path d="M 4.25 -1.28125 C 4.25 -0.925781 4.117188 -0.609375 3.859375 -0.328125 C 3.597656 -0.0546875 3.289062 0.078125 2.9375 0.078125 C 2.582031 0.078125 2.273438 -0.0546875 2.015625 -0.328125 C 1.753906 -0.609375 1.625 -0.925781 1.625 -1.28125 C 1.625 -1.632812 1.753906 -1.9375 2.015625 -2.1875 C 2.273438 -2.4375 2.582031 -2.5625 2.9375 -2.5625 C 3.289062 -2.5625 3.597656 -2.4375 3.859375 -2.1875 C 4.117188 -1.9375 4.25 -1.632812 4.25 -1.28125 Z M 4.25 -1.28125 "/></g></g></g><g fill="#222222" fill-opacity="1"><g transform="translate(18.266125, 23.018524)"><g/></g></g><g fill="#222222" fill-opacity="1"><g transform="translate(24.027882, 23.018524)"><g><path d="M 27.46875 3.390625 C 26.507812 4.046875 25.550781 4.523438 24.59375 4.828125 C 23.644531 5.128906 22.578125 5.28125 21.390625 5.28125 C 20.035156 5.28125 18.898438 4.96875 17.984375 4.34375 C 17.066406 3.726562 16.269531 2.957031 15.59375 2.03125 C 14.914062 1.101562 14.3125 0.09375 13.78125 -1 C 13.257812 -2.09375 12.695312 -3.101562 12.09375 -4.03125 C 11.488281 -4.957031 10.796875 -5.726562 10.015625 -6.34375 C 9.242188 -6.957031 8.289062 -7.265625 7.15625 -7.265625 L 4.96875 -7.265625 L 4.96875 -2.328125 C 4.96875 -1.828125 5.066406 -1.347656 5.265625 -0.890625 C 5.472656 -0.441406 5.835938 -0.144531 6.359375 0 L 1.3125 0 C 1.863281 -0.125 2.226562 -0.429688 2.40625 -0.921875 C 2.582031 -1.410156 2.671875 -1.90625 2.671875 -2.40625 L 2.671875 -16.203125 C 2.671875 -16.703125 2.578125 -17.171875 2.390625 -17.609375 C 2.203125 -18.046875 1.84375 -18.328125 1.3125 -18.453125 L 7.71875 -18.453125 C 8.625 -18.453125 9.507812 -18.351562 10.375 -18.15625 C 11.238281 -17.957031 12.007812 -17.632812 12.6875 -17.1875 C 13.375 -16.75 13.921875 -16.171875 14.328125 -15.453125 C 14.742188 -14.742188 14.953125 -13.875 14.953125 -12.84375 C 14.953125 -11.988281 14.769531 -11.222656 14.40625 -10.546875 C 14.039062 -9.867188 13.566406 -9.296875 12.984375 -8.828125 C 12.410156 -8.367188 11.75 -8.003906 11 -7.734375 C 10.25 -7.472656 9.472656 -7.332031 8.671875 -7.3125 C 9.566406 -7.101562 10.378906 -6.671875 11.109375 -6.015625 C 11.835938 -5.367188 12.546875 -4.613281 13.234375 -3.75 C 13.929688 -2.882812 14.613281 -1.976562 15.28125 -1.03125 C 15.945312 -0.09375 16.660156 0.769531 17.421875 1.5625 C 18.191406 2.351562 19.035156 3.003906 19.953125 3.515625 C 20.867188 4.035156 21.890625 4.296875 23.015625 4.296875 C 23.847656 4.296875 24.59375 4.203125 25.25 4.015625 C 25.914062 3.828125 26.601562 3.519531 27.3125 3.09375 Z M 4.96875 -7.53125 L 7.5 -7.53125 C 9.101562 -7.53125 10.359375 -8.019531 11.265625 -9 C 12.171875 -9.976562 12.625 -11.257812 12.625 -12.84375 C 12.625 -14.5 12.1875 -15.789062 11.3125 -16.71875 C 10.445312 -17.65625 9.175781 -18.125 7.5 -18.125 L 4.96875 -18.125 Z M 4.96875 -7.53125 "/></g></g></g><g fill="#222222" fill-opacity="1"><g transform="translate(36.757269, 23.018524)"><g><path d="M 19.96875 -9.234375 C 19.96875 -7.953125 19.722656 -6.742188 19.234375 -5.609375 C 18.742188 -4.484375 18.078125 -3.5 17.234375 -2.65625 C 16.390625 -1.8125 15.398438 -1.144531 14.265625 -0.65625 C 13.140625 -0.164062 11.9375 0.078125 10.65625 0.078125 C 9.375 0.078125 8.164062 -0.164062 7.03125 -0.65625 C 5.90625 -1.144531 4.921875 -1.8125 4.078125 -2.65625 C 3.242188 -3.5 2.582031 -4.484375 2.09375 -5.609375 C 1.601562 -6.742188 1.359375 -7.953125 1.359375 -9.234375 C 1.359375 -10.515625 1.601562 -11.71875 2.09375 -12.84375 C 2.582031 -13.976562 3.242188 -14.960938 4.078125 -15.796875 C 4.921875 -16.640625 5.90625 -17.304688 7.03125 -17.796875 C 8.164062 -18.285156 9.375 -18.53125 10.65625 -18.53125 C 11.9375 -18.53125 13.140625 -18.285156 14.265625 -17.796875 C 15.398438 -17.304688 16.390625 -16.640625 17.234375 -15.796875 C 18.078125 -14.960938 18.742188 -13.976562 19.234375 -12.84375 C 19.722656 -11.71875 19.96875 -10.515625 19.96875 -9.234375 Z M 3.953125 -9.6875 C 3.953125 -8.707031 4.113281 -7.65625 4.4375 -6.53125 C 4.769531 -5.414062 5.242188 -4.382812 5.859375 -3.4375 C 6.472656 -2.5 7.222656 -1.722656 8.109375 -1.109375 C 9.003906 -0.492188 10.019531 -0.1875 11.15625 -0.1875 C 12.207031 -0.1875 13.132812 -0.460938 13.9375 -1.015625 C 14.738281 -1.566406 15.398438 -2.269531 15.921875 -3.125 C 16.453125 -3.976562 16.847656 -4.90625 17.109375 -5.90625 C 17.378906 -6.914062 17.515625 -7.875 17.515625 -8.78125 C 17.515625 -9.8125 17.359375 -10.878906 17.046875 -11.984375 C 16.734375 -13.085938 16.257812 -14.101562 15.625 -15.03125 C 15 -15.957031 14.238281 -16.722656 13.34375 -17.328125 C 12.457031 -17.929688 11.425781 -18.234375 10.25 -18.234375 C 9.195312 -18.234375 8.28125 -17.957031 7.5 -17.40625 C 6.71875 -16.851562 6.0625 -16.148438 5.53125 -15.296875 C 5.007812 -14.441406 4.613281 -13.515625 4.34375 -12.515625 C 4.082031 -11.523438 3.953125 -10.582031 3.953125 -9.6875 Z M 3.953125 -9.6875 "/></g></g></g><g fill="#222222" fill-opacity="1"><g transform="translate(54.608811, 23.018524)"><g><path d="M 13.9375 -4.59375 C 13.9375 -3.738281 13.753906 -3.003906 13.390625 -2.390625 C 13.023438 -1.773438 12.550781 -1.269531 11.96875 -0.875 C 11.394531 -0.488281 10.742188 -0.207031 10.015625 -0.03125 C 9.285156 0.132812 8.546875 0.21875 7.796875 0.21875 C 7.316406 0.21875 6.847656 0.15625 6.390625 0.03125 C 5.941406 -0.09375 5.507812 -0.222656 5.09375 -0.359375 C 4.6875 -0.492188 4.28125 -0.625 3.875 -0.75 C 3.476562 -0.875 3.078125 -0.9375 2.671875 -0.9375 C 2.398438 -0.9375 2.132812 -0.859375 1.875 -0.703125 C 1.625 -0.554688 1.425781 -0.375 1.28125 -0.15625 L 1.28125 -5.84375 C 1.507812 -5.1875 1.828125 -4.519531 2.234375 -3.84375 C 2.648438 -3.164062 3.140625 -2.554688 3.703125 -2.015625 C 4.273438 -1.472656 4.90625 -1.023438 5.59375 -0.671875 C 6.28125 -0.328125 7.003906 -0.15625 7.765625 -0.15625 C 8.285156 -0.15625 8.820312 -0.207031 9.375 -0.3125 C 9.925781 -0.425781 10.421875 -0.613281 10.859375 -0.875 C 11.304688 -1.144531 11.671875 -1.5 11.953125 -1.9375 C 12.242188 -2.375 12.390625 -2.910156 12.390625 -3.546875 C 12.390625 -4.316406 12.125 -4.957031 11.59375 -5.46875 C 11.070312 -5.988281 10.414062 -6.460938 9.625 -6.890625 C 8.832031 -7.316406 7.972656 -7.722656 7.046875 -8.109375 C 6.117188 -8.503906 5.257812 -8.957031 4.46875 -9.46875 C 3.675781 -9.988281 3.015625 -10.601562 2.484375 -11.3125 C 1.953125 -12.03125 1.6875 -12.914062 1.6875 -13.96875 C 1.6875 -14.78125 1.84375 -15.484375 2.15625 -16.078125 C 2.476562 -16.679688 2.894531 -17.191406 3.40625 -17.609375 C 3.925781 -18.023438 4.523438 -18.332031 5.203125 -18.53125 C 5.878906 -18.726562 6.59375 -18.828125 7.34375 -18.828125 C 7.84375 -18.828125 8.316406 -18.757812 8.765625 -18.625 C 9.222656 -18.488281 9.644531 -18.335938 10.03125 -18.171875 C 10.425781 -18.015625 10.785156 -17.863281 11.109375 -17.71875 C 11.441406 -17.582031 11.71875 -17.515625 11.9375 -17.515625 C 12.289062 -17.515625 12.566406 -17.617188 12.765625 -17.828125 C 12.972656 -18.046875 13.125 -18.296875 13.21875 -18.578125 C 13.195312 -17.796875 13.144531 -17.019531 13.0625 -16.25 C 12.988281 -15.488281 12.953125 -14.71875 12.953125 -13.9375 C 12.785156 -14.539062 12.507812 -15.117188 12.125 -15.671875 C 11.75 -16.222656 11.3125 -16.710938 10.8125 -17.140625 C 10.3125 -17.566406 9.757812 -17.910156 9.15625 -18.171875 C 8.550781 -18.441406 7.921875 -18.578125 7.265625 -18.578125 C 6.765625 -18.578125 6.269531 -18.503906 5.78125 -18.359375 C 5.289062 -18.222656 4.859375 -18.019531 4.484375 -17.75 C 4.109375 -17.488281 3.800781 -17.148438 3.5625 -16.734375 C 3.320312 -16.328125 3.203125 -15.847656 3.203125 -15.296875 C 3.203125 -14.492188 3.460938 -13.820312 3.984375 -13.28125 C 4.515625 -12.738281 5.179688 -12.238281 5.984375 -11.78125 C 6.796875 -11.332031 7.660156 -10.90625 8.578125 -10.5 C 9.492188 -10.101562 10.351562 -9.640625 11.15625 -9.109375 C 11.957031 -8.585938 12.617188 -7.96875 13.140625 -7.25 C 13.671875 -6.53125 13.9375 -5.644531 13.9375 -4.59375 Z M 13.9375 -4.59375 "/></g></g></g><g fill="#222222" fill-opacity="1"><g transform="translate(66.170648, 23.018524)"><g><path d="M 8.546875 -0.296875 C 9.734375 -0.296875 10.890625 -0.570312 12.015625 -1.125 C 13.148438 -1.675781 14.003906 -2.492188 14.578125 -3.578125 L 13.71875 0 L 1.3125 0 C 1.863281 -0.175781 2.226562 -0.492188 2.40625 -0.953125 C 2.582031 -1.421875 2.671875 -1.90625 2.671875 -2.40625 L 2.671875 -16.15625 C 2.671875 -16.664062 2.582031 -17.140625 2.40625 -17.578125 C 2.226562 -18.015625 1.863281 -18.304688 1.3125 -18.453125 L 13.453125 -18.453125 L 14.203125 -14.921875 C 13.617188 -16.023438 12.84375 -16.835938 11.875 -17.359375 C 10.914062 -17.890625 9.820312 -18.15625 8.59375 -18.15625 L 4.96875 -18.15625 L 4.96875 -9.53125 L 7.3125 -9.53125 C 7.988281 -9.53125 8.613281 -9.671875 9.1875 -9.953125 C 9.769531 -10.242188 10.160156 -10.753906 10.359375 -11.484375 L 10.359375 -7.34375 C 10.160156 -8.070312 9.769531 -8.566406 9.1875 -8.828125 C 8.613281 -9.097656 7.988281 -9.234375 7.3125 -9.234375 L 4.96875 -9.234375 L 4.96875 -0.296875 Z M 8.546875 -0.296875 "/></g></g></g><path fill="#3c8f6a" d="M 48.144531 17.65625 C 48.144531 17.65625 48.519531 15.953125 50.566406 16.519531 L 51.65625 17.09375 L 50.28125 17.863281 L 49.105469 18.359375 L 48.339844 18.015625 Z M 43.125 15.203125 C 43.125 15.203125 44.207031 16.96875 44.648438 17.035156 C 45.089844 17.105469 45.40625 17.1875 45.800781 16.957031 C 46.191406 16.726562 45.863281 16.050781 45.863281 16.050781 L 45.628906 15.726562 L 44.359375 15.039062 L 43.667969 15.039062 Z M 43.707031 18.273438 C 43.707031 18.273438 44.265625 18.515625 44.699219 18.855469 C 45.136719 19.199219 46.027344 18.9375 46.027344 18.9375 C 46.027344 18.9375 46.375 18.128906 45.546875 17.863281 C 44.714844 17.597656 43.828125 18.171875 43.828125 18.171875 Z M 43.707031 18.273438 " fill-opacity="1" fill-rule="nonzero"/><g clip-path="url(#863e1414dc)"><path fill="#873422" d="M 46.90625 15.183594 C 46.921875 15.214844 47.273438 15.40625 47.304688 15.4375 C 47.59375 15.714844 47.949219 15.792969 48.335938 15.777344 C 48.625 15.761719 48.898438 15.683594 49.164062 15.570312 C 49.332031 15.496094 49.492188 15.5 49.65625 15.578125 C 49.832031 15.664062 49.976562 15.789062 50.101562 15.96875 C 50.09375 15.929688 50.09375 15.917969 50.089844 15.90625 C 50 15.589844 50.054688 15.300781 50.242188 15.03125 C 50.414062 14.792969 50.605469 14.570312 50.828125 14.382812 C 51.082031 14.164062 51.371094 14.027344 51.738281 14.074219 C 51.691406 14.050781 51.667969 14.03125 51.640625 14.019531 C 51.519531 13.945312 51.394531 13.863281 51.300781 13.753906 C 51.191406 13.625 51.152344 13.484375 51.183594 13.316406 C 51.199219 13.242188 51.222656 13.175781 51.253906 13.109375 C 51.335938 12.910156 51.40625 12.710938 51.457031 12.503906 C 51.613281 11.824219 51.292969 11.296875 50.808594 11.007812 C 50.707031 10.945312 50.703125 10.917969 50.792969 10.839844 C 51.125 10.550781 51.253906 10.1875 51.179688 9.753906 C 51.144531 9.542969 51.0625 9.347656 51.011719 9.140625 C 50.976562 9 50.996094 8.871094 51.085938 8.753906 C 51.128906 8.699219 51.222656 8.578125 51.21875 8.578125 C 51.167969 8.589844 51.117188 8.609375 51.0625 8.617188 C 50.820312 8.660156 50.605469 8.582031 50.40625 8.445312 C 50.277344 8.355469 50.148438 8.261719 49.996094 8.210938 C 49.484375 8.027344 48.960938 8.003906 48.429688 8.050781 C 48.371094 8.054688 48.339844 8.046875 48.296875 7.996094 C 48.132812 7.769531 47.910156 7.636719 47.636719 7.578125 C 47.402344 7.53125 47.167969 7.554688 46.929688 7.546875 C 46.523438 7.527344 46.1875 7.382812 46.042969 6.910156 C 46.015625 7.152344 45.90625 7.335938 45.722656 7.472656 C 45.535156 7.605469 45.324219 7.65625 45.09375 7.617188 C 44.863281 7.574219 44.710938 7.421875 44.566406 7.25 C 44.679688 7.648438 44.617188 8.003906 44.363281 8.324219 C 44.261719 8.457031 44.140625 8.566406 44.011719 8.671875 C 43.820312 8.824219 43.636719 8.980469 43.5 9.191406 C 43.269531 9.542969 43.265625 9.929688 43.492188 10.222656 C 43.523438 10.265625 43.5625 10.304688 43.605469 10.355469 C 43.527344 10.367188 43.460938 10.371094 43.390625 10.386719 C 42.734375 10.539062 42.066406 11.121094 42.28125 12.160156 C 42.324219 12.363281 42.386719 12.554688 42.429688 12.753906 C 42.515625 13.125 42.398438 13.359375 42.050781 13.519531 C 42.003906 13.542969 41.957031 13.566406 41.910156 13.585938 C 42.167969 13.578125 42.332031 13.632812 42.519531 13.804688 C 42.601562 13.886719 42.683594 13.96875 42.761719 14.058594 C 43.042969 14.375 43.382812 14.601562 43.796875 14.707031 C 43.894531 14.734375 43.992188 14.761719 44.105469 14.8125 C 44.625 14.9375 44.886719 15.402344 45.515625 15.601562 C 46.027344 15.761719 46.90625 15.183594 46.90625 15.183594 Z M 46.90625 15.183594 " fill-opacity="1" fill-rule="nonzero"/></g><g clip-path="url(#0b1ed78981)"><path fill="#2b2b2b" d="M 51.800781 16.996094 C 51.027344 16.433594 50.171875 16.15625 49.207031 16.273438 C 48.828125 16.320312 48.5 16.480469 48.273438 16.800781 C 48.089844 17.066406 48.039062 17.371094 48.019531 17.679688 C 48.011719 17.769531 47.980469 17.824219 47.917969 17.882812 C 47.644531 18.136719 47.386719 18.445312 47.230469 18.789062 C 47.222656 18.800781 47.230469 18.660156 47.230469 18.597656 C 47.230469 18.179688 47.152344 17.773438 47.019531 17.378906 C 46.902344 17.03125 46.804688 16.6875 46.867188 16.3125 C 46.917969 16.011719 47.019531 15.734375 47.242188 15.511719 C 47.265625 15.484375 47.28125 15.472656 47.316406 15.503906 C 47.609375 15.785156 47.96875 15.867188 48.359375 15.847656 C 48.652344 15.835938 48.933594 15.757812 49.199219 15.636719 C 49.371094 15.5625 49.535156 15.566406 49.699219 15.644531 C 49.882812 15.734375 50.027344 15.859375 50.152344 16.042969 C 50.144531 16.003906 50.144531 15.992188 50.140625 15.976562 C 50.050781 15.65625 50.105469 15.359375 50.296875 15.089844 C 50.46875 14.847656 50.664062 14.621094 50.894531 14.425781 C 51.152344 14.207031 51.445312 14.066406 51.816406 14.113281 C 51.773438 14.089844 51.746094 14.070312 51.71875 14.058594 C 51.589844 13.984375 51.46875 13.898438 51.371094 13.785156 C 51.261719 13.660156 51.21875 13.511719 51.253906 13.34375 C 51.269531 13.273438 51.292969 13.199219 51.324219 13.128906 C 51.40625 12.929688 51.480469 12.730469 51.527344 12.515625 C 51.6875 11.824219 51.363281 11.289062 50.871094 10.996094 C 50.765625 10.933594 50.761719 10.902344 50.855469 10.824219 C 51.191406 10.53125 51.324219 10.164062 51.253906 9.722656 C 51.214844 9.507812 51.128906 9.304688 51.078125 9.097656 C 51.046875 8.953125 51.0625 8.824219 51.152344 8.703125 C 51.199219 8.644531 51.289062 8.527344 51.285156 8.523438 C 51.234375 8.535156 51.179688 8.558594 51.128906 8.566406 C 50.878906 8.609375 50.660156 8.53125 50.460938 8.394531 C 50.328125 8.300781 50.195312 8.207031 50.042969 8.152344 C 49.523438 7.964844 48.992188 7.945312 48.453125 7.992188 C 48.390625 7.996094 48.359375 7.984375 48.320312 7.933594 C 48.152344 7.707031 47.925781 7.570312 47.648438 7.515625 C 47.410156 7.464844 47.171875 7.488281 46.929688 7.480469 C 46.515625 7.460938 46.171875 7.3125 46.027344 6.832031 C 46 7.074219 45.886719 7.265625 45.699219 7.402344 C 45.507812 7.539062 45.292969 7.585938 45.058594 7.546875 C 44.824219 7.503906 44.671875 7.351562 44.523438 7.175781 C 44.636719 7.582031 44.574219 7.945312 44.320312 8.269531 C 44.214844 8.402344 44.089844 8.515625 43.960938 8.617188 C 43.761719 8.773438 43.574219 8.9375 43.4375 9.148438 C 43.207031 9.507812 43.199219 9.902344 43.429688 10.195312 C 43.460938 10.242188 43.5 10.285156 43.542969 10.332031 C 43.464844 10.34375 43.394531 10.347656 43.324219 10.367188 C 42.65625 10.519531 41.976562 11.113281 42.191406 12.167969 C 42.234375 12.371094 42.300781 12.570312 42.347656 12.769531 C 42.429688 13.148438 42.3125 13.382812 41.960938 13.550781 C 41.914062 13.574219 41.867188 13.597656 41.816406 13.621094 C 42.078125 13.609375 42.242188 13.667969 42.433594 13.84375 C 42.519531 13.925781 42.601562 14.011719 42.679688 14.101562 C 42.964844 14.421875 43.3125 14.652344 43.734375 14.761719 C 43.832031 14.785156 43.929688 14.816406 44.042969 14.867188 C 43.472656 14.859375 42.945312 14.980469 42.449219 15.222656 C 42.519531 15.234375 42.589844 15.226562 42.65625 15.238281 C 42.875 15.285156 43.023438 15.421875 43.160156 15.582031 C 43.308594 15.761719 43.421875 15.964844 43.535156 16.164062 C 43.714844 16.472656 43.910156 16.769531 44.1875 16.996094 C 44.515625 17.269531 44.886719 17.394531 45.3125 17.308594 C 45.496094 17.269531 45.667969 17.214844 45.84375 17.15625 C 45.886719 17.140625 45.921875 17.136719 45.957031 17.179688 C 46.328125 17.617188 46.625 18.097656 46.78125 18.652344 C 46.917969 19.152344 46.898438 19.664062 46.898438 20.175781 C 46.855469 20.027344 46.8125 19.875 46.785156 19.722656 C 46.722656 19.414062 46.621094 19.121094 46.386719 18.902344 C 46.257812 18.785156 46.21875 18.660156 46.203125 18.5 C 46.175781 18.148438 45.992188 17.898438 45.667969 17.757812 C 45.453125 17.664062 45.222656 17.632812 44.988281 17.648438 C 44.390625 17.679688 43.867188 17.90625 43.402344 18.28125 C 43.347656 18.324219 43.285156 18.363281 43.242188 18.445312 C 43.367188 18.402344 43.476562 18.375 43.59375 18.390625 C 43.816406 18.425781 43.996094 18.539062 44.167969 18.671875 C 44.355469 18.820312 44.542969 18.96875 44.761719 19.070312 C 45.042969 19.199219 45.332031 19.246094 45.640625 19.183594 C 45.800781 19.148438 45.9375 19.046875 46.074219 18.957031 C 46.121094 18.925781 46.160156 18.929688 46.203125 18.96875 C 46.375 19.132812 46.503906 19.316406 46.570312 19.542969 C 46.703125 20.003906 46.867188 20.453125 47.085938 20.882812 C 47.097656 20.910156 47.101562 20.941406 47.136719 20.957031 C 47.132812 20.929688 47.125 20.910156 47.125 20.890625 C 47.070312 20.296875 47.113281 19.71875 47.308594 19.148438 C 47.460938 18.710938 47.703125 18.347656 48.066406 18.066406 C 48.101562 18.035156 48.125 18.035156 48.160156 18.0625 C 48.253906 18.128906 48.355469 18.1875 48.449219 18.25 C 48.800781 18.503906 49.179688 18.539062 49.585938 18.4375 C 49.949219 18.34375 50.261719 18.148438 50.554688 17.921875 C 50.761719 17.761719 50.960938 17.578125 51.191406 17.441406 C 51.410156 17.308594 51.640625 17.214844 51.910156 17.25 C 52 17.261719 52.082031 17.300781 52.1875 17.324219 C 52.066406 17.199219 51.9375 17.09375 51.800781 16.996094 Z M 45.75 18.5 C 45.535156 18.382812 45.230469 18.007812 45.238281 18.007812 C 45.515625 18.171875 45.761719 18.507812 45.75 18.5 Z M 45.378906 18.273438 C 45.191406 18.160156 45.003906 18.046875 44.816406 17.9375 C 45.046875 17.976562 45.230469 18.09375 45.378906 18.273438 Z M 45.113281 18.25 C 44.976562 18.210938 44.851562 18.144531 44.710938 18.109375 C 44.574219 18.070312 44.441406 18.046875 44.300781 18.019531 C 44.605469 17.964844 44.871094 18.066406 45.113281 18.25 Z M 44.648438 18.160156 C 44.441406 18.167969 44.222656 18.160156 44.074219 18.125 C 44.214844 18.089844 44.433594 18.109375 44.648438 18.160156 Z M 44.128906 18.328125 C 44.316406 18.273438 44.429688 18.292969 44.601562 18.34375 C 44.472656 18.363281 44.308594 18.363281 44.128906 18.328125 Z M 44.359375 18.5 C 44.589844 18.457031 44.734375 18.421875 44.9375 18.425781 C 44.773438 18.5 44.605469 18.558594 44.359375 18.5 Z M 44.578125 18.628906 C 44.867188 18.605469 45.082031 18.507812 45.359375 18.511719 C 45.113281 18.628906 44.875 18.683594 44.578125 18.628906 Z M 45.535156 18.609375 C 45.34375 18.785156 45.011719 18.824219 44.832031 18.820312 C 44.992188 18.765625 45.332031 18.640625 45.535156 18.609375 Z M 45.238281 18.9375 C 45.378906 18.878906 45.582031 18.746094 45.746094 18.722656 C 45.746094 18.722656 45.550781 18.9375 45.238281 18.9375 Z M 45.628906 18.9375 C 45.628906 18.933594 45.800781 18.824219 45.953125 18.773438 C 45.894531 18.871094 45.640625 18.949219 45.628906 18.9375 Z M 45.996094 18.640625 C 45.875 18.550781 45.824219 18.394531 45.765625 18.238281 C 45.917969 18.40625 45.996094 18.640625 45.996094 18.640625 Z M 46.875 17.496094 C 46.621094 17.066406 46.554688 16.609375 46.660156 16.125 C 46.609375 16.601562 46.722656 17.050781 46.875 17.496094 Z M 46.609375 14.5 C 46.015625 14.664062 45.496094 14.496094 45.027344 14.125 C 44.757812 13.914062 44.523438 13.671875 44.277344 13.433594 C 44.0625 13.230469 43.839844 13.035156 43.554688 12.933594 C 43.472656 12.90625 43.386719 12.882812 43.296875 12.882812 C 43.523438 12.644531 43.691406 12.359375 44 12.21875 C 43.777344 12.242188 43.574219 12.300781 43.410156 12.464844 C 43.375 12.398438 43.375 12.386719 43.429688 12.328125 C 43.558594 12.1875 43.714844 12.082031 43.875 11.972656 C 43.683594 11.996094 43.5 12.046875 43.339844 12.160156 C 43.230469 11.871094 43.296875 11.503906 43.523438 11.289062 C 43.582031 11.230469 43.644531 11.1875 43.714844 11.140625 C 43.75 11.117188 43.769531 11.121094 43.796875 11.15625 C 43.933594 11.339844 44.023438 11.542969 44.097656 11.757812 C 44.433594 12.726562 45.105469 13.394531 46.007812 13.847656 C 46.296875 13.996094 46.59375 14.128906 46.914062 14.199219 C 47 14.21875 47.089844 14.226562 47.203125 14.222656 C 47.007812 14.367188 46.816406 14.449219 46.609375 14.5 Z M 46.601562 8.035156 C 46.816406 8.277344 47.097656 8.332031 47.367188 8.410156 C 47.753906 8.523438 48.058594 8.75 48.300781 9.0625 C 48.347656 9.121094 48.453125 9.25 48.441406 9.257812 C 48.441406 9.257812 48.144531 9.238281 47.960938 9.097656 C 47.429688 8.691406 46.652344 8.859375 46.3125 9.488281 C 46.128906 9.824219 46.09375 10.183594 46.128906 10.554688 C 46.148438 10.738281 46.242188 11.140625 46.242188 11.179688 C 46.078125 10.949219 45.984375 10.703125 45.925781 10.445312 C 45.832031 10.050781 45.832031 9.660156 45.984375 9.28125 C 46.058594 9.085938 46.179688 8.914062 46.308594 8.75 C 46.347656 8.699219 46.386719 8.652344 46.425781 8.601562 C 46.550781 8.441406 46.628906 8.265625 46.601562 8.035156 Z M 50.503906 10.21875 C 50.574219 10.570312 50.601562 10.921875 50.488281 11.273438 C 50.371094 11.636719 50.132812 11.914062 49.84375 12.15625 C 49.566406 12.390625 49.253906 12.554688 48.90625 12.65625 C 48.890625 12.664062 48.871094 12.664062 48.828125 12.671875 C 48.964844 12.550781 49.074219 12.433594 49.167969 12.304688 C 49.53125 11.789062 49.738281 11.226562 49.710938 10.59375 C 49.699219 10.277344 49.628906 9.976562 49.472656 9.699219 C 49.289062 9.375 49.042969 9.125 48.671875 9.039062 C 48.5625 9.011719 48.476562 8.976562 48.410156 8.882812 C 48.367188 8.824219 48.308594 8.777344 48.246094 8.714844 C 48.542969 8.675781 48.808594 8.730469 49.066406 8.847656 C 49.175781 8.898438 49.28125 8.960938 49.386719 9.027344 C 49.984375 9.347656 50.433594 9.117188 50.433594 9.117188 C 50.355469 9.484375 50.429688 9.851562 50.503906 10.21875 Z M 44.390625 10.449219 C 44.378906 10.253906 44.316406 10.082031 44.113281 9.96875 C 44.402344 9.925781 44.558594 9.726562 44.714844 9.527344 C 45.035156 9.109375 45.476562 8.914062 45.996094 8.828125 C 45.660156 9.300781 45.609375 9.816406 45.695312 10.359375 C 45.632812 10.246094 45.578125 10.136719 45.496094 10.042969 C 45.515625 10.140625 45.539062 10.234375 45.554688 10.332031 C 45.566406 10.429688 45.582031 10.523438 45.558594 10.640625 C 45.496094 10.492188 45.429688 10.367188 45.332031 10.265625 C 45.328125 10.269531 45.324219 10.273438 45.320312 10.277344 C 45.371094 10.417969 45.414062 10.5625 45.402344 10.714844 C 45.390625 10.847656 45.332031 10.953125 45.207031 11.011719 C 45.113281 11.050781 45.054688 11.011719 45.054688 10.910156 C 45.050781 10.78125 45.078125 10.65625 45.117188 10.535156 C 45.027344 10.632812 44.976562 10.75 44.953125 10.878906 C 44.894531 11.152344 44.972656 11.398438 45.128906 11.621094 C 45.515625 12.15625 45.945312 12.652344 46.457031 13.078125 C 46.457031 13.082031 46.460938 13.085938 46.46875 13.097656 C 46.339844 13.078125 46.21875 13.039062 46.101562 12.992188 C 45.566406 12.769531 45.074219 12.472656 44.6875 12.023438 C 44.359375 11.65625 44.238281 11.234375 44.367188 10.746094 C 44.386719 10.652344 44.394531 10.550781 44.390625 10.449219 Z M 47.304688 10.9375 C 47.160156 10.960938 46.851562 10.695312 46.683594 10.40625 C 46.726562 10.40625 46.753906 10.429688 46.785156 10.449219 C 47.125 10.617188 47.480469 10.695312 47.859375 10.613281 C 48.175781 10.550781 48.339844 10.300781 48.339844 10.308594 C 48.21875 10.707031 47.804688 10.859375 47.394531 10.710938 C 47.394531 10.710938 47.535156 10.898438 47.953125 10.972656 C 47.636719 11.003906 47.367188 10.878906 47.097656 10.679688 C 47.136719 10.8125 47.214844 10.878906 47.304688 10.9375 Z M 48.585938 10.359375 C 48.535156 10.109375 48.367188 9.953125 48.132812 9.847656 C 48.574219 9.769531 48.972656 10.339844 48.816406 10.816406 C 48.808594 10.695312 48.808594 10.582031 48.746094 10.464844 C 48.722656 10.710938 48.695312 10.9375 48.445312 11.042969 C 48.585938 10.839844 48.636719 10.609375 48.585938 10.359375 Z M 48.1875 10.144531 C 48.128906 10.324219 47.828125 10.5 47.542969 10.492188 C 47.496094 10.378906 47.53125 10.234375 47.5625 10.144531 C 47.574219 10.101562 47.625 10.082031 47.667969 10.097656 C 47.851562 10.175781 47.992188 10.203125 48.1875 10.144531 Z M 47.761719 9.949219 C 47.554688 9.832031 47.394531 9.964844 47.371094 10.171875 C 47.363281 10.257812 47.351562 10.382812 47.355469 10.46875 C 47.355469 10.46875 47.171875 10.316406 47.222656 10.027344 C 47.265625 9.8125 47.535156 9.621094 47.785156 9.816406 C 47.851562 9.871094 47.910156 9.929688 47.972656 10.007812 C 47.890625 10.007812 47.820312 9.984375 47.761719 9.949219 Z M 47.460938 9.570312 C 47.445312 9.589844 47.425781 9.609375 47.402344 9.621094 C 47.152344 9.746094 47.082031 9.960938 47.089844 10.222656 C 47.089844 10.238281 47.09375 10.253906 47.09375 10.277344 C 46.960938 10.160156 46.925781 9.898438 47.011719 9.714844 C 47.132812 9.46875 47.40625 9.320312 47.683594 9.367188 C 47.597656 9.429688 47.527344 9.5 47.460938 9.570312 Z M 47.476562 11.523438 C 47.632812 11.484375 47.710938 11.339844 47.839844 11.277344 C 47.890625 11.253906 47.949219 11.257812 48.003906 11.277344 C 48.335938 11.414062 48.515625 11.238281 48.800781 11.125 C 48.703125 11.277344 48.511719 11.601562 48.226562 11.570312 C 48.113281 11.53125 47.992188 11.757812 47.871094 11.851562 C 47.835938 11.882812 47.785156 11.882812 47.746094 11.863281 C 47.179688 11.59375 46.554688 11.539062 46.554688 11.539062 C 46.90625 11.375 47.242188 11.578125 47.476562 11.523438 Z M 48.398438 11.859375 C 48.53125 11.742188 48.667969 11.632812 48.796875 11.511719 C 49.050781 11.265625 49.226562 10.972656 49.234375 10.609375 C 49.238281 10.171875 49.125 9.769531 48.804688 9.449219 C 48.738281 9.382812 48.617188 9.171875 48.613281 9.171875 C 48.613281 9.171875 48.726562 9.214844 48.753906 9.222656 C 48.972656 9.304688 49.148438 9.445312 49.269531 9.640625 C 49.585938 10.152344 49.660156 10.703125 49.464844 11.273438 C 49.300781 11.75 48.925781 12 48.449219 12.105469 C 48.351562 12.125 48.257812 12.144531 48.148438 12.164062 C 48.21875 12.042969 48.296875 11.941406 48.398438 11.859375 Z M 48.6875 9.527344 C 48.984375 9.75 49.144531 10.234375 49.011719 10.53125 C 48.972656 10.296875 48.886719 10.09375 48.71875 9.9375 C 48.503906 9.726562 48.25 9.640625 47.953125 9.699219 C 47.910156 9.707031 47.882812 9.699219 47.847656 9.675781 C 47.78125 9.632812 47.707031 9.601562 47.621094 9.59375 C 47.925781 9.320312 48.371094 9.292969 48.6875 9.527344 Z M 46.589844 10.171875 C 46.371094 9.804688 46.472656 9.335938 46.847656 9.152344 C 47.160156 8.996094 47.480469 8.996094 47.796875 9.160156 C 47.828125 9.175781 47.925781 9.246094 47.925781 9.246094 C 47.175781 9.125 46.753906 9.5 46.589844 10.171875 Z M 47.355469 11.1875 C 47.050781 11.214844 46.792969 11.101562 46.5625 10.898438 C 46.542969 11.050781 46.640625 11.308594 46.640625 11.304688 C 46.375 10.910156 46.394531 10.457031 46.386719 10.007812 C 46.546875 10.535156 46.832031 10.957031 47.355469 11.1875 Z M 47.054688 11.984375 C 47.488281 12.125 47.929688 12.242188 48.332031 12.472656 C 48.492188 12.5625 48.644531 12.65625 48.746094 12.8125 C 48.757812 12.816406 48.210938 12.542969 47.707031 12.589844 C 47.582031 12.597656 47.460938 12.628906 47.335938 12.65625 C 47.035156 12.730469 46.949219 12.628906 46.875 12.328125 C 46.871094 12.316406 46.777344 12.398438 46.738281 12.425781 C 46.742188 12.355469 46.730469 12.234375 46.722656 12.136719 C 46.664062 12.300781 46.589844 12.4375 46.453125 12.488281 C 46.390625 12.511719 46.34375 12.558594 46.304688 12.625 C 46.261719 12.542969 46.230469 12.460938 46.1875 12.382812 C 46.015625 12.066406 45.765625 11.828125 45.472656 11.636719 C 45.148438 11.390625 45.074219 11.15625 45.074219 11.15625 C 45.082031 11.164062 45.089844 11.167969 45.097656 11.175781 C 45.703125 11.550781 46.378906 11.769531 47.054688 11.984375 Z M 45.945312 13.324219 C 46.355469 13.234375 46.773438 13.214844 47.191406 13.191406 C 47.878906 13.148438 48.542969 12.996094 49.191406 12.777344 C 49.464844 12.6875 49.738281 12.578125 50.027344 12.53125 C 50.226562 12.5 50.425781 12.492188 50.640625 12.550781 C 50.136719 12.636719 49.863281 13.003906 49.574219 13.355469 C 49.460938 13.496094 49.355469 13.652344 49.246094 13.800781 C 49.230469 13.816406 49.226562 13.851562 49.1875 13.828125 C 48.953125 13.691406 48.707031 13.734375 48.460938 13.804688 C 48.390625 13.824219 48.316406 13.851562 48.246094 13.871094 C 48.105469 13.90625 48.023438 13.867188 47.960938 13.730469 C 47.941406 13.6875 47.902344 13.597656 47.898438 13.597656 C 47.898438 13.675781 47.890625 13.839844 47.886719 13.839844 C 47.878906 13.792969 47.867188 13.746094 47.855469 13.683594 C 47.792969 13.847656 47.710938 13.984375 47.582031 14.089844 C 47.542969 14.128906 47.515625 14.140625 47.46875 14.085938 C 47.246094 13.820312 46.9375 13.6875 46.613281 13.59375 C 46.3125 13.507812 46.007812 13.476562 45.699219 13.472656 C 45.648438 13.472656 45.59375 13.484375 45.535156 13.445312 C 45.667969 13.382812 45.804688 13.351562 45.945312 13.324219 Z M 45.957031 8.703125 C 45.34375 8.773438 44.855469 9.078125 44.472656 9.554688 C 44.421875 9.613281 44.371094 9.671875 44.316406 9.730469 C 44.207031 9.839844 44.074219 9.875 43.921875 9.886719 C 44.007812 9.707031 44.117188 9.554688 44.253906 9.417969 C 44.492188 9.179688 44.734375 8.949219 44.929688 8.675781 C 44.984375 8.597656 45.035156 8.515625 45.09375 8.433594 C 45.203125 8.597656 45.359375 8.566406 45.507812 8.539062 C 45.707031 8.503906 45.902344 8.445312 46.105469 8.4375 C 46.171875 8.433594 46.238281 8.433594 46.3125 8.449219 C 46.214844 8.570312 46.140625 8.683594 45.957031 8.703125 Z M 43.945312 10.003906 C 44.082031 10.0625 44.132812 10.140625 44.109375 10.289062 C 44.09375 10.40625 44.074219 10.523438 44.058594 10.640625 C 44.042969 10.753906 44.035156 10.867188 44.019531 11.007812 C 43.910156 10.84375 43.851562 10.6875 43.835938 10.519531 C 43.820312 10.359375 43.824219 10.199219 43.863281 10.039062 C 43.878906 9.984375 43.902344 9.984375 43.945312 10.003906 Z M 51.347656 12.144531 C 51.363281 12.433594 51.289062 12.710938 51.1875 12.976562 C 51.171875 13.019531 51.152344 13.027344 51.101562 13.015625 C 50.929688 12.976562 50.753906 13.003906 50.566406 13.035156 C 50.773438 13.070312 50.953125 13.140625 51.050781 13.179688 C 51.085938 13.191406 51.09375 13.210938 51.089844 13.242188 C 51.078125 13.292969 51.046875 13.273438 51.019531 13.269531 C 50.835938 13.234375 50.644531 13.242188 50.5 13.296875 C 50.667969 13.3125 50.8125 13.347656 50.953125 13.398438 C 51.03125 13.425781 51.078125 13.472656 51.078125 13.558594 C 51.078125 13.5625 50.761719 13.46875 50.527344 13.570312 C 50.851562 13.621094 51.160156 13.707031 51.382812 13.976562 C 50.875 14.074219 50.558594 14.4375 50.257812 14.8125 C 50.125 14.980469 49.925781 15.296875 49.957031 15.636719 C 49.863281 15.546875 49.75 15.503906 49.640625 15.449219 C 49.480469 15.375 49.414062 15.253906 49.335938 15.113281 C 49.3125 15.070312 49.257812 14.953125 49.257812 14.953125 C 49.246094 15 49.3125 15.296875 49.351562 15.414062 C 49.148438 15.261719 49.042969 15.054688 48.914062 14.863281 C 48.925781 15.015625 48.992188 15.269531 49.117188 15.441406 C 48.941406 15.339844 48.828125 15.179688 48.703125 15.027344 C 48.695312 15.128906 48.804688 15.359375 48.941406 15.550781 C 48.835938 15.601562 48.726562 15.621094 48.613281 15.636719 C 48.363281 15.675781 48.117188 15.675781 47.875 15.597656 C 47.46875 15.464844 47.222656 15.183594 47.117188 14.769531 C 47.101562 14.699219 47.113281 14.683594 47.195312 14.679688 C 48.050781 14.660156 48.839844 14.421875 49.535156 13.914062 C 49.824219 13.703125 50.046875 13.429688 50.117188 13.070312 C 50.140625 12.960938 50.199219 12.894531 50.277344 12.832031 C 50.398438 12.738281 50.535156 12.667969 50.675781 12.609375 C 50.703125 12.597656 50.761719 12.566406 50.761719 12.566406 C 50.609375 12.460938 50.441406 12.402344 50.257812 12.386719 C 50.199219 12.382812 50.136719 12.238281 50.441406 11.816406 C 50.578125 11.644531 50.671875 11.441406 50.722656 11.226562 C 50.730469 11.1875 50.742188 11.183594 50.777344 11.207031 C 51.109375 11.429688 51.324219 11.726562 51.347656 12.144531 Z M 48.265625 8.214844 C 48.730469 8.140625 49.195312 8.140625 49.648438 8.261719 C 49.667969 8.265625 49.675781 8.292969 49.664062 8.308594 C 49.628906 8.347656 49.578125 8.421875 49.570312 8.496094 C 49.570312 8.496094 49.84375 8.316406 49.894531 8.339844 C 49.917969 8.347656 49.933594 8.355469 49.949219 8.363281 C 49.964844 8.367188 49.96875 8.386719 49.957031 8.402344 C 49.921875 8.4375 49.867188 8.511719 49.859375 8.570312 C 49.859375 8.570312 50.082031 8.425781 50.167969 8.476562 C 50.191406 8.488281 50.265625 8.535156 50.285156 8.546875 C 50.496094 8.675781 50.710938 8.765625 50.976562 8.734375 C 50.824219 8.945312 50.882812 9.160156 50.941406 9.375 C 50.992188 9.554688 51.054688 9.734375 51.0625 9.917969 C 51.074219 10.164062 51.007812 10.378906 50.832031 10.570312 C 50.84375 10.113281 50.695312 9.691406 50.667969 9.253906 C 50.660156 9.113281 50.648438 8.972656 50.671875 8.832031 C 50.238281 9.046875 49.8125 9.050781 49.390625 8.804688 C 49.09375 8.625 48.769531 8.527344 48.421875 8.550781 C 48.355469 8.554688 48.285156 8.558594 48.222656 8.578125 C 48.144531 8.597656 48.089844 8.59375 48.023438 8.542969 C 47.960938 8.492188 47.890625 8.457031 47.816406 8.410156 C 47.945312 8.296875 48.101562 8.242188 48.265625 8.214844 Z M 43.472656 9.699219 C 43.472656 9.421875 43.597656 9.199219 43.789062 9.007812 C 43.910156 8.886719 44.046875 8.78125 44.175781 8.660156 C 44.441406 8.417969 44.625 8.132812 44.675781 7.769531 C 44.683594 7.699219 44.683594 7.625 44.6875 7.546875 C 44.8125 7.664062 44.960938 7.738281 45.128906 7.738281 C 45.292969 7.738281 45.445312 7.761719 45.570312 7.882812 C 45.597656 7.859375 45.578125 7.769531 45.566406 7.722656 C 45.546875 7.65625 45.585938 7.65625 45.621094 7.671875 C 45.671875 7.6875 45.722656 7.714844 45.773438 7.738281 C 45.792969 7.699219 45.769531 7.664062 45.753906 7.632812 C 45.722656 7.5625 45.761719 7.558594 45.8125 7.5625 C 45.875 7.566406 45.921875 7.613281 45.976562 7.632812 C 45.976562 7.632812 45.984375 7.613281 45.980469 7.601562 C 45.976562 7.53125 45.878906 7.484375 45.960938 7.402344 C 46.015625 7.34375 46.042969 7.269531 46.078125 7.199219 C 46.089844 7.207031 46.101562 7.21875 46.109375 7.230469 C 46.328125 7.527344 46.640625 7.636719 46.988281 7.65625 C 47.195312 7.667969 47.398438 7.648438 47.601562 7.6875 C 47.796875 7.726562 47.960938 7.816406 48.09375 7.964844 C 48.132812 8.003906 48.121094 8.023438 48.070312 8.035156 C 47.914062 8.074219 47.777344 8.148438 47.652344 8.253906 C 47.632812 8.273438 47.609375 8.289062 47.578125 8.277344 C 47.324219 8.179688 47.054688 8.136719 46.804688 8.042969 C 46.679688 7.996094 46.578125 7.914062 46.507812 7.789062 C 46.503906 7.921875 46.503906 8.050781 46.46875 8.175781 C 46.457031 8.230469 46.4375 8.261719 46.363281 8.25 C 46.097656 8.226562 45.835938 8.285156 45.578125 8.351562 C 45.523438 8.363281 45.464844 8.375 45.410156 8.386719 C 45.148438 8.449219 45.148438 8.113281 45.148438 8.113281 C 44.945312 8.480469 44.65625 8.820312 44.351562 9.105469 C 44.167969 9.277344 43.980469 9.445312 43.839844 9.65625 C 43.746094 9.792969 43.679688 9.941406 43.636719 10.117188 C 43.523438 9.988281 43.472656 9.851562 43.472656 9.699219 Z M 44.261719 15.273438 C 44.507812 15.429688 44.808594 15.921875 44.808594 15.921875 C 44.597656 15.722656 44.402344 15.503906 44.175781 15.316406 C 44.113281 15.261719 44.042969 15.207031 43.960938 15.140625 C 44.085938 15.164062 44.175781 15.214844 44.261719 15.273438 Z M 45.113281 16.117188 C 44.933594 15.851562 44.757812 15.597656 44.582031 15.335938 C 44.753906 15.386719 45.105469 15.902344 45.113281 16.117188 Z M 45.019531 15.5625 C 45.21875 15.757812 45.566406 16.488281 45.546875 16.539062 C 45.273438 16.273438 45.015625 15.5625 45.019531 15.5625 Z M 44.195312 15.492188 C 43.960938 15.425781 43.699219 15.285156 43.460938 15.203125 C 43.59375 15.1875 44.011719 15.339844 44.195312 15.492188 Z M 43.859375 15.597656 C 43.738281 15.597656 43.613281 15.5625 43.480469 15.464844 C 43.652344 15.46875 43.742188 15.53125 43.859375 15.597656 Z M 43.53125 15.652344 C 43.769531 15.6875 43.992188 15.765625 44.207031 15.867188 C 43.976562 15.8125 43.75 15.746094 43.53125 15.652344 Z M 44.597656 16.140625 C 44.289062 16.125 43.980469 16.039062 43.707031 15.890625 C 44.007812 15.933594 44.289062 16.050781 44.597656 16.140625 Z M 43.984375 16.203125 C 44.257812 16.25 44.527344 16.300781 44.8125 16.398438 C 44.503906 16.410156 44.230469 16.359375 43.984375 16.203125 Z M 45.070312 16.554688 C 44.8125 16.59375 44.566406 16.59375 44.332031 16.519531 C 44.570312 16.539062 44.8125 16.523438 45.070312 16.554688 Z M 44.515625 16.71875 C 44.832031 16.726562 45.0625 16.605469 45.382812 16.652344 C 45.078125 16.75 44.839844 16.789062 44.515625 16.71875 Z M 44.8125 17.035156 C 45.035156 16.917969 45.367188 16.941406 45.617188 16.882812 C 45.417969 17.054688 45.070312 17.046875 44.8125 17.035156 Z M 45.796875 16.738281 C 45.667969 16.484375 45.667969 16.203125 45.589844 15.941406 C 45.730469 16.1875 45.820312 16.445312 45.796875 16.738281 Z M 45.433594 15.523438 C 45.210938 15.460938 45.019531 15.328125 44.851562 15.171875 C 44.664062 15 44.460938 14.855469 44.238281 14.746094 C 44.21875 14.734375 44.214844 14.699219 44.234375 14.683594 L 44.441406 14.5 C 44.441406 14.5 44.273438 14.53125 43.996094 14.628906 C 43.90625 14.660156 43.226562 14.476562 42.820312 13.988281 C 42.714844 13.855469 42.589844 13.742188 42.457031 13.640625 C 42.398438 13.59375 42.332031 13.558594 42.253906 13.527344 C 42.378906 13.441406 42.46875 13.332031 42.523438 13.195312 C 42.539062 13.160156 42.566406 13.167969 42.589844 13.167969 C 42.714844 13.167969 42.835938 13.167969 42.984375 13.167969 C 42.855469 13.09375 42.734375 13.066406 42.613281 13.027344 C 42.585938 13.019531 42.542969 13.011719 42.554688 12.953125 C 42.554688 12.953125 42.765625 12.960938 42.910156 12.960938 C 42.84375 12.921875 42.605469 12.84375 42.582031 12.832031 C 42.492188 12.78125 42.355469 12.125 42.359375 11.878906 C 42.371094 11.199219 42.78125 10.707031 43.449219 10.582031 C 43.492188 10.570312 43.574219 10.566406 43.574219 10.566406 C 43.53125 10.699219 43.492188 10.824219 43.492188 10.960938 C 43.492188 10.992188 43.472656 11.003906 43.453125 11.023438 C 43.1875 11.242188 43.09375 11.429688 43.054688 11.769531 C 42.996094 11.710938 42.890625 11.707031 42.890625 11.707031 C 43.019531 11.875 43.09375 12.085938 43.113281 12.175781 C 42.988281 12.140625 42.878906 12.09375 42.753906 12.078125 C 42.925781 12.183594 43.226562 12.503906 43.246094 12.535156 C 43.082031 12.496094 42.929688 12.464844 42.75 12.46875 C 42.90625 12.535156 43.105469 12.65625 43.230469 12.734375 C 43.230469 12.734375 43.054688 12.976562 43.058594 12.976562 C 43.179688 12.972656 43.441406 13.132812 43.496094 13.167969 C 43.316406 13.246094 43.136719 13.3125 42.988281 13.4375 L 42.992188 13.441406 C 43.21875 13.394531 43.695312 13.265625 43.835938 13.335938 C 43.679688 13.433594 43.523438 13.53125 43.390625 13.664062 C 43.84375 13.519531 44.027344 13.589844 44.007812 13.605469 C 43.890625 13.714844 43.679688 13.957031 43.6875 13.964844 C 43.820312 13.902344 44.21875 13.714844 44.332031 13.820312 C 44.210938 13.914062 44.09375 14.015625 43.996094 14.136719 C 44.125 14.066406 44.445312 13.921875 44.566406 14.023438 C 44.449219 14.078125 44.332031 14.140625 44.238281 14.238281 C 44.371094 14.210938 44.496094 14.191406 44.625 14.167969 C 44.648438 14.160156 44.675781 14.160156 44.699219 14.175781 C 44.839844 14.269531 44.984375 14.363281 45.132812 14.457031 C 45.046875 14.488281 44.96875 14.515625 44.890625 14.542969 C 45.042969 14.550781 45.191406 14.558594 45.351562 14.59375 C 45.246094 14.691406 45.164062 14.789062 45.09375 14.898438 C 45.09375 14.898438 45.449219 14.707031 45.609375 14.734375 C 45.523438 14.820312 45.40625 15.03125 45.410156 15.039062 C 45.570312 14.929688 45.722656 14.800781 45.949219 14.800781 C 45.871094 14.914062 45.800781 15.011719 45.730469 15.109375 C 45.984375 14.960938 46.25 14.957031 46.25 14.957031 C 46.25 14.957031 46.042969 15.195312 46.046875 15.191406 C 46.25 15.085938 46.539062 15.0625 46.542969 15.070312 C 46.542969 15.070312 46.519531 15.113281 46.511719 15.128906 C 46.621094 15.113281 46.847656 15.09375 46.84375 15.097656 C 46.4375 15.46875 45.988281 15.675781 45.433594 15.523438 Z M 47.003906 18.789062 C 46.875 18.125 46.558594 17.550781 46.136719 17.027344 C 46.09375 16.972656 46.082031 16.929688 46.097656 16.863281 C 46.160156 16.542969 46.203125 16.226562 46.089844 15.910156 C 46.070312 15.855469 46.046875 15.800781 46.027344 15.742188 C 46.222656 15.703125 46.398438 15.625 46.582031 15.511719 C 46.558594 15.644531 46.535156 15.765625 46.515625 15.886719 C 46.460938 16.207031 46.425781 16.53125 46.472656 16.859375 C 46.5625 17.535156 46.980469 17.863281 47.003906 18.789062 Z M 50.714844 16.726562 C 50.332031 16.777344 49.554688 17.125 49.558594 17.121094 C 49.890625 16.832031 50.253906 16.636719 50.714844 16.726562 Z M 50.003906 16.601562 C 50.015625 16.597656 49.875 16.707031 49.792969 16.757812 C 49.597656 16.882812 49.195312 17.144531 49.207031 17.136719 C 49.410156 16.863281 49.675781 16.6875 50.003906 16.601562 Z M 49.402344 16.71875 C 49.101562 17.136719 48.648438 17.46875 48.65625 17.464844 C 48.855469 17.167969 49.113281 16.925781 49.402344 16.71875 Z M 48.738281 16.9375 C 48.742188 16.941406 48.511719 17.441406 48.332031 17.640625 C 48.382812 17.363281 48.730469 16.929688 48.738281 16.9375 Z M 48.40625 17.761719 C 48.605469 17.894531 48.742188 18.003906 48.910156 18.171875 C 48.695312 18.058594 48.472656 17.933594 48.40625 17.761719 Z M 48.554688 17.601562 C 48.917969 17.667969 49.171875 17.921875 49.496094 18.015625 C 49.148438 17.976562 48.851562 17.824219 48.554688 17.601562 Z M 48.972656 17.65625 C 49.183594 17.699219 49.375 17.796875 49.578125 17.863281 C 49.277344 17.863281 48.96875 17.640625 48.972656 17.65625 Z M 49.226562 17.566406 C 49.503906 17.609375 49.785156 17.65625 50.089844 17.703125 C 49.769531 17.761719 49.496094 17.710938 49.226562 17.566406 Z M 49.46875 17.421875 C 49.847656 17.441406 50.230469 17.445312 50.601562 17.507812 C 50.214844 17.578125 49.839844 17.515625 49.46875 17.421875 Z M 49.984375 17.320312 C 50.054688 17.300781 50.28125 17.296875 50.382812 17.300781 C 50.488281 17.300781 50.785156 17.332031 50.886719 17.363281 C 50.621094 17.382812 50.332031 17.390625 49.984375 17.320312 Z M 50.355469 17.1875 C 50.59375 17.125 50.832031 17.121094 51.109375 17.1875 Z M 50.28125 16.957031 C 50.601562 16.84375 50.867188 16.859375 51.175781 16.90625 C 50.871094 16.910156 50.59375 16.929688 50.28125 16.957031 Z M 50.28125 16.957031 " fill-opacity="1" fill-rule="nonzero"/></g><g fill="#222222" fill-opacity="1"><g transform="translate(59.16604, 27.732575)"><g><path d="M 2.75 -0.484375 L 2.75 0 L 0.421875 0 L 0.421875 -3.109375 L 2.6875 -3.109375 L 2.6875 -2.625 L 1 -2.625 L 1 -1.8125 L 2.5 -1.8125 L 2.5 -1.34375 L 1 -1.34375 L 1 -0.484375 Z M 2.75 -0.484375 "/></g></g></g><g fill="#222222" fill-opacity="1"><g transform="translate(61.808125, 27.732575)"><g><path d="M 1.375 0.046875 C 1.132812 0.046875 0.898438 0.015625 0.671875 -0.046875 C 0.453125 -0.117188 0.28125 -0.210938 0.15625 -0.328125 L 0.359375 -0.78125 C 0.484375 -0.675781 0.632812 -0.59375 0.8125 -0.53125 C 1 -0.46875 1.1875 -0.4375 1.375 -0.4375 C 1.601562 -0.4375 1.773438 -0.472656 1.890625 -0.546875 C 2.003906 -0.617188 2.0625 -0.71875 2.0625 -0.84375 C 2.0625 -0.925781 2.03125 -0.992188 1.96875 -1.046875 C 1.90625 -1.109375 1.820312 -1.15625 1.71875 -1.1875 C 1.625 -1.226562 1.492188 -1.265625 1.328125 -1.296875 C 1.085938 -1.359375 0.894531 -1.414062 0.75 -1.46875 C 0.601562 -1.53125 0.476562 -1.617188 0.375 -1.734375 C 0.269531 -1.859375 0.21875 -2.019531 0.21875 -2.21875 C 0.21875 -2.394531 0.265625 -2.550781 0.359375 -2.6875 C 0.453125 -2.832031 0.59375 -2.945312 0.78125 -3.03125 C 0.96875 -3.113281 1.195312 -3.15625 1.46875 -3.15625 C 1.65625 -3.15625 1.84375 -3.128906 2.03125 -3.078125 C 2.21875 -3.035156 2.375 -2.96875 2.5 -2.875 L 2.328125 -2.421875 C 2.191406 -2.503906 2.046875 -2.566406 1.890625 -2.609375 C 1.742188 -2.648438 1.601562 -2.671875 1.46875 -2.671875 C 1.238281 -2.671875 1.066406 -2.628906 0.953125 -2.546875 C 0.847656 -2.472656 0.796875 -2.375 0.796875 -2.25 C 0.796875 -2.15625 0.828125 -2.082031 0.890625 -2.03125 C 0.953125 -1.976562 1.03125 -1.929688 1.125 -1.890625 C 1.226562 -1.859375 1.363281 -1.820312 1.53125 -1.78125 C 1.757812 -1.726562 1.945312 -1.671875 2.09375 -1.609375 C 2.25 -1.554688 2.378906 -1.472656 2.484375 -1.359375 C 2.585938 -1.242188 2.640625 -1.082031 2.640625 -0.875 C 2.640625 -0.707031 2.59375 -0.550781 2.5 -0.40625 C 2.40625 -0.269531 2.257812 -0.160156 2.0625 -0.078125 C 1.875 0.00390625 1.644531 0.046875 1.375 0.046875 Z M 1.375 0.046875 "/></g></g></g><g fill="#222222" fill-opacity="1"><g transform="translate(64.26815, 27.732575)"><g><path d="M 1.046875 -2.625 L 0.015625 -2.625 L 0.015625 -3.109375 L 2.65625 -3.109375 L 2.65625 -2.625 L 1.625 -2.625 L 1.625 0 L 1.046875 0 Z M 1.046875 -2.625 "/></g></g></g><g fill="#222222" fill-opacity="1"><g transform="translate(66.608282, 27.732575)"><g><path d="M 0.546875 0.03125 C 0.441406 0.03125 0.351562 0 0.28125 -0.0625 C 0.207031 -0.132812 0.171875 -0.226562 0.171875 -0.34375 C 0.171875 -0.445312 0.207031 -0.53125 0.28125 -0.59375 C 0.351562 -0.664062 0.441406 -0.703125 0.546875 -0.703125 C 0.648438 -0.703125 0.734375 -0.664062 0.796875 -0.59375 C 0.867188 -0.53125 0.90625 -0.445312 0.90625 -0.34375 C 0.90625 -0.226562 0.867188 -0.132812 0.796875 -0.0625 C 0.722656 0 0.640625 0.03125 0.546875 0.03125 Z M 0.546875 0.03125 "/></g></g></g><g fill="#222222" fill-opacity="1"><g transform="translate(67.358726, 27.732575)"><g/></g></g><g fill="#222222" fill-opacity="1"><g transform="translate(68.251266, 27.732575)"><g><path d="M 2.4375 -0.484375 L 2.4375 0 L 0.15625 0 L 0.15625 -0.390625 L 1.390625 -1.5625 C 1.523438 -1.6875 1.617188 -1.796875 1.671875 -1.890625 C 1.722656 -1.992188 1.75 -2.097656 1.75 -2.203125 C 1.75 -2.347656 1.695312 -2.457031 1.59375 -2.53125 C 1.5 -2.613281 1.359375 -2.65625 1.171875 -2.65625 C 0.847656 -2.65625 0.601562 -2.546875 0.4375 -2.328125 L 0.03125 -2.640625 C 0.15625 -2.796875 0.316406 -2.921875 0.515625 -3.015625 C 0.722656 -3.109375 0.957031 -3.15625 1.21875 -3.15625 C 1.550781 -3.15625 1.816406 -3.070312 2.015625 -2.90625 C 2.222656 -2.75 2.328125 -2.535156 2.328125 -2.265625 C 2.328125 -2.085938 2.289062 -1.925781 2.21875 -1.78125 C 2.144531 -1.632812 2.007812 -1.46875 1.8125 -1.28125 L 0.984375 -0.484375 Z M 2.4375 -0.484375 "/></g></g></g><g fill="#222222" fill-opacity="1"><g transform="translate(70.502592, 27.732575)"><g><path d="M 1.484375 0.046875 C 1.242188 0.046875 1.023438 -0.015625 0.828125 -0.140625 C 0.628906 -0.265625 0.472656 -0.445312 0.359375 -0.6875 C 0.242188 -0.9375 0.1875 -1.222656 0.1875 -1.546875 C 0.1875 -1.878906 0.242188 -2.164062 0.359375 -2.40625 C 0.472656 -2.644531 0.628906 -2.828125 0.828125 -2.953125 C 1.023438 -3.085938 1.242188 -3.15625 1.484375 -3.15625 C 1.734375 -3.15625 1.957031 -3.085938 2.15625 -2.953125 C 2.351562 -2.828125 2.507812 -2.644531 2.625 -2.40625 C 2.738281 -2.164062 2.796875 -1.878906 2.796875 -1.546875 C 2.796875 -1.222656 2.738281 -0.9375 2.625 -0.6875 C 2.507812 -0.445312 2.351562 -0.265625 2.15625 -0.140625 C 1.957031 -0.015625 1.734375 0.046875 1.484375 0.046875 Z M 1.484375 -0.453125 C 1.710938 -0.453125 1.890625 -0.539062 2.015625 -0.71875 C 2.140625 -0.90625 2.203125 -1.179688 2.203125 -1.546875 C 2.203125 -1.910156 2.140625 -2.1875 2.015625 -2.375 C 1.890625 -2.5625 1.710938 -2.65625 1.484375 -2.65625 C 1.265625 -2.65625 1.09375 -2.5625 0.96875 -2.375 C 0.84375 -2.1875 0.78125 -1.910156 0.78125 -1.546875 C 0.78125 -1.179688 0.84375 -0.90625 0.96875 -0.71875 C 1.09375 -0.539062 1.265625 -0.453125 1.484375 -0.453125 Z M 1.484375 -0.453125 "/></g></g></g><g fill="#222222" fill-opacity="1"><g transform="translate(73.157997, 27.732575)"><g><path d="M 2.4375 -0.484375 L 2.4375 0 L 0.15625 0 L 0.15625 -0.390625 L 1.390625 -1.5625 C 1.523438 -1.6875 1.617188 -1.796875 1.671875 -1.890625 C 1.722656 -1.992188 1.75 -2.097656 1.75 -2.203125 C 1.75 -2.347656 1.695312 -2.457031 1.59375 -2.53125 C 1.5 -2.613281 1.359375 -2.65625 1.171875 -2.65625 C 0.847656 -2.65625 0.601562 -2.546875 0.4375 -2.328125 L 0.03125 -2.640625 C 0.15625 -2.796875 0.316406 -2.921875 0.515625 -3.015625 C 0.722656 -3.109375 0.957031 -3.15625 1.21875 -3.15625 C 1.550781 -3.15625 1.816406 -3.070312 2.015625 -2.90625 C 2.222656 -2.75 2.328125 -2.535156 2.328125 -2.265625 C 2.328125 -2.085938 2.289062 -1.925781 2.21875 -1.78125 C 2.144531 -1.632812 2.007812 -1.46875 1.8125 -1.28125 L 0.984375 -0.484375 Z M 2.4375 -0.484375 "/></g></g></g><g fill="#222222" fill-opacity="1"><g transform="translate(75.409322, 27.732575)"><g><path d="M 1.171875 -1.90625 C 1.609375 -1.90625 1.929688 -1.816406 2.140625 -1.640625 C 2.347656 -1.472656 2.453125 -1.242188 2.453125 -0.953125 C 2.453125 -0.765625 2.40625 -0.59375 2.3125 -0.4375 C 2.21875 -0.289062 2.078125 -0.171875 1.890625 -0.078125 C 1.710938 0.00390625 1.488281 0.046875 1.21875 0.046875 C 1 0.046875 0.785156 0.015625 0.578125 -0.046875 C 0.367188 -0.109375 0.195312 -0.195312 0.0625 -0.3125 L 0.296875 -0.765625 C 0.410156 -0.671875 0.546875 -0.59375 0.703125 -0.53125 C 0.867188 -0.476562 1.039062 -0.453125 1.21875 -0.453125 C 1.414062 -0.453125 1.570312 -0.492188 1.6875 -0.578125 C 1.8125 -0.660156 1.875 -0.78125 1.875 -0.9375 C 1.875 -1.09375 1.8125 -1.210938 1.6875 -1.296875 C 1.5625 -1.378906 1.34375 -1.421875 1.03125 -1.421875 L 0.28125 -1.421875 L 0.453125 -3.109375 L 2.265625 -3.109375 L 2.265625 -2.625 L 0.9375 -2.625 L 0.875 -1.90625 Z M 1.171875 -1.90625 "/></g></g></g></svg>