<svg xmlns="http://www.w3.org/2000/svg" xmlns:xlink="http://www.w3.org/1999/xlink" width="40" zoomAndPan="magnify" viewBox="0 0 30 30.000001" height="40" preserveAspectRatio="xMidYMid meet" version="1.0"><defs><g/><clipPath id="2120a3c66a"><path d="M 2 6.210938 L 28 6.210938 L 28 14 L 2 14 Z M 2 6.210938 " clip-rule="nonzero"/></clipPath><clipPath id="1a0f0ffa02"><path d="M 0.484375 15 L 29.515625 15 L 29.515625 15.644531 L 0.484375 15.644531 Z M 0.484375 15 " clip-rule="nonzero"/></clipPath></defs><path fill="#ae8381" d="M 13.558594 13.75 L 12.105469 12.296875 C 11.351562 12.707031 10.695312 13.277344 10.179688 13.960938 L 13.71875 13.960938 C 13.675781 13.882812 13.625 13.8125 13.558594 13.75 " fill-opacity="1" fill-rule="nonzero"/><path fill="#664242" d="M 16.699219 13.960938 C 16.703125 13.925781 16.707031 13.890625 16.707031 13.859375 L 16.707031 11.804688 C 16.164062 11.644531 15.59375 11.558594 15 11.558594 C 14.160156 11.558594 13.355469 11.730469 12.628906 12.042969 L 14.546875 13.960938 L 16.699219 13.960938 " fill-opacity="1" fill-rule="nonzero"/><g clip-path="url(#2120a3c66a)"><path fill="#000000" d="M 25.183594 9.621094 L 21.472656 9.621094 L 20.347656 7.671875 C 19.832031 6.773438 18.863281 6.21875 17.828125 6.21875 L 12.171875 6.21875 C 11.136719 6.21875 10.167969 6.773438 9.652344 7.671875 L 8.527344 9.621094 L 7.402344 9.621094 C 7.402344 9.328125 7.160156 9.085938 6.863281 9.085938 L 5.46875 9.085938 C 5.171875 9.085938 4.933594 9.328125 4.929688 9.621094 L 4.816406 9.621094 C 3.445312 9.621094 2.328125 10.738281 2.328125 12.109375 L 2.328125 13.960938 L 3.546875 13.960938 L 3.546875 12.109375 C 3.546875 11.410156 4.117188 10.84375 4.816406 10.84375 L 9.230469 10.84375 L 10.707031 8.28125 C 11.011719 7.761719 11.566406 7.4375 12.171875 7.4375 L 17.828125 7.4375 C 18.429688 7.4375 18.988281 7.761719 19.289062 8.28125 L 20.769531 10.84375 L 25.183594 10.84375 C 25.882812 10.84375 26.453125 11.410156 26.453125 12.109375 L 26.453125 13.960938 L 27.671875 13.960938 L 27.671875 12.109375 C 27.671875 10.738281 26.554688 9.621094 25.183594 9.621094 " fill-opacity="1" fill-rule="nonzero"/></g><path fill="#74676f" d="M 17.257812 11.996094 L 17.257812 13.960938 L 19.820312 13.960938 C 19.164062 13.09375 18.28125 12.40625 17.257812 11.996094 " fill-opacity="1" fill-rule="nonzero"/><path fill="#000000" d="M 25.296875 11.742188 L 22.453125 11.742188 L 22.453125 13.003906 L 25.296875 13.003906 L 25.296875 11.742188 " fill-opacity="1" fill-rule="nonzero"/><path fill="#000000" d="M 21.246094 13.960938 L 21.917969 13.960938 C 20.605469 11.476562 18 9.785156 15 9.785156 C 12 9.785156 9.394531 11.476562 8.082031 13.960938 L 8.753906 13.960938 C 10.011719 11.816406 12.335938 10.375 15 10.375 C 17.664062 10.375 19.988281 11.816406 21.246094 13.960938 " fill-opacity="1" fill-rule="nonzero"/><g clip-path="url(#1a0f0ffa02)"><path fill="#000000" d="M 29.515625 15.820312 L 0.484375 15.820312 L 0.484375 15.070312 L 29.515625 15.070312 L 29.515625 15.820312 " fill-opacity="1" fill-rule="nonzero"/></g><g fill="#664242" fill-opacity="1"><g transform="translate(4.167909, 21.629013)"><g><path d="M -0.234375 -1.40625 C -0.285156 -1.40625 -0.335938 -1.414062 -0.390625 -1.4375 C -0.441406 -1.46875 -0.488281 -1.507812 -0.53125 -1.5625 C -0.632812 -1.6875 -0.6875 -1.859375 -0.6875 -2.078125 C -0.6875 -2.304688 -0.546875 -2.59375 -0.265625 -2.9375 C -0.00390625 -3.257812 0.300781 -3.546875 0.65625 -3.796875 C 1.039062 -4.054688 1.367188 -4.1875 1.640625 -4.1875 C 1.878906 -4.1875 2.039062 -4.117188 2.125 -3.984375 L 2.1875 -3.890625 C 2.226562 -3.816406 2.269531 -3.78125 2.3125 -3.78125 C 2.363281 -3.78125 2.4375 -3.785156 2.53125 -3.796875 L 3.140625 -3.828125 C 3.234375 -3.835938 3.304688 -3.84375 3.359375 -3.84375 C 3.410156 -3.84375 3.46875 -3.820312 3.53125 -3.78125 C 3.601562 -3.75 3.671875 -3.703125 3.734375 -3.640625 C 3.847656 -3.492188 3.90625 -3.335938 3.90625 -3.171875 C 3.90625 -2.992188 3.710938 -2.71875 3.328125 -2.34375 L 3.046875 -2.0625 C 2.835938 -1.851562 2.734375 -1.722656 2.734375 -1.671875 C 2.734375 -1.617188 2.757812 -1.570312 2.8125 -1.53125 C 2.863281 -1.488281 2.921875 -1.46875 2.984375 -1.46875 C 3.046875 -1.46875 3.113281 -1.484375 3.1875 -1.515625 C 3.257812 -1.546875 3.347656 -1.59375 3.453125 -1.65625 C 3.566406 -1.71875 3.695312 -1.796875 3.84375 -1.890625 C 4.226562 -2.148438 4.488281 -2.328125 4.625 -2.421875 L 4.96875 -2.671875 C 5.207031 -2.835938 5.378906 -2.921875 5.484375 -2.921875 C 5.585938 -2.921875 5.671875 -2.898438 5.734375 -2.859375 C 5.796875 -2.816406 5.828125 -2.738281 5.828125 -2.625 C 5.828125 -2.519531 5.769531 -2.375 5.65625 -2.1875 C 5.550781 -2.007812 5.429688 -1.851562 5.296875 -1.71875 C 5.171875 -1.59375 5.046875 -1.472656 4.921875 -1.359375 C 4.804688 -1.242188 4.664062 -1.117188 4.5 -0.984375 C 4.332031 -0.859375 4.148438 -0.726562 3.953125 -0.59375 C 3.753906 -0.457031 3.539062 -0.332031 3.3125 -0.21875 C 2.800781 0.0195312 2.335938 0.140625 1.921875 0.140625 C 1.296875 0.140625 0.914062 -0.015625 0.78125 -0.328125 C 0.738281 -0.429688 0.71875 -0.539062 0.71875 -0.65625 C 0.71875 -0.78125 0.738281 -0.910156 0.78125 -1.046875 C 0.832031 -1.179688 0.894531 -1.316406 0.96875 -1.453125 C 1.113281 -1.722656 1.285156 -1.960938 1.484375 -2.171875 C 1.660156 -2.347656 1.75 -2.453125 1.75 -2.484375 C 1.75 -2.535156 1.71875 -2.566406 1.65625 -2.578125 C 1.59375 -2.597656 1.5 -2.609375 1.375 -2.609375 C 1.320312 -2.609375 1.210938 -2.535156 1.046875 -2.390625 L 0.640625 -2 C 0.191406 -1.601562 -0.0976562 -1.40625 -0.234375 -1.40625 Z M -0.234375 -1.40625 "/></g></g></g><g fill="#664242" fill-opacity="1"><g transform="translate(11.380052, 21.629013)"><g><path d="M 7.375 -3.1875 C 7.46875 -3.1875 7.515625 -3.113281 7.515625 -2.96875 C 7.515625 -2.695312 7.332031 -2.351562 6.96875 -1.9375 L 6.71875 -1.6875 C 5.988281 -0.957031 5.300781 -0.46875 4.65625 -0.21875 C 4.25 -0.0703125 3.957031 -0.0820312 3.78125 -0.25 C 3.632812 -0.382812 3.519531 -0.609375 3.4375 -0.921875 L 3.328125 -1.28125 L 2.4375 -0.734375 L 1.90625 -0.4375 C 1.28125 -0.09375 0.8125 0.078125 0.5 0.078125 C 0.101562 0.078125 -0.226562 -0.078125 -0.5 -0.390625 C -0.75 -0.679688 -0.875 -1.019531 -0.875 -1.40625 C -0.875 -1.78125 -0.722656 -2.117188 -0.421875 -2.421875 C 0.015625 -2.847656 0.695312 -3.238281 1.625 -3.59375 C 2.507812 -3.914062 3.226562 -4.078125 3.78125 -4.078125 C 3.957031 -4.078125 4.046875 -3.988281 4.046875 -3.8125 C 4.046875 -3.6875 4.019531 -3.59375 3.96875 -3.53125 C 3.925781 -3.46875 3.832031 -3.40625 3.6875 -3.34375 L 3.140625 -3.109375 C 2.347656 -2.773438 1.769531 -2.429688 1.40625 -2.078125 C 1.300781 -1.972656 1.25 -1.875 1.25 -1.78125 C 1.25 -1.695312 1.320312 -1.65625 1.46875 -1.65625 C 1.613281 -1.65625 1.957031 -1.8125 2.5 -2.125 L 2.84375 -2.328125 C 3.394531 -2.660156 3.851562 -2.828125 4.21875 -2.828125 C 4.53125 -2.828125 4.738281 -2.6875 4.84375 -2.40625 C 4.863281 -2.332031 4.882812 -2.257812 4.90625 -2.1875 C 4.9375 -2.113281 4.960938 -2.046875 4.984375 -1.984375 C 5.035156 -1.847656 5.082031 -1.78125 5.125 -1.78125 C 5.164062 -1.78125 5.222656 -1.800781 5.296875 -1.84375 C 5.367188 -1.882812 5.453125 -1.9375 5.546875 -2 C 5.640625 -2.0625 5.738281 -2.128906 5.84375 -2.203125 L 6.359375 -2.625 C 6.804688 -3 7.144531 -3.1875 7.375 -3.1875 Z M 7.375 -3.1875 "/></g></g></g><g fill="#664242" fill-opacity="1"><g transform="translate(20.038138, 21.629013)"><g><path d="M 1.484375 -1.0625 C 1.578125 -1.101562 1.707031 -1.164062 1.875 -1.25 C 2.894531 -1.769531 3.457031 -2.054688 3.5625 -2.109375 L 3.734375 -2.21875 C 3.921875 -2.332031 4.003906 -2.425781 3.984375 -2.5 C 3.953125 -2.644531 3.875 -2.703125 3.75 -2.671875 C 3.625 -2.640625 3.492188 -2.601562 3.359375 -2.5625 C 3.234375 -2.519531 3.09375 -2.460938 2.9375 -2.390625 C 2.625 -2.265625 2.347656 -2.132812 2.109375 -2 C 1.273438 -1.519531 0.773438 -1.234375 0.609375 -1.140625 C 0.484375 -0.859375 0.375 -0.582031 0.28125 -0.3125 L -0.234375 1.140625 C -0.390625 1.585938 -0.550781 1.890625 -0.71875 2.046875 C -0.8125 2.140625 -0.910156 2.1875 -1.015625 2.1875 C -1.285156 2.1875 -1.492188 2.09375 -1.640625 1.90625 C -1.796875 1.71875 -1.875 1.476562 -1.875 1.1875 C -1.875 0.90625 -1.835938 0.625 -1.765625 0.34375 C -1.691406 0.0703125 -1.585938 -0.203125 -1.453125 -0.484375 C -1.191406 -1.054688 -0.84375 -1.585938 -0.40625 -2.078125 C -0.132812 -2.804688 0.3125 -3.507812 0.9375 -4.1875 C 1.320312 -4.601562 1.679688 -4.894531 2.015625 -5.0625 C 2.171875 -5.144531 2.304688 -5.1875 2.421875 -5.1875 C 2.546875 -5.1875 2.632812 -5.160156 2.6875 -5.109375 C 2.75 -5.054688 2.78125 -4.988281 2.78125 -4.90625 C 2.78125 -4.832031 2.753906 -4.734375 2.703125 -4.609375 C 2.660156 -4.492188 2.597656 -4.363281 2.515625 -4.21875 C 2.429688 -4.070312 2.335938 -3.914062 2.234375 -3.75 L 1.875 -3.234375 C 1.84375 -3.191406 1.828125 -3.15625 1.828125 -3.125 C 1.828125 -3.0625 1.859375 -3.03125 1.921875 -3.03125 C 2.003906 -3.03125 2.144531 -3.078125 2.34375 -3.171875 L 3.015625 -3.5 C 3.609375 -3.757812 4.175781 -3.890625 4.71875 -3.890625 C 5.007812 -3.890625 5.28125 -3.757812 5.53125 -3.5 C 5.78125 -3.21875 5.90625 -2.925781 5.90625 -2.625 C 5.90625 -2.132812 5.707031 -1.757812 5.3125 -1.5 L 4.78125 -1.15625 C 4.59375 -1.039062 4.398438 -0.921875 4.203125 -0.796875 L 3.59375 -0.46875 C 2.894531 -0.113281 2.359375 0.0625 1.984375 0.0625 C 1.609375 0.0625 1.335938 0.015625 1.171875 -0.078125 C 1.003906 -0.171875 0.921875 -0.300781 0.921875 -0.46875 C 0.921875 -0.695312 1.109375 -0.894531 1.484375 -1.0625 Z M 1.484375 -1.0625 "/></g></g></g></svg>