<svg xmlns="http://www.w3.org/2000/svg" xmlns:xlink="http://www.w3.org/1999/xlink" width="126" zoomAndPan="magnify" viewBox="0 0 94.5 31.5" height="42" preserveAspectRatio="xMidYMid meet" version="1.0"><defs><g/></defs><g fill="#222222" fill-opacity="1"><g transform="translate(22.603916, 25.797891)"><g><path d="M 2.84375 -1.359375 C 2.84375 -1.078125 2.890625 -0.800781 2.984375 -0.53125 C 3.085938 -0.257812 3.296875 -0.0820312 3.609375 0 L 0.75 0 C 1.0625 -0.0820312 1.265625 -0.265625 1.359375 -0.546875 C 1.460938 -0.828125 1.515625 -1.113281 1.515625 -1.40625 L 1.515625 -9.375 C 1.515625 -9.65625 1.460938 -9.929688 1.359375 -10.203125 C 1.253906 -10.472656 1.050781 -10.644531 0.75 -10.71875 L 3.609375 -10.71875 C 3.296875 -10.625 3.085938 -10.445312 2.984375 -10.1875 C 2.890625 -9.925781 2.84375 -9.65625 2.84375 -9.375 L 2.84375 -4.375 C 4.414062 -4.375 5.539062 -4.773438 6.21875 -5.578125 C 6.90625 -6.378906 7.25 -7.535156 7.25 -9.046875 C 7.25 -9.804688 7.117188 -10.515625 6.859375 -11.171875 C 6.597656 -11.828125 6.226562 -12.394531 5.75 -12.875 C 5.28125 -13.351562 4.722656 -13.726562 4.078125 -14 C 3.441406 -14.269531 2.738281 -14.40625 1.96875 -14.40625 C 0.988281 -14.40625 0.101562 -14.222656 -0.6875 -13.859375 C -1.476562 -13.503906 -2.148438 -13.015625 -2.703125 -12.390625 C -3.265625 -11.773438 -3.695312 -11.050781 -4 -10.21875 C -4.300781 -9.394531 -4.453125 -8.507812 -4.453125 -7.5625 C -4.453125 -6.800781 -4.34375 -6.0625 -4.125 -5.34375 C -3.90625 -4.632812 -3.582031 -4.003906 -3.15625 -3.453125 C -2.726562 -2.910156 -2.203125 -2.472656 -1.578125 -2.140625 C -0.953125 -1.816406 -0.222656 -1.65625 0.609375 -1.65625 L 0.609375 -1.46875 C -0.296875 -1.46875 -1.109375 -1.644531 -1.828125 -2 C -2.554688 -2.351562 -3.175781 -2.828125 -3.6875 -3.421875 C -4.195312 -4.023438 -4.59375 -4.71875 -4.875 -5.5 C -5.15625 -6.28125 -5.296875 -7.097656 -5.296875 -7.953125 C -5.296875 -8.972656 -5.097656 -9.890625 -4.703125 -10.703125 C -4.304688 -11.523438 -3.773438 -12.222656 -3.109375 -12.796875 C -2.453125 -13.367188 -1.6875 -13.8125 -0.8125 -14.125 C 0.0625 -14.445312 0.988281 -14.609375 1.96875 -14.609375 C 2.78125 -14.609375 3.578125 -14.488281 4.359375 -14.25 C 5.148438 -14.019531 5.851562 -13.671875 6.46875 -13.203125 C 7.09375 -12.734375 7.59375 -12.15625 7.96875 -11.46875 C 8.351562 -10.789062 8.546875 -10 8.546875 -9.09375 C 8.546875 -8.1875 8.398438 -7.421875 8.109375 -6.796875 C 7.828125 -6.179688 7.429688 -5.679688 6.921875 -5.296875 C 6.421875 -4.910156 5.816406 -4.628906 5.109375 -4.453125 C 4.410156 -4.285156 3.65625 -4.203125 2.84375 -4.203125 Z M 2.84375 -1.359375 "/></g></g></g><g fill="#222222" fill-opacity="1"><g transform="translate(29.926229, 25.797891)"><g><path d="M 2.890625 -1.359375 C 2.890625 -1.066406 2.941406 -0.789062 3.046875 -0.53125 C 3.160156 -0.28125 3.363281 -0.101562 3.65625 0 L 0.765625 0 C 1.085938 -0.101562 1.296875 -0.28125 1.390625 -0.53125 C 1.492188 -0.789062 1.546875 -1.066406 1.546875 -1.359375 L 1.546875 -9.375 C 1.546875 -9.664062 1.492188 -9.9375 1.390625 -10.1875 C 1.296875 -10.4375 1.085938 -10.613281 0.765625 -10.71875 L 3.65625 -10.71875 C 3.34375 -10.613281 3.132812 -10.4375 3.03125 -10.1875 C 2.9375 -9.9375 2.890625 -9.664062 2.890625 -9.375 L 2.890625 -5.578125 L 7.9375 -5.578125 L 7.9375 -9.375 C 7.9375 -9.664062 7.882812 -9.9375 7.78125 -10.1875 C 7.675781 -10.4375 7.472656 -10.613281 7.171875 -10.71875 L 10.0625 -10.71875 C 9.738281 -10.613281 9.523438 -10.4375 9.421875 -10.1875 C 9.316406 -9.9375 9.265625 -9.664062 9.265625 -9.375 L 9.265625 -1.40625 C 9.265625 -1.113281 9.316406 -0.832031 9.421875 -0.5625 C 9.523438 -0.289062 9.738281 -0.101562 10.0625 0 L 7.171875 0 C 7.472656 -0.101562 7.675781 -0.289062 7.78125 -0.5625 C 7.882812 -0.832031 7.9375 -1.113281 7.9375 -1.40625 L 7.9375 -5.40625 L 2.890625 -5.40625 Z M 2.890625 -1.359375 "/></g></g></g><g fill="#222222" fill-opacity="1"><g transform="translate(38.756799, 25.797891)"><g><path d="M 11.578125 -5.359375 C 11.578125 -4.609375 11.4375 -3.90625 11.15625 -3.25 C 10.875 -2.59375 10.488281 -2.019531 10 -1.53125 C 9.507812 -1.050781 8.9375 -0.664062 8.28125 -0.375 C 7.625 -0.09375 6.925781 0.046875 6.1875 0.046875 C 5.445312 0.046875 4.75 -0.09375 4.09375 -0.375 C 3.4375 -0.664062 2.863281 -1.050781 2.375 -1.53125 C 1.882812 -2.019531 1.492188 -2.59375 1.203125 -3.25 C 0.921875 -3.90625 0.78125 -4.609375 0.78125 -5.359375 C 0.78125 -6.097656 0.921875 -6.796875 1.203125 -7.453125 C 1.492188 -8.109375 1.882812 -8.679688 2.375 -9.171875 C 2.863281 -9.660156 3.4375 -10.046875 4.09375 -10.328125 C 4.75 -10.609375 5.445312 -10.75 6.1875 -10.75 C 6.925781 -10.75 7.625 -10.609375 8.28125 -10.328125 C 8.9375 -10.046875 9.507812 -9.660156 10 -9.171875 C 10.488281 -8.679688 10.875 -8.109375 11.15625 -7.453125 C 11.4375 -6.796875 11.578125 -6.097656 11.578125 -5.359375 Z M 2.296875 -5.625 C 2.296875 -5.050781 2.390625 -4.4375 2.578125 -3.78125 C 2.765625 -3.132812 3.035156 -2.539062 3.390625 -2 C 3.753906 -1.457031 4.191406 -1.003906 4.703125 -0.640625 C 5.222656 -0.285156 5.8125 -0.109375 6.46875 -0.109375 C 7.082031 -0.109375 7.617188 -0.269531 8.078125 -0.59375 C 8.546875 -0.914062 8.929688 -1.320312 9.234375 -1.8125 C 9.546875 -2.3125 9.78125 -2.851562 9.9375 -3.4375 C 10.09375 -4.019531 10.171875 -4.570312 10.171875 -5.09375 C 10.171875 -5.6875 10.078125 -6.300781 9.890625 -6.9375 C 9.710938 -7.582031 9.441406 -8.175781 9.078125 -8.71875 C 8.710938 -9.257812 8.269531 -9.703125 7.75 -10.046875 C 7.226562 -10.398438 6.628906 -10.578125 5.953125 -10.578125 C 5.335938 -10.578125 4.800781 -10.414062 4.34375 -10.09375 C 3.894531 -9.78125 3.515625 -9.375 3.203125 -8.875 C 2.898438 -8.375 2.671875 -7.835938 2.515625 -7.265625 C 2.367188 -6.691406 2.296875 -6.144531 2.296875 -5.625 Z M 2.296875 -5.625 "/></g></g></g><g fill="#222222" fill-opacity="1"><g transform="translate(49.117486, 25.797891)"><g><path d="M 5.875 -1.40625 C 5.875 -1.113281 5.925781 -0.832031 6.03125 -0.5625 C 6.132812 -0.289062 6.347656 -0.101562 6.671875 0 L 3.765625 0 C 4.097656 -0.101562 4.3125 -0.285156 4.40625 -0.546875 C 4.5 -0.804688 4.546875 -1.09375 4.546875 -1.40625 L 4.5625 -10.46875 L 3.546875 -10.46875 C 2.960938 -10.46875 2.425781 -10.3125 1.9375 -10 C 1.445312 -9.695312 1.0625 -9.289062 0.78125 -8.78125 L 1.15625 -10.71875 L 9.265625 -10.71875 L 9.65625 -8.8125 C 9.382812 -9.289062 9 -9.6875 8.5 -10 C 8.007812 -10.3125 7.476562 -10.46875 6.90625 -10.46875 L 5.875 -10.46875 Z M 5.875 -1.40625 "/></g></g></g><g fill="#222222" fill-opacity="1"><g transform="translate(57.554595, 25.797891)"><g><path d="M 11.578125 -5.359375 C 11.578125 -4.609375 11.4375 -3.90625 11.15625 -3.25 C 10.875 -2.59375 10.488281 -2.019531 10 -1.53125 C 9.507812 -1.050781 8.9375 -0.664062 8.28125 -0.375 C 7.625 -0.09375 6.925781 0.046875 6.1875 0.046875 C 5.445312 0.046875 4.75 -0.09375 4.09375 -0.375 C 3.4375 -0.664062 2.863281 -1.050781 2.375 -1.53125 C 1.882812 -2.019531 1.492188 -2.59375 1.203125 -3.25 C 0.921875 -3.90625 0.78125 -4.609375 0.78125 -5.359375 C 0.78125 -6.097656 0.921875 -6.796875 1.203125 -7.453125 C 1.492188 -8.109375 1.882812 -8.679688 2.375 -9.171875 C 2.863281 -9.660156 3.4375 -10.046875 4.09375 -10.328125 C 4.75 -10.609375 5.445312 -10.75 6.1875 -10.75 C 6.925781 -10.75 7.625 -10.609375 8.28125 -10.328125 C 8.9375 -10.046875 9.507812 -9.660156 10 -9.171875 C 10.488281 -8.679688 10.875 -8.109375 11.15625 -7.453125 C 11.4375 -6.796875 11.578125 -6.097656 11.578125 -5.359375 Z M 2.296875 -5.625 C 2.296875 -5.050781 2.390625 -4.4375 2.578125 -3.78125 C 2.765625 -3.132812 3.035156 -2.539062 3.390625 -2 C 3.753906 -1.457031 4.191406 -1.003906 4.703125 -0.640625 C 5.222656 -0.285156 5.8125 -0.109375 6.46875 -0.109375 C 7.082031 -0.109375 7.617188 -0.269531 8.078125 -0.59375 C 8.546875 -0.914062 8.929688 -1.320312 9.234375 -1.8125 C 9.546875 -2.3125 9.78125 -2.851562 9.9375 -3.4375 C 10.09375 -4.019531 10.171875 -4.570312 10.171875 -5.09375 C 10.171875 -5.6875 10.078125 -6.300781 9.890625 -6.9375 C 9.710938 -7.582031 9.441406 -8.175781 9.078125 -8.71875 C 8.710938 -9.257812 8.269531 -9.703125 7.75 -10.046875 C 7.226562 -10.398438 6.628906 -10.578125 5.953125 -10.578125 C 5.335938 -10.578125 4.800781 -10.414062 4.34375 -10.09375 C 3.894531 -9.78125 3.515625 -9.375 3.203125 -8.875 C 2.898438 -8.375 2.671875 -7.835938 2.515625 -7.265625 C 2.367188 -6.691406 2.296875 -6.144531 2.296875 -5.625 Z M 2.296875 -5.625 "/></g></g></g><g fill="#222222" fill-opacity="1"><g transform="translate(14.272026, 13.932598)"><g><path d="M 0.171875 3.609375 C -0.0234375 3.753906 -0.234375 3.875 -0.453125 3.96875 C -0.671875 4.070312 -0.90625 4.15625 -1.15625 4.21875 L -1.15625 4.109375 C -0.59375 3.929688 -0.140625 3.628906 0.203125 3.203125 C 0.546875 2.773438 0.804688 2.296875 0.984375 1.765625 C 1.171875 1.234375 1.289062 0.671875 1.34375 0.078125 C 1.40625 -0.515625 1.4375 -1.054688 1.4375 -1.546875 L 1.4375 -9 C 1.4375 -9.164062 1.429688 -9.332031 1.421875 -9.5 C 1.410156 -9.675781 1.378906 -9.84375 1.328125 -10 C 1.273438 -10.164062 1.191406 -10.3125 1.078125 -10.4375 C 0.972656 -10.5625 0.828125 -10.65625 0.640625 -10.71875 L 3.5625 -10.71875 C 3.375 -10.65625 3.222656 -10.5625 3.109375 -10.4375 C 3.003906 -10.3125 2.925781 -10.164062 2.875 -10 C 2.820312 -9.84375 2.789062 -9.675781 2.78125 -9.5 C 2.78125 -9.332031 2.78125 -9.164062 2.78125 -9 L 2.78125 -1.546875 C 2.78125 -0.503906 2.570312 0.460938 2.15625 1.359375 C 1.738281 2.253906 1.078125 3.003906 0.171875 3.609375 Z M 0.171875 3.609375 "/></g></g></g><g fill="#222222" fill-opacity="1"><g transform="translate(16.479377, 13.932598)"><g><path d="M 8.890625 -3.65625 C 8.890625 -2.46875 8.613281 -1.539062 8.0625 -0.875 C 7.507812 -0.21875 6.613281 0.109375 5.375 0.109375 C 4.125 0.109375 3.171875 -0.21875 2.515625 -0.875 C 1.867188 -1.53125 1.546875 -2.492188 1.546875 -3.765625 L 1.546875 -9.375 C 1.546875 -9.664062 1.492188 -9.9375 1.390625 -10.1875 C 1.296875 -10.445312 1.085938 -10.625 0.765625 -10.71875 L 3.65625 -10.71875 C 3.34375 -10.625 3.132812 -10.445312 3.03125 -10.1875 C 2.9375 -9.9375 2.890625 -9.664062 2.890625 -9.375 L 2.890625 -3.890625 C 2.890625 -3.421875 2.941406 -2.972656 3.046875 -2.546875 C 3.160156 -2.117188 3.335938 -1.738281 3.578125 -1.40625 C 3.816406 -1.082031 4.117188 -0.820312 4.484375 -0.625 C 4.859375 -0.425781 5.3125 -0.328125 5.84375 -0.328125 C 6.34375 -0.328125 6.773438 -0.414062 7.140625 -0.59375 C 7.503906 -0.769531 7.800781 -1.003906 8.03125 -1.296875 C 8.269531 -1.597656 8.441406 -1.953125 8.546875 -2.359375 C 8.660156 -2.765625 8.71875 -3.203125 8.71875 -3.671875 L 8.71875 -9.109375 C 8.71875 -9.929688 8.316406 -10.46875 7.515625 -10.71875 L 10.078125 -10.71875 C 9.285156 -10.46875 8.890625 -9.929688 8.890625 -9.109375 Z M 8.890625 -3.65625 "/></g></g></g><g fill="#222222" fill-opacity="1"><g transform="translate(25.222514, 13.932598)"><g><path d="M 5.21875 -0.171875 C 5.945312 -0.171875 6.554688 -0.359375 7.046875 -0.734375 C 7.546875 -1.109375 7.976562 -1.59375 8.34375 -2.1875 L 7.875 0 L 0.765625 0 C 1.085938 -0.101562 1.296875 -0.289062 1.390625 -0.5625 C 1.492188 -0.832031 1.546875 -1.113281 1.546875 -1.40625 L 1.546875 -9.375 C 1.546875 -9.664062 1.492188 -9.9375 1.390625 -10.1875 C 1.296875 -10.4375 1.085938 -10.613281 0.765625 -10.71875 L 3.65625 -10.71875 C 3.34375 -10.613281 3.132812 -10.4375 3.03125 -10.1875 C 2.9375 -9.9375 2.890625 -9.664062 2.890625 -9.375 L 2.890625 -0.171875 Z M 5.21875 -0.171875 "/></g></g></g><g fill="#222222" fill-opacity="1"><g transform="translate(32.348099, 13.932598)"><g><path d="M 2.890625 -1.40625 C 2.890625 -1.113281 2.9375 -0.832031 3.03125 -0.5625 C 3.132812 -0.289062 3.34375 -0.101562 3.65625 0 L 0.765625 0 C 1.085938 -0.101562 1.296875 -0.285156 1.390625 -0.546875 C 1.492188 -0.804688 1.546875 -1.09375 1.546875 -1.40625 L 1.546875 -9.375 C 1.546875 -9.664062 1.492188 -9.9375 1.390625 -10.1875 C 1.296875 -10.4375 1.085938 -10.613281 0.765625 -10.71875 L 3.65625 -10.71875 C 3.34375 -10.613281 3.132812 -10.4375 3.03125 -10.1875 C 2.9375 -9.9375 2.890625 -9.664062 2.890625 -9.375 Z M 2.890625 -1.40625 "/></g></g></g><g fill="#222222" fill-opacity="1"><g transform="translate(34.774038, 13.932598)"><g><path d="M 2.265625 -1 C 2.265625 -0.726562 2.34375 -0.507812 2.5 -0.34375 C 2.664062 -0.1875 2.875 -0.0703125 3.125 0 L 0.78125 0 C 1.050781 -0.0820312 1.300781 -0.238281 1.53125 -0.46875 C 1.757812 -0.707031 1.925781 -0.96875 2.03125 -1.25 L 5.75 -10.84375 L 9.484375 -1.25 C 9.597656 -0.988281 9.742188 -0.734375 9.921875 -0.484375 C 10.109375 -0.242188 10.34375 -0.0820312 10.625 0 L 7.46875 0 C 7.664062 -0.0625 7.820312 -0.1875 7.9375 -0.375 C 8.0625 -0.570312 8.125 -0.757812 8.125 -0.9375 C 8.125 -1.050781 8.070312 -1.253906 7.96875 -1.546875 C 7.875 -1.835938 7.757812 -2.148438 7.625 -2.484375 C 7.5 -2.828125 7.375 -3.148438 7.25 -3.453125 C 7.125 -3.753906 7.03125 -3.976562 6.96875 -4.125 L 3.359375 -4.125 C 3.304688 -3.976562 3.21875 -3.765625 3.09375 -3.484375 C 2.976562 -3.203125 2.859375 -2.90625 2.734375 -2.59375 C 2.617188 -2.28125 2.507812 -1.976562 2.40625 -1.6875 C 2.3125 -1.394531 2.265625 -1.164062 2.265625 -1 Z M 3.40625 -4.3125 L 6.890625 -4.3125 L 5.15625 -8.8125 Z M 3.40625 -4.3125 "/></g></g></g><g fill="#222222" fill-opacity="1"><g transform="translate(44.194796, 13.932598)"><g/></g></g><g fill="#222222" fill-opacity="1"><g transform="translate(47.538807, 13.932598)"><g><path d="M 15.9375 1.96875 C 15.382812 2.34375 14.828125 2.617188 14.265625 2.796875 C 13.710938 2.972656 13.097656 3.0625 12.421875 3.0625 C 11.628906 3.0625 10.96875 2.878906 10.4375 2.515625 C 9.90625 2.160156 9.441406 1.710938 9.046875 1.171875 C 8.648438 0.640625 8.300781 0.0546875 8 -0.578125 C 7.695312 -1.210938 7.367188 -1.796875 7.015625 -2.328125 C 6.671875 -2.867188 6.269531 -3.316406 5.8125 -3.671875 C 5.363281 -4.035156 4.8125 -4.21875 4.15625 -4.21875 L 2.890625 -4.21875 L 2.890625 -1.359375 C 2.890625 -1.066406 2.945312 -0.785156 3.0625 -0.515625 C 3.175781 -0.253906 3.382812 -0.0820312 3.6875 0 L 0.765625 0 C 1.085938 -0.0703125 1.296875 -0.25 1.390625 -0.53125 C 1.492188 -0.820312 1.546875 -1.113281 1.546875 -1.40625 L 1.546875 -9.40625 C 1.546875 -9.695312 1.488281 -9.96875 1.375 -10.21875 C 1.269531 -10.476562 1.066406 -10.644531 0.765625 -10.71875 L 4.484375 -10.71875 C 5.003906 -10.71875 5.515625 -10.65625 6.015625 -10.53125 C 6.523438 -10.414062 6.972656 -10.226562 7.359375 -9.96875 C 7.753906 -9.71875 8.070312 -9.382812 8.3125 -8.96875 C 8.550781 -8.550781 8.671875 -8.046875 8.671875 -7.453125 C 8.671875 -6.953125 8.566406 -6.503906 8.359375 -6.109375 C 8.148438 -5.722656 7.875 -5.394531 7.53125 -5.125 C 7.195312 -4.851562 6.8125 -4.640625 6.375 -4.484375 C 5.945312 -4.335938 5.5 -4.253906 5.03125 -4.234375 C 5.550781 -4.117188 6.019531 -3.867188 6.4375 -3.484375 C 6.863281 -3.109375 7.273438 -2.671875 7.671875 -2.171875 C 8.078125 -1.671875 8.472656 -1.144531 8.859375 -0.59375 C 9.242188 -0.0507812 9.660156 0.445312 10.109375 0.90625 C 10.554688 1.363281 11.046875 1.738281 11.578125 2.03125 C 12.109375 2.332031 12.703125 2.484375 13.359375 2.484375 C 13.835938 2.484375 14.269531 2.429688 14.65625 2.328125 C 15.039062 2.222656 15.4375 2.046875 15.84375 1.796875 Z M 2.890625 -4.375 L 4.34375 -4.375 C 5.28125 -4.375 6.007812 -4.65625 6.53125 -5.21875 C 7.0625 -5.789062 7.328125 -6.535156 7.328125 -7.453125 C 7.328125 -8.410156 7.070312 -9.160156 6.5625 -9.703125 C 6.0625 -10.242188 5.320312 -10.515625 4.34375 -10.515625 L 2.890625 -10.515625 Z M 2.890625 -4.375 "/></g></g></g><g fill="#222222" fill-opacity="1"><g transform="translate(54.926694, 13.932598)"><g><path d="M 11.578125 -5.359375 C 11.578125 -4.609375 11.4375 -3.90625 11.15625 -3.25 C 10.875 -2.59375 10.488281 -2.019531 10 -1.53125 C 9.507812 -1.050781 8.9375 -0.664062 8.28125 -0.375 C 7.625 -0.09375 6.925781 0.046875 6.1875 0.046875 C 5.445312 0.046875 4.75 -0.09375 4.09375 -0.375 C 3.4375 -0.664062 2.863281 -1.050781 2.375 -1.53125 C 1.882812 -2.019531 1.492188 -2.59375 1.203125 -3.25 C 0.921875 -3.90625 0.78125 -4.609375 0.78125 -5.359375 C 0.78125 -6.097656 0.921875 -6.796875 1.203125 -7.453125 C 1.492188 -8.109375 1.882812 -8.679688 2.375 -9.171875 C 2.863281 -9.660156 3.4375 -10.046875 4.09375 -10.328125 C 4.75 -10.609375 5.445312 -10.75 6.1875 -10.75 C 6.925781 -10.75 7.625 -10.609375 8.28125 -10.328125 C 8.9375 -10.046875 9.507812 -9.660156 10 -9.171875 C 10.488281 -8.679688 10.875 -8.109375 11.15625 -7.453125 C 11.4375 -6.796875 11.578125 -6.097656 11.578125 -5.359375 Z M 2.296875 -5.625 C 2.296875 -5.050781 2.390625 -4.4375 2.578125 -3.78125 C 2.765625 -3.132812 3.035156 -2.539062 3.390625 -2 C 3.753906 -1.457031 4.191406 -1.003906 4.703125 -0.640625 C 5.222656 -0.285156 5.8125 -0.109375 6.46875 -0.109375 C 7.082031 -0.109375 7.617188 -0.269531 8.078125 -0.59375 C 8.546875 -0.914062 8.929688 -1.320312 9.234375 -1.8125 C 9.546875 -2.3125 9.78125 -2.851562 9.9375 -3.4375 C 10.09375 -4.019531 10.171875 -4.570312 10.171875 -5.09375 C 10.171875 -5.6875 10.078125 -6.300781 9.890625 -6.9375 C 9.710938 -7.582031 9.441406 -8.175781 9.078125 -8.71875 C 8.710938 -9.257812 8.269531 -9.703125 7.75 -10.046875 C 7.226562 -10.398438 6.628906 -10.578125 5.953125 -10.578125 C 5.335938 -10.578125 4.800781 -10.414062 4.34375 -10.09375 C 3.894531 -9.78125 3.515625 -9.375 3.203125 -8.875 C 2.898438 -8.375 2.671875 -7.835938 2.515625 -7.265625 C 2.367188 -6.691406 2.296875 -6.144531 2.296875 -5.625 Z M 2.296875 -5.625 "/></g></g></g><g fill="#222222" fill-opacity="1"><g transform="translate(65.287378, 13.932598)"><g><path d="M 8.09375 -2.671875 C 8.09375 -2.171875 7.984375 -1.742188 7.765625 -1.390625 C 7.554688 -1.035156 7.285156 -0.742188 6.953125 -0.515625 C 6.617188 -0.285156 6.238281 -0.117188 5.8125 -0.015625 C 5.394531 0.078125 4.96875 0.125 4.53125 0.125 C 4.25 0.125 3.976562 0.0859375 3.71875 0.015625 C 3.457031 -0.0546875 3.203125 -0.128906 2.953125 -0.203125 C 2.710938 -0.285156 2.476562 -0.363281 2.25 -0.4375 C 2.019531 -0.507812 1.785156 -0.546875 1.546875 -0.546875 C 1.390625 -0.546875 1.238281 -0.5 1.09375 -0.40625 C 0.945312 -0.320312 0.832031 -0.21875 0.75 -0.09375 L 0.75 -3.390625 C 0.875 -3.003906 1.054688 -2.613281 1.296875 -2.21875 C 1.535156 -1.832031 1.816406 -1.484375 2.140625 -1.171875 C 2.472656 -0.859375 2.835938 -0.597656 3.234375 -0.390625 C 3.640625 -0.191406 4.0625 -0.09375 4.5 -0.09375 C 4.8125 -0.09375 5.125 -0.125 5.4375 -0.1875 C 5.757812 -0.25 6.046875 -0.359375 6.296875 -0.515625 C 6.554688 -0.671875 6.769531 -0.875 6.9375 -1.125 C 7.101562 -1.382812 7.1875 -1.695312 7.1875 -2.0625 C 7.1875 -2.507812 7.035156 -2.878906 6.734375 -3.171875 C 6.429688 -3.472656 6.046875 -3.75 5.578125 -4 C 5.117188 -4.25 4.617188 -4.484375 4.078125 -4.703125 C 3.546875 -4.929688 3.050781 -5.195312 2.59375 -5.5 C 2.132812 -5.800781 1.75 -6.15625 1.4375 -6.5625 C 1.132812 -6.976562 0.984375 -7.492188 0.984375 -8.109375 C 0.984375 -8.578125 1.070312 -8.984375 1.25 -9.328125 C 1.4375 -9.679688 1.675781 -9.976562 1.96875 -10.21875 C 2.269531 -10.457031 2.617188 -10.632812 3.015625 -10.75 C 3.410156 -10.875 3.828125 -10.9375 4.265625 -10.9375 C 4.554688 -10.9375 4.832031 -10.894531 5.09375 -10.8125 C 5.351562 -10.726562 5.597656 -10.640625 5.828125 -10.546875 C 6.054688 -10.453125 6.265625 -10.363281 6.453125 -10.28125 C 6.640625 -10.207031 6.796875 -10.171875 6.921875 -10.171875 C 7.128906 -10.171875 7.289062 -10.226562 7.40625 -10.34375 C 7.519531 -10.46875 7.609375 -10.613281 7.671875 -10.78125 C 7.660156 -10.320312 7.628906 -9.867188 7.578125 -9.421875 C 7.535156 -8.984375 7.515625 -8.539062 7.515625 -8.09375 C 7.410156 -8.4375 7.25 -8.769531 7.03125 -9.09375 C 6.8125 -9.414062 6.554688 -9.695312 6.265625 -9.9375 C 5.984375 -10.1875 5.664062 -10.390625 5.3125 -10.546875 C 4.957031 -10.703125 4.59375 -10.78125 4.21875 -10.78125 C 3.925781 -10.78125 3.632812 -10.738281 3.34375 -10.65625 C 3.0625 -10.570312 2.8125 -10.453125 2.59375 -10.296875 C 2.375 -10.148438 2.195312 -9.957031 2.0625 -9.71875 C 1.925781 -9.476562 1.859375 -9.195312 1.859375 -8.875 C 1.859375 -8.40625 2.007812 -8.015625 2.3125 -7.703125 C 2.625 -7.390625 3.007812 -7.101562 3.46875 -6.84375 C 3.9375 -6.582031 4.4375 -6.332031 4.96875 -6.09375 C 5.5 -5.863281 6 -5.59375 6.46875 -5.28125 C 6.9375 -4.976562 7.320312 -4.617188 7.625 -4.203125 C 7.9375 -3.785156 8.09375 -3.273438 8.09375 -2.671875 Z M 8.09375 -2.671875 "/></g></g></g><g fill="#222222" fill-opacity="1"><g transform="translate(71.997642, 13.932598)"><g><path d="M 4.96875 -0.171875 C 5.644531 -0.171875 6.3125 -0.332031 6.96875 -0.65625 C 7.625 -0.976562 8.117188 -1.453125 8.453125 -2.078125 L 7.953125 0 L 0.765625 0 C 1.085938 -0.101562 1.296875 -0.289062 1.390625 -0.5625 C 1.492188 -0.832031 1.546875 -1.113281 1.546875 -1.40625 L 1.546875 -9.375 C 1.546875 -9.664062 1.492188 -9.9375 1.390625 -10.1875 C 1.296875 -10.445312 1.085938 -10.625 0.765625 -10.71875 L 7.796875 -10.71875 L 8.234375 -8.65625 C 7.898438 -9.300781 7.453125 -9.773438 6.890625 -10.078125 C 6.335938 -10.378906 5.703125 -10.53125 4.984375 -10.53125 L 2.890625 -10.53125 L 2.890625 -5.53125 L 4.234375 -5.53125 C 4.628906 -5.53125 4.992188 -5.613281 5.328125 -5.78125 C 5.671875 -5.945312 5.898438 -6.242188 6.015625 -6.671875 L 6.015625 -4.265625 C 5.898438 -4.679688 5.671875 -4.96875 5.328125 -5.125 C 4.992188 -5.28125 4.628906 -5.359375 4.234375 -5.359375 L 2.890625 -5.359375 L 2.890625 -0.171875 Z M 4.96875 -0.171875 "/></g></g></g><g fill="#222222" fill-opacity="1"><g transform="translate(59.836879, 28.815421)"><g><path d="M 1.5 -0.265625 L 1.5 0 L 0.234375 0 L 0.234375 -1.6875 L 1.46875 -1.6875 L 1.46875 -1.4375 L 0.546875 -1.4375 L 0.546875 -0.984375 L 1.359375 -0.984375 L 1.359375 -0.734375 L 0.546875 -0.734375 L 0.546875 -0.265625 Z M 1.5 -0.265625 "/></g></g></g><g fill="#222222" fill-opacity="1"><g transform="translate(61.272511, 28.815421)"><g><path d="M 0.75 0.03125 C 0.625 0.03125 0.5 0.0078125 0.375 -0.03125 C 0.25 -0.0703125 0.148438 -0.117188 0.078125 -0.171875 L 0.1875 -0.421875 C 0.257812 -0.367188 0.34375 -0.320312 0.4375 -0.28125 C 0.539062 -0.25 0.644531 -0.234375 0.75 -0.234375 C 0.875 -0.234375 0.96875 -0.253906 1.03125 -0.296875 C 1.09375 -0.335938 1.125 -0.390625 1.125 -0.453125 C 1.125 -0.503906 1.109375 -0.546875 1.078125 -0.578125 C 1.046875 -0.609375 1 -0.628906 0.9375 -0.640625 C 0.882812 -0.660156 0.8125 -0.6875 0.71875 -0.71875 C 0.59375 -0.75 0.488281 -0.773438 0.40625 -0.796875 C 0.332031 -0.828125 0.265625 -0.875 0.203125 -0.9375 C 0.148438 -1.007812 0.125 -1.101562 0.125 -1.21875 C 0.125 -1.3125 0.148438 -1.394531 0.203125 -1.46875 C 0.253906 -1.539062 0.328125 -1.597656 0.421875 -1.640625 C 0.523438 -1.691406 0.648438 -1.71875 0.796875 -1.71875 C 0.898438 -1.71875 1.003906 -1.703125 1.109375 -1.671875 C 1.210938 -1.648438 1.300781 -1.613281 1.375 -1.5625 L 1.265625 -1.328125 C 1.191406 -1.367188 1.113281 -1.398438 1.03125 -1.421875 C 0.957031 -1.441406 0.878906 -1.453125 0.796875 -1.453125 C 0.671875 -1.453125 0.578125 -1.429688 0.515625 -1.390625 C 0.460938 -1.347656 0.4375 -1.296875 0.4375 -1.234375 C 0.4375 -1.179688 0.453125 -1.140625 0.484375 -1.109375 C 0.515625 -1.078125 0.554688 -1.050781 0.609375 -1.03125 C 0.671875 -1.019531 0.742188 -1 0.828125 -0.96875 C 0.960938 -0.945312 1.066406 -0.921875 1.140625 -0.890625 C 1.222656 -0.859375 1.289062 -0.804688 1.34375 -0.734375 C 1.40625 -0.671875 1.4375 -0.585938 1.4375 -0.484375 C 1.4375 -0.390625 1.410156 -0.300781 1.359375 -0.21875 C 1.304688 -0.144531 1.226562 -0.0820312 1.125 -0.03125 C 1.019531 0.0078125 0.894531 0.03125 0.75 0.03125 Z M 0.75 0.03125 "/></g></g></g><g fill="#222222" fill-opacity="1"><g transform="translate(62.6092, 28.815421)"><g><path d="M 0.578125 -1.421875 L 0.015625 -1.421875 L 0.015625 -1.6875 L 1.453125 -1.6875 L 1.453125 -1.421875 L 0.890625 -1.421875 L 0.890625 0 L 0.578125 0 Z M 0.578125 -1.421875 "/></g></g></g><g fill="#222222" fill-opacity="1"><g transform="translate(63.880733, 28.815421)"><g><path d="M 0.296875 0.015625 C 0.242188 0.015625 0.195312 0 0.15625 -0.03125 C 0.113281 -0.0703125 0.09375 -0.125 0.09375 -0.1875 C 0.09375 -0.25 0.109375 -0.296875 0.140625 -0.328125 C 0.179688 -0.367188 0.234375 -0.390625 0.296875 -0.390625 C 0.347656 -0.390625 0.394531 -0.367188 0.4375 -0.328125 C 0.476562 -0.296875 0.5 -0.25 0.5 -0.1875 C 0.5 -0.125 0.476562 -0.0703125 0.4375 -0.03125 C 0.394531 0 0.347656 0.015625 0.296875 0.015625 Z M 0.296875 0.015625 "/></g></g></g><g fill="#222222" fill-opacity="1"><g transform="translate(64.288348, 28.815421)"><g/></g></g><g fill="#222222" fill-opacity="1"><g transform="translate(64.773181, 28.815421)"><g><path d="M 1.328125 -0.265625 L 1.328125 0 L 0.078125 0 L 0.078125 -0.203125 L 0.765625 -0.84375 C 0.835938 -0.914062 0.882812 -0.976562 0.90625 -1.03125 C 0.9375 -1.09375 0.953125 -1.148438 0.953125 -1.203125 C 0.953125 -1.273438 0.925781 -1.332031 0.875 -1.375 C 0.820312 -1.425781 0.742188 -1.453125 0.640625 -1.453125 C 0.460938 -1.453125 0.328125 -1.390625 0.234375 -1.265625 L 0.015625 -1.4375 C 0.0859375 -1.53125 0.175781 -1.597656 0.28125 -1.640625 C 0.394531 -1.691406 0.519531 -1.71875 0.65625 -1.71875 C 0.84375 -1.71875 0.988281 -1.671875 1.09375 -1.578125 C 1.207031 -1.492188 1.265625 -1.378906 1.265625 -1.234375 C 1.265625 -1.140625 1.242188 -1.050781 1.203125 -0.96875 C 1.171875 -0.894531 1.097656 -0.804688 0.984375 -0.703125 L 0.53125 -0.265625 Z M 1.328125 -0.265625 "/></g></g></g><g fill="#222222" fill-opacity="1"><g transform="translate(65.996452, 28.815421)"><g><path d="M 0.8125 0.03125 C 0.675781 0.03125 0.554688 -0.00390625 0.453125 -0.078125 C 0.347656 -0.148438 0.265625 -0.25 0.203125 -0.375 C 0.140625 -0.507812 0.109375 -0.664062 0.109375 -0.84375 C 0.109375 -1.03125 0.140625 -1.1875 0.203125 -1.3125 C 0.265625 -1.445312 0.347656 -1.546875 0.453125 -1.609375 C 0.554688 -1.679688 0.675781 -1.71875 0.8125 -1.71875 C 0.945312 -1.71875 1.066406 -1.679688 1.171875 -1.609375 C 1.285156 -1.546875 1.367188 -1.445312 1.421875 -1.3125 C 1.484375 -1.1875 1.515625 -1.03125 1.515625 -0.84375 C 1.515625 -0.664062 1.484375 -0.507812 1.421875 -0.375 C 1.367188 -0.25 1.285156 -0.148438 1.171875 -0.078125 C 1.066406 -0.00390625 0.945312 0.03125 0.8125 0.03125 Z M 0.8125 -0.25 C 0.9375 -0.25 1.03125 -0.296875 1.09375 -0.390625 C 1.164062 -0.492188 1.203125 -0.644531 1.203125 -0.84375 C 1.203125 -1.039062 1.164062 -1.191406 1.09375 -1.296875 C 1.03125 -1.398438 0.9375 -1.453125 0.8125 -1.453125 C 0.695312 -1.453125 0.601562 -1.398438 0.53125 -1.296875 C 0.457031 -1.191406 0.421875 -1.039062 0.421875 -0.84375 C 0.421875 -0.644531 0.457031 -0.492188 0.53125 -0.390625 C 0.601562 -0.296875 0.695312 -0.25 0.8125 -0.25 Z M 0.8125 -0.25 "/></g></g></g><g fill="#222222" fill-opacity="1"><g transform="translate(67.439321, 28.815421)"><g><path d="M 1.328125 -0.265625 L 1.328125 0 L 0.078125 0 L 0.078125 -0.203125 L 0.765625 -0.84375 C 0.835938 -0.914062 0.882812 -0.976562 0.90625 -1.03125 C 0.9375 -1.09375 0.953125 -1.148438 0.953125 -1.203125 C 0.953125 -1.273438 0.925781 -1.332031 0.875 -1.375 C 0.820312 -1.425781 0.742188 -1.453125 0.640625 -1.453125 C 0.460938 -1.453125 0.328125 -1.390625 0.234375 -1.265625 L 0.015625 -1.4375 C 0.0859375 -1.53125 0.175781 -1.597656 0.28125 -1.640625 C 0.394531 -1.691406 0.519531 -1.71875 0.65625 -1.71875 C 0.84375 -1.71875 0.988281 -1.671875 1.09375 -1.578125 C 1.207031 -1.492188 1.265625 -1.378906 1.265625 -1.234375 C 1.265625 -1.140625 1.242188 -1.050781 1.203125 -0.96875 C 1.171875 -0.894531 1.097656 -0.804688 0.984375 -0.703125 L 0.53125 -0.265625 Z M 1.328125 -0.265625 "/></g></g></g><g fill="#222222" fill-opacity="1"><g transform="translate(68.662591, 28.815421)"><g><path d="M 0.640625 -1.03125 C 0.878906 -1.03125 1.054688 -0.984375 1.171875 -0.890625 C 1.285156 -0.804688 1.34375 -0.679688 1.34375 -0.515625 C 1.34375 -0.421875 1.316406 -0.332031 1.265625 -0.25 C 1.210938 -0.164062 1.132812 -0.0976562 1.03125 -0.046875 C 0.9375 0.00390625 0.816406 0.03125 0.671875 0.03125 C 0.546875 0.03125 0.425781 0.015625 0.3125 -0.015625 C 0.195312 -0.0546875 0.101562 -0.109375 0.03125 -0.171875 L 0.171875 -0.421875 C 0.234375 -0.367188 0.304688 -0.328125 0.390625 -0.296875 C 0.472656 -0.265625 0.5625 -0.25 0.65625 -0.25 C 0.769531 -0.25 0.859375 -0.269531 0.921875 -0.3125 C 0.984375 -0.363281 1.015625 -0.429688 1.015625 -0.515625 C 1.015625 -0.597656 0.976562 -0.660156 0.90625 -0.703125 C 0.84375 -0.742188 0.726562 -0.765625 0.5625 -0.765625 L 0.15625 -0.765625 L 0.25 -1.6875 L 1.234375 -1.6875 L 1.234375 -1.4375 L 0.515625 -1.4375 L 0.46875 -1.03125 Z M 0.640625 -1.03125 "/></g></g></g></svg>