<svg xmlns="http://www.w3.org/2000/svg" xmlns:xlink="http://www.w3.org/1999/xlink" width="500" zoomAndPan="magnify" viewBox="0 0 375 30.000001" height="40" preserveAspectRatio="xMidYMid meet" version="1.0"><defs><g/><clipPath id="9a69d29583"><path d="M 6.046875 4 L 368 4 L 368 28 L 6.046875 28 Z M 6.046875 4 " clip-rule="nonzero"/></clipPath></defs><g clip-path="url(#9a69d29583)"><g fill="#000000" fill-opacity="1"><g transform="translate(6.048381, 20.9059)"><g><path d="M 1.296875 -8.65625 C 0.859375 -8.65625 0.640625 -8.867188 0.640625 -9.296875 C 0.640625 -9.484375 0.738281 -9.828125 0.9375 -10.328125 C 1.132812 -10.835938 1.304688 -11.234375 1.453125 -11.515625 C 1.773438 -12.171875 2.109375 -12.625 2.453125 -12.875 C 3.003906 -13.28125 5.144531 -13.644531 8.875 -13.96875 C 10.5 -14.113281 11.679688 -14.1875 12.421875 -14.1875 C 13.160156 -14.1875 13.6875 -14.175781 14 -14.15625 C 14.3125 -14.132812 14.632812 -14.097656 14.96875 -14.046875 C 15.3125 -13.992188 15.648438 -13.925781 15.984375 -13.84375 C 16.316406 -13.769531 16.632812 -13.675781 16.9375 -13.5625 C 17.582031 -13.300781 18.035156 -12.984375 18.296875 -12.609375 C 19.117188 -11.421875 19.53125 -10.457031 19.53125 -9.71875 C 19.53125 -8.875 18.890625 -8.050781 17.609375 -7.25 C 17.222656 -7.007812 16.8125 -6.765625 16.375 -6.515625 C 14.78125 -5.648438 13.847656 -5.140625 13.578125 -4.984375 C 14.148438 -3.867188 15.273438 -2.710938 16.953125 -1.515625 C 17.148438 -1.378906 17.304688 -1.28125 17.421875 -1.21875 C 17.941406 -0.914062 18.550781 -0.960938 19.25 -1.359375 C 19.4375 -1.472656 19.628906 -1.53125 19.828125 -1.53125 C 20.023438 -1.53125 20.195312 -1.457031 20.34375 -1.3125 C 20.5 -1.164062 20.578125 -1.003906 20.578125 -0.828125 C 20.578125 -0.00390625 20.035156 0.875 18.953125 1.8125 C 18.140625 2.507812 17.410156 2.859375 16.765625 2.859375 C 16.234375 2.859375 15.082031 2.082031 13.3125 0.53125 C 12.3125 -0.34375 11.5 -1.125 10.875 -1.8125 C 10.257812 -2.507812 9.832031 -3.023438 9.59375 -3.359375 C 9.363281 -3.703125 9.25 -3.992188 9.25 -4.234375 C 9.25 -4.484375 9.304688 -4.703125 9.421875 -4.890625 C 9.546875 -5.085938 9.710938 -5.273438 9.921875 -5.453125 C 10.242188 -5.734375 10.703125 -6.023438 11.296875 -6.328125 C 11.890625 -6.640625 12.375 -6.9375 12.75 -7.21875 C 13.125 -7.5 13.453125 -7.789062 13.734375 -8.09375 C 14.335938 -8.726562 14.640625 -9.304688 14.640625 -9.828125 C 14.640625 -10.160156 14.535156 -10.441406 14.328125 -10.671875 C 13.953125 -11.078125 13.601562 -11.28125 13.28125 -11.28125 C 12.71875 -11.28125 12.039062 -11.238281 11.25 -11.15625 L 9.984375 -8.9375 C 8.390625 -6.039062 7.300781 -3.429688 6.71875 -1.109375 C 6.488281 -0.203125 5.609375 0.25 4.078125 0.25 C 2.816406 0.25 2.015625 -0.046875 1.671875 -0.640625 C 1.546875 -0.835938 1.5 -1.03125 1.53125 -1.21875 C 1.5625 -1.40625 1.648438 -1.648438 1.796875 -1.953125 C 1.953125 -2.265625 2.160156 -2.648438 2.421875 -3.109375 L 3.34375 -4.671875 L 4.453125 -6.5 L 5.71875 -8.484375 L 7.046875 -10.46875 C 4.648438 -9.945312 2.90625 -9.390625 1.8125 -8.796875 C 1.644531 -8.703125 1.472656 -8.65625 1.296875 -8.65625 Z M 1.296875 -8.65625 "/></g></g><g transform="translate(26.994253, 20.9059)"><g><path d="M 8.921875 -11.890625 C 8.722656 -11.722656 8.507812 -11.582031 8.28125 -11.46875 C 8.050781 -11.363281 7.789062 -11.3125 7.5 -11.3125 C 7.21875 -11.3125 6.941406 -11.359375 6.671875 -11.453125 C 6.398438 -11.554688 6.164062 -11.691406 5.96875 -11.859375 C 5.539062 -12.234375 5.328125 -12.707031 5.328125 -13.28125 C 5.328125 -14.164062 6.066406 -14.820312 7.546875 -15.25 C 8.046875 -15.40625 8.457031 -15.484375 8.78125 -15.484375 C 9.101562 -15.484375 9.34375 -15.445312 9.5 -15.375 C 9.664062 -15.300781 9.796875 -15.207031 9.890625 -15.09375 C 10.097656 -14.851562 10.203125 -14.609375 10.203125 -14.359375 C 10.203125 -14.117188 10.171875 -13.898438 10.109375 -13.703125 C 10.054688 -13.503906 9.972656 -13.300781 9.859375 -13.09375 C 9.753906 -12.882812 9.625 -12.671875 9.46875 -12.453125 C 9.3125 -12.242188 9.128906 -12.054688 8.921875 -11.890625 Z M 6.34375 -0.5625 C 5.820312 -0.300781 5.3125 -0.09375 4.8125 0.0625 C 4.320312 0.226562 3.835938 0.3125 3.359375 0.3125 C 2.890625 0.3125 2.398438 0.195312 1.890625 -0.03125 C 1.378906 -0.257812 0.925781 -0.566406 0.53125 -0.953125 C -0.351562 -1.804688 -0.796875 -2.753906 -0.796875 -3.796875 C -0.796875 -4.765625 -0.507812 -5.742188 0.0625 -6.734375 C 0.59375 -7.640625 1.265625 -8.394531 2.078125 -9 C 2.890625 -9.613281 3.644531 -9.921875 4.34375 -9.921875 C 5.34375 -9.921875 5.878906 -9.640625 5.953125 -9.078125 C 5.972656 -8.898438 5.984375 -8.695312 5.984375 -8.46875 C 5.984375 -8.25 5.925781 -7.992188 5.8125 -7.703125 C 5.707031 -7.410156 5.570312 -7.117188 5.40625 -6.828125 C 5.238281 -6.535156 5.050781 -6.25 4.84375 -5.96875 C 4.644531 -5.695312 4.457031 -5.445312 4.28125 -5.21875 C 3.914062 -4.789062 3.628906 -4.476562 3.421875 -4.28125 C 3.421875 -4.050781 3.597656 -3.8125 3.953125 -3.5625 C 4.273438 -3.332031 4.550781 -3.21875 4.78125 -3.21875 C 5.007812 -3.21875 5.28125 -3.269531 5.59375 -3.375 C 5.90625 -3.488281 6.226562 -3.632812 6.5625 -3.8125 C 6.894531 -4 7.234375 -4.210938 7.578125 -4.453125 C 7.921875 -4.691406 8.265625 -4.941406 8.609375 -5.203125 L 10.484375 -6.671875 C 11.234375 -7.210938 11.835938 -7.484375 12.296875 -7.484375 C 12.484375 -7.484375 12.625 -7.414062 12.71875 -7.28125 C 12.820312 -7.144531 12.875 -6.988281 12.875 -6.8125 C 12.875 -6.632812 12.785156 -6.390625 12.609375 -6.078125 C 12.429688 -5.765625 12.1875 -5.421875 11.875 -5.046875 C 11.5625 -4.671875 11.195312 -4.273438 10.78125 -3.859375 C 10.363281 -3.453125 9.910156 -3.050781 9.421875 -2.65625 C 8.929688 -2.257812 8.425781 -1.878906 7.90625 -1.515625 C 7.382812 -1.148438 6.863281 -0.832031 6.34375 -0.5625 Z M 6.34375 -0.5625 "/></g></g><g transform="translate(37.487745, 20.9059)"><g><path d="M 12.140625 -7.25 C 12.585938 -7.25 12.8125 -7.066406 12.8125 -6.703125 C 12.8125 -6.265625 12.539062 -5.738281 12 -5.125 C 11.113281 -4.09375 10.070312 -3.085938 8.875 -2.109375 C 6.925781 -0.554688 5.179688 0.21875 3.640625 0.21875 C 2.546875 0.21875 1.644531 -0.257812 0.9375 -1.21875 C 0.195312 -2.21875 -0.171875 -3.554688 -0.171875 -5.234375 C -0.171875 -7.453125 0.910156 -9.898438 3.078125 -12.578125 C 4.441406 -14.285156 5.734375 -15.441406 6.953125 -16.046875 C 7.328125 -16.242188 7.613281 -16.34375 7.8125 -16.34375 C 8.019531 -16.34375 8.207031 -16.304688 8.375 -16.234375 C 8.539062 -16.171875 8.695312 -16.082031 8.84375 -15.96875 C 9.175781 -15.6875 9.34375 -15.347656 9.34375 -14.953125 C 9.34375 -14.554688 9.234375 -14.082031 9.015625 -13.53125 C 8.796875 -12.988281 8.476562 -12.410156 8.0625 -11.796875 C 7.175781 -10.484375 5.976562 -9.226562 4.46875 -8.03125 C 4.082031 -7.289062 3.890625 -6.394531 3.890625 -5.34375 C 3.890625 -4.875 4.039062 -4.429688 4.34375 -4.015625 C 4.644531 -3.585938 4.984375 -3.375 5.359375 -3.375 C 5.859375 -3.375 6.828125 -3.898438 8.265625 -4.953125 L 10.09375 -6.359375 C 10.84375 -6.953125 11.523438 -7.25 12.140625 -7.25 Z M 12.140625 -7.25 "/></g></g><g transform="translate(47.981236, 20.9059)"><g><path d="M 14.21875 -7.546875 C 14.539062 -7.546875 14.703125 -7.363281 14.703125 -7 C 14.703125 -6.75 14.617188 -6.4375 14.453125 -6.0625 C 14.285156 -5.695312 14.039062 -5.347656 13.71875 -5.015625 C 13.40625 -4.691406 13.046875 -4.351562 12.640625 -4 C 12.234375 -3.65625 11.757812 -3.289062 11.21875 -2.90625 C 10.675781 -2.519531 10.070312 -2.140625 9.40625 -1.765625 C 8.75 -1.390625 8.050781 -1.050781 7.3125 -0.75 C 5.675781 -0.0820312 4.09375 0.25 2.5625 0.25 C 1.382812 0.25 0.359375 -0.0507812 -0.515625 -0.65625 C -1.429688 -1.289062 -1.890625 -2.066406 -1.890625 -2.984375 C -1.890625 -4.410156 -1.117188 -5.769531 0.421875 -7.0625 C 1.753906 -8.164062 3.320312 -9.023438 5.125 -9.640625 C 6.21875 -10.003906 7.144531 -10.1875 7.90625 -10.1875 C 8.519531 -10.1875 9.039062 -10.039062 9.46875 -9.75 C 9.914062 -9.414062 10.140625 -8.972656 10.140625 -8.421875 C 10.140625 -7.546875 9.453125 -6.582031 8.078125 -5.53125 C 7.859375 -5.351562 7.660156 -5.207031 7.484375 -5.09375 L 7.109375 -4.84375 C 6.421875 -4.363281 5.378906 -3.828125 3.984375 -3.234375 C 4.421875 -3.003906 4.820312 -2.890625 5.1875 -2.890625 C 5.5625 -2.890625 5.898438 -2.9375 6.203125 -3.03125 C 6.503906 -3.125 6.84375 -3.25 7.21875 -3.40625 C 7.59375 -3.570312 7.992188 -3.769531 8.421875 -4 C 8.847656 -4.226562 9.28125 -4.484375 9.71875 -4.765625 C 10.695312 -5.367188 11.546875 -5.988281 12.265625 -6.625 C 12.640625 -6.976562 13.117188 -7.257812 13.703125 -7.46875 C 13.898438 -7.519531 14.070312 -7.546875 14.21875 -7.546875 Z M 2.875 -4.671875 L 3.4375 -4.953125 C 3.625 -5.046875 3.789062 -5.132812 3.9375 -5.21875 C 5.320312 -6.007812 6.109375 -6.5 6.296875 -6.6875 C 6.492188 -6.875 6.59375 -7.003906 6.59375 -7.078125 C 6.59375 -7.148438 6.570312 -7.234375 6.53125 -7.328125 C 6.488281 -7.421875 6.429688 -7.503906 6.359375 -7.578125 C 6.191406 -7.773438 6.015625 -7.875 5.828125 -7.875 C 5.648438 -7.875 5.445312 -7.835938 5.21875 -7.765625 C 5 -7.703125 4.773438 -7.609375 4.546875 -7.484375 C 4.328125 -7.367188 4.113281 -7.222656 3.90625 -7.046875 C 3.695312 -6.878906 3.507812 -6.703125 3.34375 -6.515625 C 2.988281 -6.085938 2.8125 -5.710938 2.8125 -5.390625 C 2.8125 -5.078125 2.832031 -4.835938 2.875 -4.671875 Z M 2.875 -4.671875 "/></g></g><g transform="translate(60.211652, 20.9059)"><g><path d="M 3.65625 -4.375 C 3.65625 -4.050781 3.863281 -3.890625 4.28125 -3.890625 C 5.132812 -3.890625 6.582031 -4.953125 8.625 -7.078125 L 9.625 -8.078125 C 10.300781 -8.742188 10.75 -9.078125 10.96875 -9.078125 C 11.1875 -9.078125 11.378906 -9.035156 11.546875 -8.953125 C 11.722656 -8.878906 11.875 -8.785156 12 -8.671875 C 12.269531 -8.429688 12.40625 -8.175781 12.40625 -7.90625 C 12.40625 -7.632812 12.375 -7.335938 12.3125 -7.015625 C 12.257812 -6.691406 12.171875 -6.328125 12.046875 -5.921875 C 11.816406 -5.160156 11.410156 -4.148438 10.828125 -2.890625 L 10.40625 -1.984375 L 12.140625 -3.5625 L 15.71875 -6.625 C 16.082031 -6.90625 16.382812 -7.046875 16.625 -7.046875 C 17.144531 -7.046875 17.40625 -6.796875 17.40625 -6.296875 C 17.40625 -5.773438 17.070312 -5.113281 16.40625 -4.3125 C 16.195312 -4.050781 15.972656 -3.8125 15.734375 -3.59375 L 13.3125 -1.484375 L 8.578125 2.5 C 8.160156 2.863281 7.847656 3.15625 7.640625 3.375 C 7.378906 3.78125 7.175781 4.082031 7.03125 4.28125 C 6.894531 4.488281 6.757812 4.707031 6.625 4.9375 C 6.488281 5.164062 6.359375 5.363281 6.234375 5.53125 C 5.953125 5.882812 5.671875 6.0625 5.390625 6.0625 C 5.085938 6.0625 4.800781 5.941406 4.53125 5.703125 C 4.019531 5.253906 3.765625 4.851562 3.765625 4.5 C 3.765625 4.15625 3.859375 3.75 4.046875 3.28125 C 4.242188 2.820312 4.5 2.296875 4.8125 1.703125 L 6.984375 -2.3125 C 5.941406 -1.363281 5.117188 -0.738281 4.515625 -0.4375 C 3.921875 -0.132812 3.421875 0.0625 3.015625 0.15625 C 2.609375 0.257812 2.175781 0.3125 1.71875 0.3125 C 1.257812 0.3125 0.859375 0.21875 0.515625 0.03125 C 0.179688 -0.15625 -0.0976562 -0.40625 -0.328125 -0.71875 C -0.765625 -1.34375 -0.984375 -2.15625 -0.984375 -3.15625 C -0.984375 -4.21875 -0.71875 -5.265625 -0.1875 -6.296875 C 0.320312 -7.316406 1 -8.132812 1.84375 -8.75 C 2.738281 -9.40625 3.65625 -9.734375 4.59375 -9.734375 C 5.53125 -9.734375 6 -9.363281 6 -8.625 C 6 -8.164062 5.609375 -7.484375 4.828125 -6.578125 C 4.046875 -5.679688 3.65625 -4.945312 3.65625 -4.375 Z M 3.65625 -4.375 "/></g></g><g transform="translate(75.936473, 20.9059)"><g/></g><g transform="translate(84.682762, 20.9059)"><g><path d="M 2.640625 0.6875 C 2.285156 0.6875 1.945312 0.601562 1.625 0.4375 C 1.3125 0.269531 1.023438 0.03125 0.765625 -0.28125 C 0.179688 -0.988281 -0.109375 -1.832031 -0.109375 -2.8125 C -0.109375 -3.21875 0.046875 -3.625 0.359375 -4.03125 C 0.679688 -4.4375 1.207031 -4.804688 1.9375 -5.140625 C 3.5625 -5.867188 5.941406 -6.234375 9.078125 -6.234375 C 9.078125 -6.234375 11.941406 -8.457031 17.671875 -12.90625 C 17.960938 -13.132812 18.132812 -13.269531 18.1875 -13.3125 C 18.28125 -13.414062 18.394531 -13.46875 18.53125 -13.46875 C 18.675781 -13.46875 18.8125 -13.453125 18.9375 -13.421875 C 19.070312 -13.390625 19.195312 -13.351562 19.3125 -13.3125 C 19.550781 -13.207031 19.671875 -13.085938 19.671875 -12.953125 C 19.671875 -12.859375 19.644531 -12.78125 19.59375 -12.71875 L 13.71875 -6.265625 L 16.234375 -6.265625 C 16.335938 -6.515625 16.515625 -6.859375 16.765625 -7.296875 L 17.71875 -8.84375 C 18.082031 -9.425781 18.445312 -9.976562 18.8125 -10.5 L 19.84375 -11.9375 C 20.90625 -13.351562 21.671875 -14.0625 22.140625 -14.0625 C 22.191406 -14.0625 22.378906 -14 22.703125 -13.875 C 23.023438 -13.75 23.300781 -13.625 23.53125 -13.5 C 24.082031 -13.21875 24.359375 -12.945312 24.359375 -12.6875 C 24.359375 -12.445312 24.25 -12.195312 24.03125 -11.9375 C 23.820312 -11.675781 23.597656 -11.363281 23.359375 -11 C 23.128906 -10.644531 22.878906 -10.242188 22.609375 -9.796875 C 22.335938 -9.347656 22.0625 -8.867188 21.78125 -8.359375 C 21.507812 -7.859375 21.265625 -7.375 21.046875 -6.90625 C 20.546875 -5.832031 20.296875 -5.101562 20.296875 -4.71875 C 20.296875 -4.34375 20.320312 -4.066406 20.375 -3.890625 C 20.4375 -3.722656 20.507812 -3.597656 20.59375 -3.515625 C 20.726562 -3.378906 20.9375 -3.3125 21.21875 -3.3125 C 21.507812 -3.3125 21.800781 -3.363281 22.09375 -3.46875 C 22.394531 -3.582031 22.6875 -3.71875 22.96875 -3.875 C 23.257812 -4.039062 23.539062 -4.21875 23.8125 -4.40625 C 24.082031 -4.59375 24.347656 -4.769531 24.609375 -4.9375 C 25.210938 -5.300781 25.65625 -5.484375 25.9375 -5.484375 C 26.226562 -5.484375 26.421875 -5.414062 26.515625 -5.28125 C 26.617188 -5.15625 26.671875 -4.984375 26.671875 -4.765625 C 26.671875 -4.554688 26.582031 -4.269531 26.40625 -3.90625 C 26.226562 -3.550781 25.976562 -3.179688 25.65625 -2.796875 C 25.332031 -2.410156 24.953125 -2.03125 24.515625 -1.65625 C 24.078125 -1.28125 23.597656 -0.945312 23.078125 -0.65625 C 21.910156 -0.0078125 20.765625 0.3125 19.640625 0.3125 C 18.628906 0.3125 17.734375 -0.0390625 16.953125 -0.75 C 16.085938 -1.539062 15.65625 -2.554688 15.65625 -3.796875 C 15.65625 -3.859375 15.65625 -3.921875 15.65625 -3.984375 C 15.65625 -4.046875 15.660156 -4.113281 15.671875 -4.1875 L 11.359375 -3.640625 C 10.148438 -2.441406 8.6875 -1.421875 6.96875 -0.578125 C 5.238281 0.265625 3.796875 0.6875 2.640625 0.6875 Z M 2.640625 0.6875 "/></g></g><g transform="translate(110.901074, 20.9059)"><g><path d="M 17.515625 -7.59375 C 17.828125 -7.59375 17.984375 -7.4375 17.984375 -7.125 C 17.984375 -6.625 17.65625 -5.914062 17 -5 C 16.539062 -4.363281 15.59375 -3.484375 14.15625 -2.359375 C 12.457031 -1.015625 11.085938 -0.34375 10.046875 -0.34375 C 9.265625 -0.34375 8.675781 -0.675781 8.28125 -1.34375 C 8.039062 -1.738281 7.847656 -2.316406 7.703125 -3.078125 L 6.78125 -2.421875 C 4.269531 -0.679688 2.394531 0.1875 1.15625 0.1875 C 0.113281 0.1875 -0.71875 -0.191406 -1.34375 -0.953125 C -1.882812 -1.628906 -2.15625 -2.4375 -2.15625 -3.375 C -2.15625 -4.414062 -1.800781 -5.238281 -1.09375 -5.84375 C 0.363281 -7.0625 2.171875 -8.066406 4.328125 -8.859375 C 5.203125 -9.179688 5.753906 -9.34375 5.984375 -9.34375 C 6.222656 -9.34375 6.4375 -9.300781 6.625 -9.21875 C 6.820312 -9.144531 7.019531 -9.046875 7.21875 -8.921875 C 7.664062 -8.609375 7.890625 -8.3125 7.890625 -8.03125 C 7.890625 -7.789062 7.75 -7.601562 7.46875 -7.46875 C 7.375 -7.414062 7.21875 -7.347656 7 -7.265625 C 6.789062 -7.179688 6.535156 -7.066406 6.234375 -6.921875 C 5.398438 -6.535156 4.585938 -6.066406 3.796875 -5.515625 C 3.234375 -5.023438 2.953125 -4.640625 2.953125 -4.359375 C 2.953125 -4.078125 3.15625 -3.9375 3.5625 -3.9375 C 3.882812 -3.9375 4.539062 -4.226562 5.53125 -4.8125 C 5.53125 -4.8125 5.820312 -4.988281 6.40625 -5.34375 C 7.03125 -5.738281 7.53125 -6.09375 7.90625 -6.40625 C 7.90625 -6.40625 8.0625 -6.921875 8.375 -7.953125 C 8.957031 -9.785156 9.601562 -11.300781 10.3125 -12.5 C 11.570312 -14.925781 12.84375 -16.140625 14.125 -16.140625 C 14.582031 -16.140625 14.953125 -16.050781 15.234375 -15.875 C 15.722656 -15.570312 15.96875 -15.234375 15.96875 -14.859375 C 15.96875 -14.484375 15.898438 -14.085938 15.765625 -13.671875 C 15.628906 -13.253906 15.445312 -12.835938 15.21875 -12.421875 C 15 -12.015625 14.742188 -11.609375 14.453125 -11.203125 L 12.703125 -8.875 C 12.410156 -8.5 12.148438 -8.132812 11.921875 -7.78125 C 11.523438 -6.925781 11.328125 -6.191406 11.328125 -5.578125 C 11.328125 -4.703125 11.644531 -4.265625 12.28125 -4.265625 C 12.644531 -4.265625 13.300781 -4.644531 14.25 -5.40625 L 15.453125 -6.4375 C 16.023438 -6.9375 16.585938 -7.289062 17.140625 -7.5 C 17.296875 -7.5625 17.421875 -7.59375 17.515625 -7.59375 Z M 17.515625 -7.59375 "/></g></g><g transform="translate(126.625894, 20.9059)"><g><path d="M 17.515625 -7.59375 C 17.828125 -7.59375 17.984375 -7.4375 17.984375 -7.125 C 17.984375 -6.625 17.65625 -5.914062 17 -5 C 16.539062 -4.363281 15.59375 -3.484375 14.15625 -2.359375 C 12.457031 -1.015625 11.085938 -0.34375 10.046875 -0.34375 C 9.265625 -0.34375 8.675781 -0.675781 8.28125 -1.34375 C 8.039062 -1.738281 7.847656 -2.316406 7.703125 -3.078125 L 6.78125 -2.421875 C 4.269531 -0.679688 2.394531 0.1875 1.15625 0.1875 C 0.113281 0.1875 -0.71875 -0.191406 -1.34375 -0.953125 C -1.882812 -1.628906 -2.15625 -2.4375 -2.15625 -3.375 C -2.15625 -4.414062 -1.800781 -5.238281 -1.09375 -5.84375 C 0.363281 -7.0625 2.171875 -8.066406 4.328125 -8.859375 C 5.203125 -9.179688 5.753906 -9.34375 5.984375 -9.34375 C 6.222656 -9.34375 6.4375 -9.300781 6.625 -9.21875 C 6.820312 -9.144531 7.019531 -9.046875 7.21875 -8.921875 C 7.664062 -8.609375 7.890625 -8.3125 7.890625 -8.03125 C 7.890625 -7.789062 7.75 -7.601562 7.46875 -7.46875 C 7.375 -7.414062 7.21875 -7.347656 7 -7.265625 C 6.789062 -7.179688 6.535156 -7.066406 6.234375 -6.921875 C 5.398438 -6.535156 4.585938 -6.066406 3.796875 -5.515625 C 3.234375 -5.023438 2.953125 -4.640625 2.953125 -4.359375 C 2.953125 -4.078125 3.15625 -3.9375 3.5625 -3.9375 C 3.882812 -3.9375 4.539062 -4.226562 5.53125 -4.8125 C 5.53125 -4.8125 5.820312 -4.988281 6.40625 -5.34375 C 7.03125 -5.738281 7.53125 -6.09375 7.90625 -6.40625 C 7.90625 -6.40625 8.0625 -6.921875 8.375 -7.953125 C 8.957031 -9.785156 9.601562 -11.300781 10.3125 -12.5 C 11.570312 -14.925781 12.84375 -16.140625 14.125 -16.140625 C 14.582031 -16.140625 14.953125 -16.050781 15.234375 -15.875 C 15.722656 -15.570312 15.96875 -15.234375 15.96875 -14.859375 C 15.96875 -14.484375 15.898438 -14.085938 15.765625 -13.671875 C 15.628906 -13.253906 15.445312 -12.835938 15.21875 -12.421875 C 15 -12.015625 14.742188 -11.609375 14.453125 -11.203125 L 12.703125 -8.875 C 12.410156 -8.5 12.148438 -8.132812 11.921875 -7.78125 C 11.523438 -6.925781 11.328125 -6.191406 11.328125 -5.578125 C 11.328125 -4.703125 11.644531 -4.265625 12.28125 -4.265625 C 12.644531 -4.265625 13.300781 -4.644531 14.25 -5.40625 L 15.453125 -6.4375 C 16.023438 -6.9375 16.585938 -7.289062 17.140625 -7.5 C 17.296875 -7.5625 17.421875 -7.59375 17.515625 -7.59375 Z M 17.515625 -7.59375 "/></g></g><g transform="translate(142.350715, 20.9059)"><g><path d="M 8.921875 -11.890625 C 8.722656 -11.722656 8.507812 -11.582031 8.28125 -11.46875 C 8.050781 -11.363281 7.789062 -11.3125 7.5 -11.3125 C 7.21875 -11.3125 6.941406 -11.359375 6.671875 -11.453125 C 6.398438 -11.554688 6.164062 -11.691406 5.96875 -11.859375 C 5.539062 -12.234375 5.328125 -12.707031 5.328125 -13.28125 C 5.328125 -14.164062 6.066406 -14.820312 7.546875 -15.25 C 8.046875 -15.40625 8.457031 -15.484375 8.78125 -15.484375 C 9.101562 -15.484375 9.34375 -15.445312 9.5 -15.375 C 9.664062 -15.300781 9.796875 -15.207031 9.890625 -15.09375 C 10.097656 -14.851562 10.203125 -14.609375 10.203125 -14.359375 C 10.203125 -14.117188 10.171875 -13.898438 10.109375 -13.703125 C 10.054688 -13.503906 9.972656 -13.300781 9.859375 -13.09375 C 9.753906 -12.882812 9.625 -12.671875 9.46875 -12.453125 C 9.3125 -12.242188 9.128906 -12.054688 8.921875 -11.890625 Z M 6.34375 -0.5625 C 5.820312 -0.300781 5.3125 -0.09375 4.8125 0.0625 C 4.320312 0.226562 3.835938 0.3125 3.359375 0.3125 C 2.890625 0.3125 2.398438 0.195312 1.890625 -0.03125 C 1.378906 -0.257812 0.925781 -0.566406 0.53125 -0.953125 C -0.351562 -1.804688 -0.796875 -2.753906 -0.796875 -3.796875 C -0.796875 -4.765625 -0.507812 -5.742188 0.0625 -6.734375 C 0.59375 -7.640625 1.265625 -8.394531 2.078125 -9 C 2.890625 -9.613281 3.644531 -9.921875 4.34375 -9.921875 C 5.34375 -9.921875 5.878906 -9.640625 5.953125 -9.078125 C 5.972656 -8.898438 5.984375 -8.695312 5.984375 -8.46875 C 5.984375 -8.25 5.925781 -7.992188 5.8125 -7.703125 C 5.707031 -7.410156 5.570312 -7.117188 5.40625 -6.828125 C 5.238281 -6.535156 5.050781 -6.25 4.84375 -5.96875 C 4.644531 -5.695312 4.457031 -5.445312 4.28125 -5.21875 C 3.914062 -4.789062 3.628906 -4.476562 3.421875 -4.28125 C 3.421875 -4.050781 3.597656 -3.8125 3.953125 -3.5625 C 4.273438 -3.332031 4.550781 -3.21875 4.78125 -3.21875 C 5.007812 -3.21875 5.28125 -3.269531 5.59375 -3.375 C 5.90625 -3.488281 6.226562 -3.632812 6.5625 -3.8125 C 6.894531 -4 7.234375 -4.210938 7.578125 -4.453125 C 7.921875 -4.691406 8.265625 -4.941406 8.609375 -5.203125 L 10.484375 -6.671875 C 11.234375 -7.210938 11.835938 -7.484375 12.296875 -7.484375 C 12.484375 -7.484375 12.625 -7.414062 12.71875 -7.28125 C 12.820312 -7.144531 12.875 -6.988281 12.875 -6.8125 C 12.875 -6.632812 12.785156 -6.390625 12.609375 -6.078125 C 12.429688 -5.765625 12.1875 -5.421875 11.875 -5.046875 C 11.5625 -4.671875 11.195312 -4.273438 10.78125 -3.859375 C 10.363281 -3.453125 9.910156 -3.050781 9.421875 -2.65625 C 8.929688 -2.257812 8.425781 -1.878906 7.90625 -1.515625 C 7.382812 -1.148438 6.863281 -0.832031 6.34375 -0.5625 Z M 6.34375 -0.5625 "/></g></g><g transform="translate(152.844206, 20.9059)"><g><path d="M 6.515625 -10.015625 C 6.585938 -9.867188 6.625 -9.6875 6.625 -9.46875 C 6.625 -9.25 6.507812 -9 6.28125 -8.71875 C 6.457031 -8.53125 6.679688 -8.3125 6.953125 -8.0625 C 7.234375 -7.820312 7.503906 -7.5625 7.765625 -7.28125 C 8.398438 -6.570312 8.71875 -5.894531 8.71875 -5.25 C 8.71875 -4.820312 8.425781 -4.304688 7.84375 -3.703125 C 7.664062 -3.503906 7.46875 -3.328125 7.25 -3.171875 C 7.96875 -3.441406 8.828125 -3.984375 9.828125 -4.796875 L 11.03125 -5.78125 C 11.726562 -6.363281 12.191406 -6.695312 12.421875 -6.78125 C 12.660156 -6.875 12.875 -6.921875 13.0625 -6.921875 C 13.257812 -6.921875 13.445312 -6.875 13.625 -6.78125 C 13.8125 -6.6875 13.90625 -6.53125 13.90625 -6.3125 C 13.90625 -6.09375 13.867188 -5.882812 13.796875 -5.6875 C 13.734375 -5.488281 13.65625 -5.300781 13.5625 -5.125 C 13.414062 -4.882812 13.210938 -4.632812 12.953125 -4.375 C 12.234375 -3.6875 11.535156 -3.0625 10.859375 -2.5 C 10.191406 -1.9375 9.5 -1.453125 8.78125 -1.046875 C 7.257812 -0.203125 5.570312 0.21875 3.71875 0.21875 C 2.6875 0.21875 1.789062 -0.0390625 1.03125 -0.5625 C 0.71875 -0.78125 0.472656 -1.007812 0.296875 -1.25 C 0.128906 -1.488281 0.046875 -1.671875 0.046875 -1.796875 C 0.046875 -1.929688 0.0859375 -2.070312 0.171875 -2.21875 C 0.265625 -2.375 0.382812 -2.53125 0.53125 -2.6875 C 0.6875 -2.84375 0.863281 -3 1.0625 -3.15625 C 1.257812 -3.3125 1.460938 -3.453125 1.671875 -3.578125 C 2.148438 -3.859375 2.503906 -4 2.734375 -4 C 2.972656 -4 3.15625 -3.96875 3.28125 -3.90625 C 3.40625 -3.851562 3.519531 -3.789062 3.625 -3.71875 C 3.894531 -3.53125 4.09375 -3.4375 4.21875 -3.4375 C 4.5 -3.4375 4.640625 -3.628906 4.640625 -4.015625 C 4.640625 -4.367188 4.445312 -4.796875 4.0625 -5.296875 C 3.914062 -5.492188 3.757812 -5.691406 3.59375 -5.890625 C 3.425781 -6.097656 3.289062 -6.296875 3.1875 -6.484375 C 2.96875 -6.234375 2.691406 -5.972656 2.359375 -5.703125 L 1.359375 -4.859375 C 0.671875 -4.265625 0.03125 -3.984375 -0.5625 -4.015625 C -0.894531 -4.035156 -1.0625 -4.414062 -1.0625 -5.15625 C -1.0625 -5.28125 -1.050781 -5.40625 -1.03125 -5.53125 C -1 -5.738281 -0.789062 -5.992188 -0.40625 -6.296875 C -0.0195312 -6.597656 0.253906 -6.804688 0.421875 -6.921875 C 0.597656 -7.035156 0.75 -7.132812 0.875 -7.21875 L 1.96875 -7.96875 C 1.96875 -8.664062 2.367188 -9.304688 3.171875 -9.890625 C 3.941406 -10.429688 4.703125 -10.703125 5.453125 -10.703125 C 5.929688 -10.703125 6.285156 -10.472656 6.515625 -10.015625 Z M 6.515625 -10.015625 "/></g></g><g transform="translate(165.074622, 20.9059)"><g><path d="M 10.890625 -6.328125 C 10.890625 -5.960938 11.207031 -5.78125 11.84375 -5.78125 C 12.300781 -5.78125 12.910156 -6.003906 13.671875 -6.453125 L 14.484375 -6.90625 C 14.742188 -7.050781 14.96875 -7.125 15.15625 -7.125 C 15.34375 -7.125 15.488281 -7.0625 15.59375 -6.9375 C 15.707031 -6.820312 15.765625 -6.660156 15.765625 -6.453125 C 15.765625 -6.253906 15.695312 -6.019531 15.5625 -5.75 C 15.425781 -5.476562 15.238281 -5.191406 15 -4.890625 C 14.757812 -4.597656 14.476562 -4.304688 14.15625 -4.015625 C 13.832031 -3.722656 13.484375 -3.460938 13.109375 -3.234375 C 12.285156 -2.710938 11.523438 -2.453125 10.828125 -2.453125 C 10.078125 -2.453125 9.476562 -2.582031 9.03125 -2.84375 C 8.894531 -2.914062 8.757812 -3 8.625 -3.09375 C 7.894531 -2.257812 6.835938 -1.492188 5.453125 -0.796875 C 3.972656 -0.0546875 2.679688 0.3125 1.578125 0.3125 C 0.410156 0.3125 -0.503906 -0.140625 -1.171875 -1.046875 C -1.710938 -1.785156 -1.984375 -2.535156 -1.984375 -3.296875 C -1.984375 -4.390625 -1.394531 -5.4375 -0.21875 -6.4375 C 0.632812 -7.15625 1.460938 -7.703125 2.265625 -8.078125 C 3.078125 -8.460938 3.804688 -8.757812 4.453125 -8.96875 C 5.835938 -9.394531 7.082031 -9.609375 8.1875 -9.609375 C 8.675781 -9.609375 9.113281 -9.515625 9.5 -9.328125 C 9.882812 -9.140625 10.171875 -8.945312 10.359375 -8.75 C 10.796875 -8.320312 11.015625 -7.769531 11.015625 -7.09375 C 11.015625 -6.894531 10.992188 -6.738281 10.953125 -6.625 C 10.910156 -6.519531 10.890625 -6.421875 10.890625 -6.328125 Z M 2.484375 -4.390625 L 2.484375 -4.34375 C 2.484375 -4.050781 2.546875 -3.859375 2.671875 -3.765625 C 2.984375 -3.578125 3.3125 -3.53125 3.65625 -3.625 C 4.007812 -3.71875 4.347656 -3.832031 4.671875 -3.96875 C 5.453125 -4.300781 6.15625 -4.722656 6.78125 -5.234375 C 6.675781 -5.453125 6.625 -5.679688 6.625 -5.921875 C 6.625 -6.410156 6.835938 -6.90625 7.265625 -7.40625 C 6.710938 -7.40625 5.972656 -7.144531 5.046875 -6.625 C 4.015625 -6.0625 3.242188 -5.476562 2.734375 -4.875 C 2.566406 -4.664062 2.484375 -4.503906 2.484375 -4.390625 Z M 2.484375 -4.390625 "/></g></g><g transform="translate(179.052241, 20.9059)"><g><path d="M 11.4375 -5.515625 C 11.4375 -4.890625 11.617188 -4.578125 11.984375 -4.578125 C 12.867188 -4.578125 14.023438 -5.179688 15.453125 -6.390625 L 15.734375 -6.625 C 16.285156 -7 16.734375 -7.1875 17.078125 -7.1875 C 17.429688 -7.1875 17.648438 -7.132812 17.734375 -7.03125 C 17.828125 -6.925781 17.875 -6.757812 17.875 -6.53125 C 17.875 -6.03125 17.617188 -5.492188 17.109375 -4.921875 C 16.335938 -3.992188 15.285156 -3.109375 13.953125 -2.265625 C 12.410156 -1.296875 11.023438 -0.8125 9.796875 -0.8125 C 8.941406 -0.8125 8.40625 -1.285156 8.1875 -2.234375 C 8.125 -2.484375 8.078125 -2.722656 8.046875 -2.953125 C 7.972656 -3.492188 7.898438 -3.796875 7.828125 -3.859375 C 7.753906 -3.921875 7.601562 -3.914062 7.375 -3.84375 C 7.15625 -3.769531 6.894531 -3.648438 6.59375 -3.484375 C 6.289062 -3.316406 5.953125 -3.113281 5.578125 -2.875 C 3.617188 -1.570312 2.492188 -0.828125 2.203125 -0.640625 C 1.492188 -0.203125 1.015625 0.015625 0.765625 0.015625 C 0.523438 0.015625 0.285156 -0.0351562 0.046875 -0.140625 C -0.191406 -0.242188 -0.398438 -0.375 -0.578125 -0.53125 C -0.941406 -0.882812 -1.125 -1.242188 -1.125 -1.609375 C -1.125 -3.679688 -0.675781 -5.492188 0.21875 -7.046875 C 0.820312 -8.097656 1.566406 -8.828125 2.453125 -9.234375 C 2.890625 -9.441406 3.367188 -9.546875 3.890625 -9.546875 C 4.828125 -9.546875 5.296875 -9.238281 5.296875 -8.625 C 5.296875 -8.25 5.070312 -7.628906 4.625 -6.765625 L 4.3125 -6.171875 C 4.09375 -5.753906 3.988281 -5.515625 4 -5.453125 C 4.039062 -5.253906 4.132812 -5.15625 4.28125 -5.15625 C 4.4375 -5.15625 4.664062 -5.269531 4.96875 -5.5 L 6.859375 -6.90625 L 7.8125 -7.5625 C 8.894531 -8.269531 9.695312 -8.625 10.21875 -8.625 C 10.488281 -8.625 10.738281 -8.515625 10.96875 -8.296875 C 11.382812 -7.898438 11.59375 -7.554688 11.59375 -7.265625 C 11.59375 -7.171875 11.582031 -7.050781 11.5625 -6.90625 C 11.550781 -6.769531 11.535156 -6.625 11.515625 -6.46875 L 11.46875 -5.984375 C 11.445312 -5.828125 11.4375 -5.671875 11.4375 -5.515625 Z M 11.4375 -5.515625 "/></g></g><g transform="translate(194.787339, 20.9059)"><g/></g><g transform="translate(203.533628, 20.9059)"><g><path d="M 1.984375 -0.640625 C 1.867188 -0.835938 1.820312 -1.03125 1.84375 -1.21875 C 1.875 -1.40625 1.960938 -1.648438 2.109375 -1.953125 C 2.265625 -2.265625 2.472656 -2.648438 2.734375 -3.109375 L 3.640625 -4.640625 L 4.75 -6.46875 L 6.015625 -8.453125 L 7.328125 -10.421875 C 5.671875 -10.003906 4.410156 -9.515625 3.546875 -8.953125 C 3.398438 -8.859375 3.273438 -8.757812 3.171875 -8.65625 L 2.828125 -8.296875 C 2.609375 -8.085938 2.394531 -7.984375 2.1875 -7.984375 C 1.988281 -7.984375 1.832031 -8.007812 1.71875 -8.0625 C 1.601562 -8.113281 1.515625 -8.179688 1.453125 -8.265625 C 1.273438 -8.460938 1.242188 -8.679688 1.359375 -8.921875 C 1.648438 -9.867188 2.070312 -10.832031 2.625 -11.8125 C 2.914062 -12.363281 3.15625 -12.679688 3.34375 -12.765625 C 4.644531 -13.328125 7.351562 -13.734375 11.46875 -13.984375 C 12.8125 -14.066406 14.222656 -14.109375 15.703125 -14.109375 C 16.671875 -14.109375 17.59375 -13.765625 18.46875 -13.078125 C 19.4375 -12.285156 19.921875 -11.296875 19.921875 -10.109375 C 19.921875 -8.566406 18.59375 -7.101562 15.9375 -5.71875 C 14.46875 -4.9375 13.082031 -4.394531 11.78125 -4.09375 C 11.445312 -4.019531 11.1875 -3.984375 11 -3.984375 C 10.820312 -3.984375 10.617188 -4.003906 10.390625 -4.046875 C 10.160156 -4.097656 9.953125 -4.164062 9.765625 -4.25 C 9.328125 -4.46875 9.109375 -4.734375 9.109375 -5.046875 C 9.109375 -5.484375 9.53125 -5.925781 10.375 -6.375 L 12.59375 -7.578125 C 13.894531 -8.273438 14.695312 -8.78125 15 -9.09375 C 15.3125 -9.40625 15.46875 -9.660156 15.46875 -9.859375 C 15.46875 -10.066406 15.425781 -10.253906 15.34375 -10.421875 C 15.269531 -10.597656 15.164062 -10.753906 15.03125 -10.890625 C 14.738281 -11.179688 14.425781 -11.328125 14.09375 -11.328125 C 13.382812 -11.328125 12.539062 -11.273438 11.5625 -11.171875 L 10.3125 -8.96875 C 8.707031 -6.050781 7.613281 -3.429688 7.03125 -1.109375 C 6.800781 -0.203125 5.921875 0.25 4.390625 0.25 C 3.128906 0.25 2.328125 -0.046875 1.984375 -0.640625 Z M 1.984375 -0.640625 "/></g></g><g transform="translate(222.752853, 20.9059)"><g><path d="M 4.265625 -6.65625 C 4.265625 -6.40625 4.359375 -6.28125 4.546875 -6.28125 C 4.765625 -6.28125 5.054688 -6.429688 5.421875 -6.734375 L 6.3125 -7.5 C 7.257812 -8.3125 8.160156 -8.71875 9.015625 -8.71875 C 9.566406 -8.71875 10.0625 -8.257812 10.5 -7.34375 C 10.875 -6.539062 11.210938 -5.351562 11.515625 -3.78125 C 11.566406 -3.519531 11.609375 -3.390625 11.640625 -3.390625 C 11.679688 -3.390625 11.78125 -3.453125 11.9375 -3.578125 C 12.101562 -3.703125 12.300781 -3.859375 12.53125 -4.046875 C 14.21875 -5.484375 15.191406 -6.285156 15.453125 -6.453125 C 15.710938 -6.617188 15.894531 -6.726562 16 -6.78125 C 16.101562 -6.84375 16.207031 -6.898438 16.3125 -6.953125 C 16.59375 -7.046875 16.8125 -7.09375 16.96875 -7.09375 C 17.269531 -7.09375 17.421875 -6.9375 17.421875 -6.625 C 17.421875 -6.144531 17.101562 -5.445312 16.46875 -4.53125 C 15.769531 -3.5 14.835938 -2.472656 13.671875 -1.453125 C 12.316406 -0.253906 11.128906 0.34375 10.109375 0.34375 C 9.046875 0.34375 8.328125 -0.375 7.953125 -1.8125 C 7.859375 -2.1875 7.785156 -2.535156 7.734375 -2.859375 L 7.578125 -3.65625 C 7.535156 -3.875 7.476562 -3.984375 7.40625 -3.984375 C 7.34375 -3.984375 7.210938 -3.878906 7.015625 -3.671875 L 6.25 -2.890625 C 5.394531 -2.035156 4.679688 -1.40625 4.109375 -1 C 2.953125 -0.195312 1.9375 0.203125 1.0625 0.203125 C 0.0195312 0.203125 -0.585938 -0.320312 -0.765625 -1.375 C -0.828125 -1.6875 -0.859375 -2.082031 -0.859375 -2.5625 C -0.859375 -3.050781 -0.785156 -3.644531 -0.640625 -4.34375 C -0.503906 -5.039062 -0.316406 -5.738281 -0.078125 -6.4375 C 0.441406 -7.9375 1.085938 -9.210938 1.859375 -10.265625 L 2.78125 -11.484375 C 4.988281 -14.367188 6.835938 -15.8125 8.328125 -15.8125 C 8.660156 -15.8125 8.898438 -15.648438 9.046875 -15.328125 C 9.097656 -15.222656 9.125 -15.066406 9.125 -14.859375 C 9.125 -14.648438 9.035156 -14.382812 8.859375 -14.0625 C 8.679688 -13.738281 8.460938 -13.398438 8.203125 -13.046875 C 7.941406 -12.703125 7.660156 -12.347656 7.359375 -11.984375 C 7.066406 -11.628906 6.796875 -11.273438 6.546875 -10.921875 L 5.78125 -9.796875 C 4.769531 -8.285156 4.265625 -7.238281 4.265625 -6.65625 Z M 4.265625 -6.65625 "/></g></g><g transform="translate(238.487951, 20.9059)"><g><path d="M 10.890625 -6.328125 C 10.890625 -5.960938 11.207031 -5.78125 11.84375 -5.78125 C 12.300781 -5.78125 12.910156 -6.003906 13.671875 -6.453125 L 14.484375 -6.90625 C 14.742188 -7.050781 14.96875 -7.125 15.15625 -7.125 C 15.34375 -7.125 15.488281 -7.0625 15.59375 -6.9375 C 15.707031 -6.820312 15.765625 -6.660156 15.765625 -6.453125 C 15.765625 -6.253906 15.695312 -6.019531 15.5625 -5.75 C 15.425781 -5.476562 15.238281 -5.191406 15 -4.890625 C 14.757812 -4.597656 14.476562 -4.304688 14.15625 -4.015625 C 13.832031 -3.722656 13.484375 -3.460938 13.109375 -3.234375 C 12.285156 -2.710938 11.523438 -2.453125 10.828125 -2.453125 C 10.078125 -2.453125 9.476562 -2.582031 9.03125 -2.84375 C 8.894531 -2.914062 8.757812 -3 8.625 -3.09375 C 7.894531 -2.257812 6.835938 -1.492188 5.453125 -0.796875 C 3.972656 -0.0546875 2.679688 0.3125 1.578125 0.3125 C 0.410156 0.3125 -0.503906 -0.140625 -1.171875 -1.046875 C -1.710938 -1.785156 -1.984375 -2.535156 -1.984375 -3.296875 C -1.984375 -4.390625 -1.394531 -5.4375 -0.21875 -6.4375 C 0.632812 -7.15625 1.460938 -7.703125 2.265625 -8.078125 C 3.078125 -8.460938 3.804688 -8.757812 4.453125 -8.96875 C 5.835938 -9.394531 7.082031 -9.609375 8.1875 -9.609375 C 8.675781 -9.609375 9.113281 -9.515625 9.5 -9.328125 C 9.882812 -9.140625 10.171875 -8.945312 10.359375 -8.75 C 10.796875 -8.320312 11.015625 -7.769531 11.015625 -7.09375 C 11.015625 -6.894531 10.992188 -6.738281 10.953125 -6.625 C 10.910156 -6.519531 10.890625 -6.421875 10.890625 -6.328125 Z M 2.484375 -4.390625 L 2.484375 -4.34375 C 2.484375 -4.050781 2.546875 -3.859375 2.671875 -3.765625 C 2.984375 -3.578125 3.3125 -3.53125 3.65625 -3.625 C 4.007812 -3.71875 4.347656 -3.832031 4.671875 -3.96875 C 5.453125 -4.300781 6.15625 -4.722656 6.78125 -5.234375 C 6.675781 -5.453125 6.625 -5.679688 6.625 -5.921875 C 6.625 -6.410156 6.835938 -6.90625 7.265625 -7.40625 C 6.710938 -7.40625 5.972656 -7.144531 5.046875 -6.625 C 4.015625 -6.0625 3.242188 -5.476562 2.734375 -4.875 C 2.566406 -4.664062 2.484375 -4.503906 2.484375 -4.390625 Z M 2.484375 -4.390625 "/></g></g><g transform="translate(252.465569, 20.9059)"><g><path d="M 11.359375 -7.046875 C 12.023438 -7.046875 12.359375 -6.8125 12.359375 -6.34375 C 12.359375 -5.894531 12.046875 -5.316406 11.421875 -4.609375 L 10.90625 -4.09375 C 10.300781 -3.46875 9.59375 -2.851562 8.78125 -2.25 C 7.96875 -1.644531 7.253906 -1.171875 6.640625 -0.828125 C 5.203125 -0.0234375 3.90625 0.375 2.75 0.375 C 1.644531 0.375 0.75 0.046875 0.0625 -0.609375 C -0.53125 -1.179688 -0.828125 -1.78125 -0.828125 -2.40625 C -0.828125 -3.039062 -0.765625 -3.671875 -0.640625 -4.296875 C -0.523438 -4.921875 -0.367188 -5.53125 -0.171875 -6.125 C 0.234375 -7.332031 0.671875 -8.363281 1.140625 -9.21875 C 1.265625 -9.445312 1.328125 -9.597656 1.328125 -9.671875 L 0 -9.671875 C -0.5 -9.671875 -0.882812 -9.785156 -1.15625 -10.015625 C -1.4375 -10.253906 -1.578125 -10.519531 -1.578125 -10.8125 C -1.578125 -11.101562 -1.519531 -11.316406 -1.40625 -11.453125 C -1.300781 -11.597656 -1.164062 -11.695312 -1 -11.75 C -0.757812 -11.851562 -0.414062 -11.90625 0.03125 -11.90625 L 2.546875 -11.890625 C 2.597656 -11.910156 2.707031 -12.054688 2.875 -12.328125 L 3.5 -13.40625 C 3.769531 -13.882812 4.039062 -14.238281 4.3125 -14.46875 C 4.582031 -14.695312 4.898438 -14.8125 5.265625 -14.8125 C 5.628906 -14.8125 5.9375 -14.773438 6.1875 -14.703125 C 6.4375 -14.640625 6.648438 -14.554688 6.828125 -14.453125 C 7.160156 -14.234375 7.328125 -13.992188 7.328125 -13.734375 C 7.328125 -13.617188 7.289062 -13.46875 7.21875 -13.28125 L 6.640625 -11.890625 L 11.515625 -11.90625 C 11.941406 -11.90625 12.15625 -11.6875 12.15625 -11.25 C 12.15625 -10.207031 11.226562 -9.6875 9.375 -9.6875 L 5.609375 -9.671875 C 5.523438 -9.628906 5.382812 -9.429688 5.1875 -9.078125 L 4.734375 -8.21875 C 4.609375 -8.007812 4.523438 -7.847656 4.484375 -7.734375 L 4.25 -7.234375 C 3.789062 -6.203125 3.5625 -5.457031 3.5625 -5 C 3.5625 -4.539062 3.679688 -4.15625 3.921875 -3.84375 C 4.171875 -3.53125 4.5 -3.375 4.90625 -3.375 C 5.3125 -3.375 5.707031 -3.453125 6.09375 -3.609375 C 6.476562 -3.773438 6.851562 -3.96875 7.21875 -4.1875 C 7.894531 -4.601562 8.421875 -4.988281 8.796875 -5.34375 C 9.179688 -5.707031 9.503906 -5.984375 9.765625 -6.171875 C 9.765625 -6.171875 10.003906 -6.335938 10.484375 -6.671875 C 10.847656 -6.921875 11.140625 -7.046875 11.359375 -7.046875 Z M 11.359375 -7.046875 "/></g></g><g transform="translate(262.948783, 20.9059)"><g><path d="M 10.890625 -6.328125 C 10.890625 -5.960938 11.207031 -5.78125 11.84375 -5.78125 C 12.300781 -5.78125 12.910156 -6.003906 13.671875 -6.453125 L 14.484375 -6.90625 C 14.742188 -7.050781 14.96875 -7.125 15.15625 -7.125 C 15.34375 -7.125 15.488281 -7.0625 15.59375 -6.9375 C 15.707031 -6.820312 15.765625 -6.660156 15.765625 -6.453125 C 15.765625 -6.253906 15.695312 -6.019531 15.5625 -5.75 C 15.425781 -5.476562 15.238281 -5.191406 15 -4.890625 C 14.757812 -4.597656 14.476562 -4.304688 14.15625 -4.015625 C 13.832031 -3.722656 13.484375 -3.460938 13.109375 -3.234375 C 12.285156 -2.710938 11.523438 -2.453125 10.828125 -2.453125 C 10.078125 -2.453125 9.476562 -2.582031 9.03125 -2.84375 C 8.894531 -2.914062 8.757812 -3 8.625 -3.09375 C 7.894531 -2.257812 6.835938 -1.492188 5.453125 -0.796875 C 3.972656 -0.0546875 2.679688 0.3125 1.578125 0.3125 C 0.410156 0.3125 -0.503906 -0.140625 -1.171875 -1.046875 C -1.710938 -1.785156 -1.984375 -2.535156 -1.984375 -3.296875 C -1.984375 -4.390625 -1.394531 -5.4375 -0.21875 -6.4375 C 0.632812 -7.15625 1.460938 -7.703125 2.265625 -8.078125 C 3.078125 -8.460938 3.804688 -8.757812 4.453125 -8.96875 C 5.835938 -9.394531 7.082031 -9.609375 8.1875 -9.609375 C 8.675781 -9.609375 9.113281 -9.515625 9.5 -9.328125 C 9.882812 -9.140625 10.171875 -8.945312 10.359375 -8.75 C 10.796875 -8.320312 11.015625 -7.769531 11.015625 -7.09375 C 11.015625 -6.894531 10.992188 -6.738281 10.953125 -6.625 C 10.910156 -6.519531 10.890625 -6.421875 10.890625 -6.328125 Z M 2.484375 -4.390625 L 2.484375 -4.34375 C 2.484375 -4.050781 2.546875 -3.859375 2.671875 -3.765625 C 2.984375 -3.578125 3.3125 -3.53125 3.65625 -3.625 C 4.007812 -3.71875 4.347656 -3.832031 4.671875 -3.96875 C 5.453125 -4.300781 6.15625 -4.722656 6.78125 -5.234375 C 6.675781 -5.453125 6.625 -5.679688 6.625 -5.921875 C 6.625 -6.410156 6.835938 -6.90625 7.265625 -7.40625 C 6.710938 -7.40625 5.972656 -7.144531 5.046875 -6.625 C 4.015625 -6.0625 3.242188 -5.476562 2.734375 -4.875 C 2.566406 -4.664062 2.484375 -4.503906 2.484375 -4.390625 Z M 2.484375 -4.390625 "/></g></g><g transform="translate(276.926402, 20.9059)"><g><path d="M 5.890625 -6.84375 C 5.429688 -6.59375 4.992188 -6.320312 4.578125 -6.03125 C 4.160156 -5.738281 3.789062 -5.4375 3.46875 -5.125 C 3.144531 -4.820312 2.984375 -4.554688 2.984375 -4.328125 C 2.984375 -4.097656 3.164062 -3.984375 3.53125 -3.984375 C 3.78125 -3.984375 4.148438 -4.109375 4.640625 -4.359375 L 6.859375 -5.546875 C 7.273438 -5.753906 7.644531 -6.003906 7.96875 -6.296875 L 8.6875 -6.921875 C 9.207031 -7.398438 9.753906 -7.640625 10.328125 -7.640625 C 10.617188 -7.640625 10.914062 -7.472656 11.21875 -7.140625 C 11.507812 -6.816406 11.65625 -6.484375 11.65625 -6.140625 C 11.65625 -5.347656 11.332031 -4.179688 10.6875 -2.640625 L 12.328125 -3.984375 L 15.71875 -6.625 C 16.082031 -6.90625 16.382812 -7.046875 16.625 -7.046875 C 17.144531 -7.046875 17.40625 -6.796875 17.40625 -6.296875 C 17.40625 -5.773438 17.070312 -5.113281 16.40625 -4.3125 C 16.082031 -3.925781 15.644531 -3.507812 15.09375 -3.0625 L 9.390625 1.25 C 9.015625 1.550781 8.71875 1.800781 8.5 2 C 7.59375 3.457031 6.722656 4.515625 5.890625 5.171875 C 4.671875 6.140625 3.546875 6.625 2.515625 6.625 C 2.046875 6.625 1.664062 6.492188 1.375 6.234375 C 1.101562 6.003906 0.96875 5.738281 0.96875 5.4375 C 0.96875 5.15625 1.039062 4.847656 1.1875 4.515625 C 1.34375 4.191406 1.546875 3.863281 1.796875 3.53125 C 2.054688 3.207031 2.347656 2.882812 2.671875 2.5625 C 2.992188 2.25 3.335938 1.941406 3.703125 1.640625 C 4.660156 0.878906 5.34375 0.351562 5.75 0.0625 L 6.75 -0.671875 C 7.144531 -1.515625 7.488281 -2.425781 7.78125 -3.40625 C 6.457031 -2.238281 5.050781 -1.320312 3.5625 -0.65625 C 2.8125 -0.320312 2.1875 -0.15625 1.6875 -0.15625 C 1.195312 -0.15625 0.742188 -0.253906 0.328125 -0.453125 C -0.078125 -0.660156 -0.425781 -0.9375 -0.71875 -1.28125 C -1.332031 -1.976562 -1.640625 -2.796875 -1.640625 -3.734375 C -1.640625 -4.703125 -1.269531 -5.519531 -0.53125 -6.1875 C 0.570312 -7.1875 2.132812 -8.054688 4.15625 -8.796875 C 6.101562 -9.515625 7.75 -9.875 9.09375 -9.875 C 9.539062 -9.875 9.765625 -9.65625 9.765625 -9.21875 C 9.765625 -8.914062 9.707031 -8.679688 9.59375 -8.515625 C 9.476562 -8.359375 9.207031 -8.203125 8.78125 -8.046875 C 8.351562 -7.898438 7.878906 -7.722656 7.359375 -7.515625 C 6.847656 -7.316406 6.359375 -7.09375 5.890625 -6.84375 Z M 5.890625 -6.84375 "/></g></g><g transform="translate(292.651222, 20.9059)"><g><path d="M -0.5625 -3.390625 C -0.6875 -3.390625 -0.8125 -3.421875 -0.9375 -3.484375 C -1.0625 -3.546875 -1.179688 -3.644531 -1.296875 -3.78125 C -1.535156 -4.082031 -1.65625 -4.492188 -1.65625 -5.015625 C -1.65625 -5.566406 -1.320312 -6.257812 -0.65625 -7.09375 C -0.0078125 -7.894531 0.738281 -8.585938 1.59375 -9.171875 C 2.507812 -9.796875 3.296875 -10.109375 3.953125 -10.109375 C 4.535156 -10.109375 4.929688 -9.945312 5.140625 -9.625 L 5.28125 -9.390625 C 5.394531 -9.222656 5.503906 -9.140625 5.609375 -9.140625 C 5.722656 -9.140625 5.894531 -9.148438 6.125 -9.171875 L 7.578125 -9.265625 C 7.804688 -9.285156 7.984375 -9.296875 8.109375 -9.296875 C 8.242188 -9.296875 8.394531 -9.25 8.5625 -9.15625 C 8.726562 -9.0625 8.878906 -8.941406 9.015625 -8.796875 C 9.296875 -8.453125 9.4375 -8.078125 9.4375 -7.671875 C 9.4375 -7.242188 8.96875 -6.570312 8.03125 -5.65625 L 7.359375 -4.984375 C 6.867188 -4.484375 6.625 -4.164062 6.625 -4.03125 C 6.625 -3.90625 6.6875 -3.789062 6.8125 -3.6875 C 6.9375 -3.59375 7.070312 -3.546875 7.21875 -3.546875 C 7.363281 -3.546875 7.523438 -3.582031 7.703125 -3.65625 C 7.878906 -3.738281 8.101562 -3.859375 8.375 -4.015625 C 8.644531 -4.171875 8.953125 -4.359375 9.296875 -4.578125 C 10.234375 -5.191406 10.859375 -5.613281 11.171875 -5.84375 L 12.03125 -6.453125 C 12.601562 -6.867188 13.015625 -7.078125 13.265625 -7.078125 C 13.515625 -7.078125 13.71875 -7.019531 13.875 -6.90625 C 14.03125 -6.800781 14.109375 -6.617188 14.109375 -6.359375 C 14.109375 -6.097656 13.972656 -5.75 13.703125 -5.3125 C 13.441406 -4.875 13.15625 -4.492188 12.84375 -4.171875 C 12.53125 -3.847656 12.222656 -3.550781 11.921875 -3.28125 C 11.628906 -3.007812 11.28125 -2.710938 10.875 -2.390625 C 10.476562 -2.066406 10.035156 -1.742188 9.546875 -1.421875 C 9.066406 -1.097656 8.554688 -0.804688 8.015625 -0.546875 C 6.785156 0.046875 5.660156 0.34375 4.640625 0.34375 C 3.140625 0.34375 2.222656 -0.0390625 1.890625 -0.8125 C 1.785156 -1.039062 1.734375 -1.300781 1.734375 -1.59375 C 1.734375 -1.882812 1.785156 -2.191406 1.890625 -2.515625 C 2.003906 -2.847656 2.148438 -3.179688 2.328125 -3.515625 C 2.691406 -4.160156 3.113281 -4.734375 3.59375 -5.234375 C 4.007812 -5.671875 4.21875 -5.929688 4.21875 -6.015625 C 4.21875 -6.140625 4.140625 -6.21875 3.984375 -6.25 C 3.835938 -6.289062 3.625 -6.3125 3.34375 -6.3125 C 3.21875 -6.3125 2.953125 -6.132812 2.546875 -5.78125 L 1.546875 -4.84375 C 0.472656 -3.875 -0.226562 -3.390625 -0.5625 -3.390625 Z M -0.5625 -3.390625 "/></g></g><g transform="translate(304.881638, 20.9059)"><g><path d="M 17.84375 -7.71875 C 18.0625 -7.71875 18.171875 -7.53125 18.171875 -7.15625 C 18.171875 -6.519531 17.726562 -5.695312 16.84375 -4.6875 L 16.265625 -4.09375 C 14.484375 -2.3125 12.8125 -1.128906 11.25 -0.546875 C 10.269531 -0.179688 9.566406 -0.195312 9.140625 -0.59375 C 8.796875 -0.925781 8.519531 -1.46875 8.3125 -2.21875 L 8.0625 -3.109375 L 5.875 -1.765625 L 4.609375 -1.046875 C 3.109375 -0.222656 1.976562 0.1875 1.21875 0.1875 C 0.257812 0.1875 -0.539062 -0.1875 -1.1875 -0.9375 C -1.800781 -1.644531 -2.109375 -2.460938 -2.109375 -3.390625 C -2.109375 -4.304688 -1.742188 -5.125 -1.015625 -5.84375 C 0.0351562 -6.875 1.691406 -7.816406 3.953125 -8.671875 C 6.085938 -9.472656 7.8125 -9.875 9.125 -9.875 C 9.570312 -9.875 9.796875 -9.65625 9.796875 -9.21875 C 9.796875 -8.914062 9.734375 -8.6875 9.609375 -8.53125 C 9.492188 -8.382812 9.257812 -8.234375 8.90625 -8.078125 L 7.609375 -7.515625 C 5.691406 -6.710938 4.285156 -5.882812 3.390625 -5.03125 C 3.140625 -4.789062 3.015625 -4.554688 3.015625 -4.328125 C 3.015625 -4.097656 3.195312 -3.984375 3.5625 -3.984375 C 3.914062 -3.984375 4.742188 -4.367188 6.046875 -5.140625 L 6.890625 -5.640625 C 8.210938 -6.429688 9.320312 -6.828125 10.21875 -6.828125 C 10.96875 -6.828125 11.46875 -6.5 11.71875 -5.84375 C 11.78125 -5.65625 11.835938 -5.472656 11.890625 -5.296875 C 11.941406 -5.117188 11.992188 -4.957031 12.046875 -4.8125 C 12.171875 -4.476562 12.28125 -4.3125 12.375 -4.3125 C 12.476562 -4.3125 12.625 -4.359375 12.8125 -4.453125 C 13 -4.554688 13.203125 -4.679688 13.421875 -4.828125 C 13.648438 -4.984375 13.882812 -5.15625 14.125 -5.34375 L 15.359375 -6.34375 C 16.460938 -7.257812 17.289062 -7.71875 17.84375 -7.71875 Z M 17.84375 -7.71875 "/></g></g><g transform="translate(320.606459, 20.9059)"><g><path d="M 3.59375 -2.5625 C 3.8125 -2.664062 4.125 -2.816406 4.53125 -3.015625 C 7 -4.285156 8.359375 -4.988281 8.609375 -5.125 L 9.03125 -5.359375 C 9.476562 -5.640625 9.6875 -5.863281 9.65625 -6.03125 C 9.570312 -6.382812 9.378906 -6.523438 9.078125 -6.453125 C 8.773438 -6.390625 8.460938 -6.300781 8.140625 -6.1875 C 7.816406 -6.082031 7.472656 -5.953125 7.109375 -5.796875 C 6.347656 -5.484375 5.679688 -5.164062 5.109375 -4.84375 C 3.097656 -3.6875 1.882812 -2.988281 1.46875 -2.75 C 1.175781 -2.082031 0.910156 -1.421875 0.671875 -0.765625 L -0.5625 2.75 C -0.957031 3.84375 -1.351562 4.582031 -1.75 4.96875 C -1.957031 5.175781 -2.191406 5.28125 -2.453125 5.28125 C -3.097656 5.28125 -3.601562 5.054688 -3.96875 4.609375 C -4.34375 4.160156 -4.53125 3.59375 -4.53125 2.90625 C -4.53125 2.21875 -4.441406 1.535156 -4.265625 0.859375 C -4.085938 0.191406 -3.84375 -0.476562 -3.53125 -1.15625 C -2.882812 -2.539062 -2.03125 -3.832031 -0.96875 -5.03125 C -0.3125 -6.78125 0.769531 -8.476562 2.28125 -10.125 C 3.207031 -11.125 4.066406 -11.828125 4.859375 -12.234375 C 5.253906 -12.441406 5.59375 -12.546875 5.875 -12.546875 C 6.15625 -12.546875 6.367188 -12.484375 6.515625 -12.359375 C 6.660156 -12.234375 6.734375 -12.078125 6.734375 -11.890625 C 6.734375 -11.703125 6.671875 -11.460938 6.546875 -11.171875 C 6.429688 -10.878906 6.273438 -10.554688 6.078125 -10.203125 C 5.878906 -9.847656 5.648438 -9.46875 5.390625 -9.0625 L 4.53125 -7.828125 C 4.457031 -7.722656 4.421875 -7.628906 4.421875 -7.546875 C 4.421875 -7.410156 4.503906 -7.34375 4.671875 -7.34375 C 4.847656 -7.34375 5.175781 -7.457031 5.65625 -7.6875 L 7.296875 -8.453125 C 8.734375 -9.097656 10.109375 -9.421875 11.421875 -9.421875 C 12.109375 -9.421875 12.753906 -9.097656 13.359375 -8.453125 C 13.972656 -7.796875 14.28125 -7.085938 14.28125 -6.328125 C 14.28125 -5.160156 13.800781 -4.265625 12.84375 -3.640625 L 11.578125 -2.796875 C 11.117188 -2.503906 10.644531 -2.21875 10.15625 -1.9375 L 8.671875 -1.125 C 7.003906 -0.257812 5.71875 0.171875 4.8125 0.171875 C 3.90625 0.171875 3.242188 0.0546875 2.828125 -0.171875 C 2.421875 -0.398438 2.21875 -0.71875 2.21875 -1.125 C 2.21875 -1.6875 2.675781 -2.164062 3.59375 -2.5625 Z M 3.59375 -2.5625 "/></g></g><g transform="translate(334.584077, 20.9059)"><g><path d="M 4.265625 -6.65625 C 4.265625 -6.40625 4.359375 -6.28125 4.546875 -6.28125 C 4.765625 -6.28125 5.054688 -6.429688 5.421875 -6.734375 L 6.3125 -7.5 C 7.257812 -8.3125 8.160156 -8.71875 9.015625 -8.71875 C 9.566406 -8.71875 10.0625 -8.257812 10.5 -7.34375 C 10.875 -6.539062 11.210938 -5.351562 11.515625 -3.78125 C 11.566406 -3.519531 11.609375 -3.390625 11.640625 -3.390625 C 11.679688 -3.390625 11.78125 -3.453125 11.9375 -3.578125 C 12.101562 -3.703125 12.300781 -3.859375 12.53125 -4.046875 C 14.21875 -5.484375 15.191406 -6.285156 15.453125 -6.453125 C 15.710938 -6.617188 15.894531 -6.726562 16 -6.78125 C 16.101562 -6.84375 16.207031 -6.898438 16.3125 -6.953125 C 16.59375 -7.046875 16.8125 -7.09375 16.96875 -7.09375 C 17.269531 -7.09375 17.421875 -6.9375 17.421875 -6.625 C 17.421875 -6.144531 17.101562 -5.445312 16.46875 -4.53125 C 15.769531 -3.5 14.835938 -2.472656 13.671875 -1.453125 C 12.316406 -0.253906 11.128906 0.34375 10.109375 0.34375 C 9.046875 0.34375 8.328125 -0.375 7.953125 -1.8125 C 7.859375 -2.1875 7.785156 -2.535156 7.734375 -2.859375 L 7.578125 -3.65625 C 7.535156 -3.875 7.476562 -3.984375 7.40625 -3.984375 C 7.34375 -3.984375 7.210938 -3.878906 7.015625 -3.671875 L 6.25 -2.890625 C 5.394531 -2.035156 4.679688 -1.40625 4.109375 -1 C 2.953125 -0.195312 1.9375 0.203125 1.0625 0.203125 C 0.0195312 0.203125 -0.585938 -0.320312 -0.765625 -1.375 C -0.828125 -1.6875 -0.859375 -2.082031 -0.859375 -2.5625 C -0.859375 -3.050781 -0.785156 -3.644531 -0.640625 -4.34375 C -0.503906 -5.039062 -0.316406 -5.738281 -0.078125 -6.4375 C 0.441406 -7.9375 1.085938 -9.210938 1.859375 -10.265625 L 2.78125 -11.484375 C 4.988281 -14.367188 6.835938 -15.8125 8.328125 -15.8125 C 8.660156 -15.8125 8.898438 -15.648438 9.046875 -15.328125 C 9.097656 -15.222656 9.125 -15.066406 9.125 -14.859375 C 9.125 -14.648438 9.035156 -14.382812 8.859375 -14.0625 C 8.679688 -13.738281 8.460938 -13.398438 8.203125 -13.046875 C 7.941406 -12.703125 7.660156 -12.347656 7.359375 -11.984375 C 7.066406 -11.628906 6.796875 -11.273438 6.546875 -10.921875 L 5.78125 -9.796875 C 4.769531 -8.285156 4.265625 -7.238281 4.265625 -6.65625 Z M 4.265625 -6.65625 "/></g></g><g transform="translate(350.319175, 20.9059)"><g><path d="M 3.65625 -4.375 C 3.65625 -4.050781 3.863281 -3.890625 4.28125 -3.890625 C 5.132812 -3.890625 6.582031 -4.953125 8.625 -7.078125 L 9.625 -8.078125 C 10.300781 -8.742188 10.75 -9.078125 10.96875 -9.078125 C 11.1875 -9.078125 11.378906 -9.035156 11.546875 -8.953125 C 11.722656 -8.878906 11.875 -8.785156 12 -8.671875 C 12.269531 -8.429688 12.40625 -8.175781 12.40625 -7.90625 C 12.40625 -7.632812 12.375 -7.335938 12.3125 -7.015625 C 12.257812 -6.691406 12.171875 -6.328125 12.046875 -5.921875 C 11.816406 -5.160156 11.410156 -4.148438 10.828125 -2.890625 L 10.40625 -1.984375 L 12.140625 -3.5625 L 15.71875 -6.625 C 16.082031 -6.90625 16.382812 -7.046875 16.625 -7.046875 C 17.144531 -7.046875 17.40625 -6.796875 17.40625 -6.296875 C 17.40625 -5.773438 17.070312 -5.113281 16.40625 -4.3125 C 16.195312 -4.050781 15.972656 -3.8125 15.734375 -3.59375 L 13.3125 -1.484375 L 8.578125 2.5 C 8.160156 2.863281 7.847656 3.15625 7.640625 3.375 C 7.378906 3.78125 7.175781 4.082031 7.03125 4.28125 C 6.894531 4.488281 6.757812 4.707031 6.625 4.9375 C 6.488281 5.164062 6.359375 5.363281 6.234375 5.53125 C 5.953125 5.882812 5.671875 6.0625 5.390625 6.0625 C 5.085938 6.0625 4.800781 5.941406 4.53125 5.703125 C 4.019531 5.253906 3.765625 4.851562 3.765625 4.5 C 3.765625 4.15625 3.859375 3.75 4.046875 3.28125 C 4.242188 2.820312 4.5 2.296875 4.8125 1.703125 L 6.984375 -2.3125 C 5.941406 -1.363281 5.117188 -0.738281 4.515625 -0.4375 C 3.921875 -0.132812 3.421875 0.0625 3.015625 0.15625 C 2.609375 0.257812 2.175781 0.3125 1.71875 0.3125 C 1.257812 0.3125 0.859375 0.21875 0.515625 0.03125 C 0.179688 -0.15625 -0.0976562 -0.40625 -0.328125 -0.71875 C -0.765625 -1.34375 -0.984375 -2.15625 -0.984375 -3.15625 C -0.984375 -4.21875 -0.71875 -5.265625 -0.1875 -6.296875 C 0.320312 -7.316406 1 -8.132812 1.84375 -8.75 C 2.738281 -9.40625 3.65625 -9.734375 4.59375 -9.734375 C 5.53125 -9.734375 6 -9.363281 6 -8.625 C 6 -8.164062 5.609375 -7.484375 4.828125 -6.578125 C 4.046875 -5.679688 3.65625 -4.945312 3.65625 -4.375 Z M 3.65625 -4.375 "/></g></g></g></g></svg>