<svg xmlns="http://www.w3.org/2000/svg" xmlns:xlink="http://www.w3.org/1999/xlink" width="500" zoomAndPan="magnify" viewBox="0 0 375 374.999991" height="500" preserveAspectRatio="xMidYMid meet" version="1.0"><defs><filter x="0%" y="0%" width="100%" height="100%" id="cf9178dfce"><feColorMatrix values="0 0 0 0 1 0 0 0 0 1 0 0 0 0 1 0 0 0 1 0" color-interpolation-filters="sRGB"/></filter><g/><clipPath id="367e760309"><path d="M 41.019531 44.539062 L 333.980469 44.539062 L 333.980469 337.5 L 41.019531 337.5 Z M 41.019531 44.539062 " clip-rule="nonzero"/></clipPath><clipPath id="29b4dea749"><path d="M 187.5 44.539062 C 106.601562 44.539062 41.019531 110.121094 41.019531 191.019531 C 41.019531 271.917969 106.601562 337.5 187.5 337.5 C 268.398438 337.5 333.980469 271.917969 333.980469 191.019531 C 333.980469 110.121094 268.398438 44.539062 187.5 44.539062 Z M 187.5 44.539062 " clip-rule="nonzero"/></clipPath><mask id="ea74efe467"><g filter="url(#cf9178dfce)"><rect x="-37.5" width="450" fill="#000000" y="-37.499999" height="449.999989" fill-opacity="0.28"/></g></mask><clipPath id="bbeee6abb5"><path d="M 13.828125 0.238281 L 286.828125 0.238281 L 286.828125 274 L 13.828125 274 Z M 13.828125 0.238281 " clip-rule="nonzero"/></clipPath><clipPath id="25c270dfb6"><rect x="0" width="301" y="0" height="287"/></clipPath></defs><g clip-path="url(#367e760309)"><g clip-path="url(#29b4dea749)"><path fill="#f89493" d="M 41.019531 44.539062 L 333.980469 44.539062 L 333.980469 337.5 L 41.019531 337.5 Z M 41.019531 44.539062 " fill-opacity="1" fill-rule="nonzero"/></g></g><g mask="url(#ea74efe467)"><g transform="matrix(1, 0, 0, 1, 37, 54)"><g clip-path="url(#25c270dfb6)"><g clip-path="url(#bbeee6abb5)"><path fill="#e36729" d="M 165.847656 217.9375 C 149.949219 232.324219 132.601562 244.683594 113.808594 255.015625 C 108.777344 257.964844 103.574219 260.699219 98.199219 263.214844 C 93.367188 261.210938 88.664062 258.9375 84.09375 256.394531 C 79.523438 253.851562 75.109375 251.054688 70.859375 248.007812 C 66.609375 244.957031 62.546875 241.675781 58.675781 238.160156 C 54.800781 234.644531 51.140625 230.921875 47.695312 226.984375 C 44.25 223.050781 41.039062 218.929688 38.066406 214.625 C 35.09375 210.324219 32.375 205.863281 29.914062 201.25 C 27.453125 196.632812 25.261719 191.890625 23.34375 187.023438 C 21.429688 182.15625 19.796875 177.199219 18.445312 172.144531 C 23.910156 175.527344 29.636719 178.777344 35.359375 181.769531 C 45.378906 187.195312 55.671875 192.035156 66.238281 196.296875 C 76.804688 200.554688 87.574219 204.207031 98.554688 207.25 C 109.535156 210.292969 120.648438 212.707031 131.898438 214.496094 C 143.152344 216.28125 154.46875 217.429688 165.847656 217.9375 Z M 87.789062 190.617188 C 82.574219 180.578125 77.933594 170.28125 73.867188 159.722656 C 69.804688 149.167969 66.335938 138.417969 63.46875 127.476562 C 60.601562 116.53125 58.351562 105.464844 56.71875 94.269531 C 55.085938 83.074219 54.082031 71.824219 53.703125 60.519531 C 53.703125 54.011719 53.703125 47.507812 53.703125 41.132812 C 50.570312 44.277344 47.59375 47.570312 44.78125 51.003906 C 41.964844 54.441406 39.328125 58.007812 36.859375 61.699219 C 34.394531 65.394531 32.117188 69.199219 30.019531 73.113281 C 27.925781 77.03125 26.027344 81.039062 24.324219 85.140625 C 22.621094 89.242188 21.121094 93.417969 19.828125 97.667969 C 18.53125 101.914062 17.445312 106.214844 16.570312 110.570312 C 15.695312 114.921875 15.035156 119.308594 14.585938 123.726562 C 14.140625 128.144531 13.910156 132.574219 13.894531 137.015625 C 13.886719 142.941406 14.277344 148.839844 15.0625 154.710938 C 19.921875 158.007812 24.863281 161.128906 29.894531 164.078125 C 48.21875 175.148438 67.558594 183.996094 87.921875 190.617188 Z M 168.320312 14.722656 C 173.914062 11.339844 179.640625 7.957031 185.496094 4.964844 C 180.46875 3.632812 175.382812 2.59375 170.238281 1.84375 C 165.09375 1.09375 159.921875 0.636719 154.726562 0.480469 C 149.527344 0.320312 144.339844 0.457031 139.160156 0.894531 C 133.976562 1.328125 128.839844 2.058594 123.742188 3.082031 C 118.644531 4.101562 113.621094 5.414062 108.671875 7.011719 C 103.722656 8.609375 98.882812 10.484375 94.148438 12.632812 C 89.417969 14.785156 84.820312 17.199219 80.363281 19.875 C 75.90625 22.554688 71.617188 25.476562 67.496094 28.644531 C 67.496094 34.5 66.714844 40.351562 66.582031 46.207031 C 66.289062 67.59375 68.328125 88.757812 72.699219 109.695312 C 78.773438 100.125 85.363281 90.921875 92.464844 82.085938 C 99.570312 73.25 107.140625 64.839844 115.1875 56.847656 C 123.230469 48.859375 131.691406 41.34375 140.578125 34.300781 C 149.460938 27.257812 158.707031 20.734375 168.320312 14.722656 Z M 265.503906 91.480469 C 271.230469 94.472656 276.953125 97.726562 282.417969 101.109375 C 281.070312 96.054688 279.4375 91.09375 277.519531 86.226562 C 275.601562 81.363281 273.414062 76.621094 270.953125 72.003906 C 268.488281 67.390625 265.773438 62.929688 262.800781 58.625 C 259.824219 54.324219 256.617188 50.203125 253.171875 46.269531 C 249.722656 42.332031 246.0625 38.609375 242.191406 35.09375 C 238.316406 31.578125 234.253906 28.296875 230.003906 25.246094 C 225.753906 22.199219 221.34375 19.402344 216.773438 16.859375 C 212.203125 14.316406 207.5 12.042969 202.667969 10.039062 C 197.289062 12.554688 192.085938 15.285156 187.054688 18.234375 C 168.28125 28.59375 150.933594 40.953125 135.015625 55.3125 C 146.398438 55.824219 157.714844 56.96875 168.964844 58.757812 C 180.214844 60.542969 191.332031 62.960938 202.3125 66.003906 C 213.289062 69.046875 224.0625 72.695312 234.628906 76.957031 C 245.195312 81.21875 255.488281 86.058594 265.503906 91.480469 Z M 247.160156 233.421875 C 250.316406 230.261719 253.3125 226.957031 256.144531 223.503906 C 258.976562 220.050781 261.632812 216.46875 264.113281 212.757812 C 266.59375 209.042969 268.882812 205.21875 270.988281 201.28125 C 273.09375 197.34375 275 193.3125 276.710938 189.1875 C 278.417969 185.0625 279.921875 180.863281 281.21875 176.589844 C 282.515625 172.316406 283.601562 167.992188 284.472656 163.613281 C 285.34375 159.234375 286 154.824219 286.441406 150.378906 C 286.878906 145.9375 287.101562 141.480469 287.101562 137.015625 C 287.109375 131.09375 286.71875 125.195312 285.929688 119.324219 C 281.074219 116.113281 276.128906 112.992188 271.101562 109.957031 C 252.753906 99.066406 233.410156 90.390625 213.074219 83.9375 C 218.289062 93.976562 222.929688 104.273438 226.996094 114.828125 C 231.0625 125.386719 234.527344 136.136719 237.394531 147.078125 C 240.261719 158.023438 242.511719 169.089844 244.144531 180.285156 C 245.777344 191.480469 246.785156 202.730469 247.160156 214.035156 C 248.074219 220.539062 248.074219 227.046875 247.160156 233.421875 Z M 132.675781 259.441406 C 127.078125 262.824219 121.355469 266.207031 115.5 269.199219 C 120.527344 270.53125 125.613281 271.570312 130.757812 272.320312 C 135.902344 273.070312 141.074219 273.527344 146.269531 273.683594 C 151.464844 273.84375 156.65625 273.703125 161.835938 273.269531 C 167.019531 272.835938 172.15625 272.105469 177.253906 271.082031 C 182.351562 270.058594 187.375 268.75 192.324219 267.152344 C 197.269531 265.554688 202.113281 263.679688 206.84375 261.53125 C 211.578125 259.378906 216.175781 256.964844 220.632812 254.285156 C 225.089844 251.609375 229.378906 248.6875 233.5 245.519531 C 233.5 239.664062 234.28125 233.8125 234.410156 227.957031 C 234.707031 206.570312 232.667969 185.40625 228.296875 164.46875 C 222.21875 174.027344 215.625 183.21875 208.523438 192.042969 C 201.417969 200.867188 193.84375 209.269531 185.796875 217.246094 C 177.753906 225.222656 169.292969 232.730469 160.410156 239.761719 C 151.527344 246.792969 142.285156 253.308594 132.675781 259.308594 Z M 132.675781 259.441406 " fill-opacity="1" fill-rule="nonzero"/></g></g></g></g><g fill="#000000" fill-opacity="1"><g transform="translate(140.554683, 212.999986)"><g><path d="M 7.34375 0 L 7.34375 -56.609375 L 23.453125 -56.609375 C 25.585938 -56.609375 27.65625 -56.164062 29.65625 -55.28125 C 31.65625 -54.40625 33.445312 -53.207031 35.03125 -51.6875 C 36.625 -50.164062 37.882812 -48.453125 38.8125 -46.546875 C 39.738281 -44.648438 40.203125 -42.703125 40.203125 -40.703125 C 40.203125 -38.609375 39.65625 -36.707031 38.5625 -35 C 37.46875 -33.289062 36.003906 -31.828125 34.171875 -30.609375 C 32.347656 -29.398438 30.320312 -28.535156 28.09375 -28.015625 L 39.5 -4.5625 C 40.257812 -3.039062 41.019531 -1.945312 41.78125 -1.28125 C 42.539062 -0.613281 43.65625 -0.210938 45.125 -0.078125 C 42.65625 -0.117188 40.671875 -0.28125 39.171875 -0.5625 C 37.671875 -0.851562 36.515625 -1.316406 35.703125 -1.953125 C 34.898438 -2.597656 34.21875 -3.492188 33.65625 -4.640625 C 32.507812 -7.015625 31.363281 -9.398438 30.21875 -11.796875 C 29.082031 -14.203125 28.023438 -16.460938 27.046875 -18.578125 C 26.078125 -20.691406 25.257812 -22.519531 24.59375 -24.0625 C 23.925781 -25.601562 23.453125 -26.734375 23.171875 -27.453125 L 12.40625 -27.453125 L 12.40625 0 Z M 12.40625 -28.734375 L 23.453125 -28.734375 C 25.359375 -28.734375 27.15625 -29.289062 28.84375 -30.40625 C 30.53125 -31.519531 31.914062 -33.0625 33 -35.03125 C 34.09375 -37.007812 34.640625 -39.257812 34.640625 -41.78125 C 34.640625 -43.53125 34.285156 -45.222656 33.578125 -46.859375 C 32.867188 -48.503906 31.90625 -49.992188 30.6875 -51.328125 C 29.476562 -52.660156 28.125 -53.71875 26.625 -54.5 C 25.125 -55.28125 23.566406 -55.671875 21.953125 -55.671875 L 12.40625 -55.671875 Z M 12.40625 -28.734375 "/></g></g></g><g fill="#000000" fill-opacity="1"><g transform="translate(188.529651, 212.999986)"><g><path d="M -2.0625 0 L -2.0625 -0.21875 L -1.140625 -0.21875 C -0.285156 -0.21875 0.640625 -0.5625 1.640625 -1.25 C 2.640625 -1.9375 3.550781 -2.828125 4.375 -3.921875 C 5.207031 -5.015625 5.816406 -6.15625 6.203125 -7.34375 L 20.8125 -54.328125 L 20.609375 -55.03125 C 21.648438 -55.175781 22.535156 -55.554688 23.265625 -56.171875 C 24.003906 -56.796875 24.328125 -57.414062 24.234375 -58.03125 L 24.734375 -58.03125 C 27.347656 -49.570312 29.972656 -41.125 32.609375 -32.6875 C 35.253906 -24.25 37.882812 -15.800781 40.5 -7.34375 C 40.875 -6.15625 41.359375 -5.015625 41.953125 -3.921875 C 42.546875 -2.828125 43.160156 -1.9375 43.796875 -1.25 C 44.441406 -0.5625 44.976562 -0.21875 45.40625 -0.21875 L 45.90625 -0.21875 L 45.90625 0 L 31.375 0 L 31.296875 -0.28125 L 32.21875 -0.28125 C 33.457031 -0.28125 34.382812 -0.929688 35 -2.234375 C 35.625 -3.546875 35.742188 -5.035156 35.359375 -6.703125 L 30.65625 -22.171875 L 11.1875 -22.171875 L 6.625 -7.34375 C 6.0625 -5.582031 6.078125 -3.953125 6.671875 -2.453125 C 7.265625 -0.960938 8.203125 -0.21875 9.484375 -0.21875 L 10.40625 -0.21875 L 10.40625 0 Z M 11.265625 -22.671875 L 30.4375 -22.671875 L 20.890625 -53.96875 Z M 11.265625 -22.671875 "/></g></g></g><g fill="#000000" fill-opacity="1"><g transform="translate(141.260225, 234.199818)"><g><path d="M 0.828125 -6.296875 L 3.34375 -6.296875 C 4.132812 -6.296875 4.742188 -6.109375 5.171875 -5.734375 C 5.609375 -5.359375 5.828125 -4.832031 5.828125 -4.15625 C 5.828125 -3.4375 5.609375 -2.878906 5.171875 -2.484375 C 4.742188 -2.097656 4.132812 -1.90625 3.34375 -1.90625 L 1.890625 -1.90625 L 1.890625 0 L 0.828125 0 Z M 1.890625 -5.34375 L 1.890625 -2.859375 L 3.296875 -2.859375 C 4.304688 -2.859375 4.8125 -3.28125 4.8125 -4.125 C 4.8125 -4.9375 4.304688 -5.34375 3.296875 -5.34375 Z M 1.890625 -5.34375 "/></g></g></g><g fill="#000000" fill-opacity="1"><g transform="translate(149.387262, 234.199818)"><g><path d="M 6.296875 0 L 5.234375 0 L 5.234375 -2.609375 L 1.890625 -2.609375 L 1.890625 0 L 0.828125 0 L 0.828125 -6.296875 L 1.890625 -6.296875 L 1.890625 -3.5625 L 5.234375 -3.5625 L 5.234375 -6.296875 L 6.296875 -6.296875 Z M 6.296875 0 "/></g></g></g><g fill="#000000" fill-opacity="1"><g transform="translate(158.57631, 234.199818)"><g><path d="M 1.265625 -5.40625 C 1.910156 -6.019531 2.703125 -6.328125 3.640625 -6.328125 C 4.585938 -6.328125 5.378906 -6.019531 6.015625 -5.40625 C 6.660156 -4.800781 6.984375 -4.046875 6.984375 -3.140625 C 6.984375 -2.242188 6.660156 -1.488281 6.015625 -0.875 C 5.378906 -0.257812 4.585938 0.046875 3.640625 0.046875 C 2.703125 0.046875 1.910156 -0.257812 1.265625 -0.875 C 0.628906 -1.488281 0.3125 -2.242188 0.3125 -3.140625 C 0.3125 -4.046875 0.628906 -4.800781 1.265625 -5.40625 Z M 3.65625 -5.375 C 3.03125 -5.375 2.492188 -5.160156 2.046875 -4.734375 C 1.609375 -4.304688 1.390625 -3.78125 1.390625 -3.15625 C 1.390625 -2.53125 1.613281 -2 2.0625 -1.5625 C 2.507812 -1.125 3.039062 -0.90625 3.65625 -0.90625 C 4.269531 -0.90625 4.796875 -1.125 5.234375 -1.5625 C 5.671875 -2 5.890625 -2.53125 5.890625 -3.15625 C 5.890625 -3.78125 5.671875 -4.304688 5.234375 -4.734375 C 4.796875 -5.160156 4.269531 -5.375 3.65625 -5.375 Z M 3.65625 -5.375 "/></g></g></g><g fill="#000000" fill-opacity="1"><g transform="translate(167.936355, 234.199818)"><g><path d="M 5.125 -5.34375 L 3.125 -5.34375 L 3.125 0 L 2.0625 0 L 2.0625 -5.34375 L 0.078125 -5.34375 L 0.078125 -6.296875 L 5.125 -6.296875 Z M 5.125 -5.34375 "/></g></g></g><g fill="#000000" fill-opacity="1"><g transform="translate(175.217389, 234.199818)"><g><path d="M 1.265625 -5.40625 C 1.910156 -6.019531 2.703125 -6.328125 3.640625 -6.328125 C 4.585938 -6.328125 5.378906 -6.019531 6.015625 -5.40625 C 6.660156 -4.800781 6.984375 -4.046875 6.984375 -3.140625 C 6.984375 -2.242188 6.660156 -1.488281 6.015625 -0.875 C 5.378906 -0.257812 4.585938 0.046875 3.640625 0.046875 C 2.703125 0.046875 1.910156 -0.257812 1.265625 -0.875 C 0.628906 -1.488281 0.3125 -2.242188 0.3125 -3.140625 C 0.3125 -4.046875 0.628906 -4.800781 1.265625 -5.40625 Z M 3.65625 -5.375 C 3.03125 -5.375 2.492188 -5.160156 2.046875 -4.734375 C 1.609375 -4.304688 1.390625 -3.78125 1.390625 -3.15625 C 1.390625 -2.53125 1.613281 -2 2.0625 -1.5625 C 2.507812 -1.125 3.039062 -0.90625 3.65625 -0.90625 C 4.269531 -0.90625 4.796875 -1.125 5.234375 -1.5625 C 5.671875 -2 5.890625 -2.53125 5.890625 -3.15625 C 5.890625 -3.78125 5.671875 -4.304688 5.234375 -4.734375 C 4.796875 -5.160156 4.269531 -5.375 3.65625 -5.375 Z M 3.65625 -5.375 "/></g></g></g><g fill="#000000" fill-opacity="1"><g transform="translate(184.577437, 234.199818)"><g><path d="M 5.140625 -3.09375 L 6.0625 -3.09375 L 6.0625 -0.78125 C 5.738281 -0.53125 5.351562 -0.328125 4.90625 -0.171875 C 4.46875 -0.0234375 4.039062 0.046875 3.625 0.046875 C 2.6875 0.046875 1.898438 -0.257812 1.265625 -0.875 C 0.628906 -1.488281 0.3125 -2.242188 0.3125 -3.140625 C 0.3125 -4.046875 0.632812 -4.800781 1.28125 -5.40625 C 1.925781 -6.019531 2.726562 -6.328125 3.6875 -6.328125 C 4.125 -6.328125 4.554688 -6.242188 4.984375 -6.078125 C 5.421875 -5.921875 5.796875 -5.707031 6.109375 -5.4375 L 5.5 -4.65625 C 4.976562 -5.132812 4.375 -5.375 3.6875 -5.375 C 3.039062 -5.375 2.492188 -5.160156 2.046875 -4.734375 C 1.609375 -4.304688 1.390625 -3.78125 1.390625 -3.15625 C 1.390625 -2.519531 1.613281 -1.984375 2.0625 -1.546875 C 2.507812 -1.117188 3.050781 -0.90625 3.6875 -0.90625 C 4.175781 -0.90625 4.660156 -1.050781 5.140625 -1.34375 Z M 5.140625 -3.09375 "/></g></g></g><g fill="#000000" fill-opacity="1"><g transform="translate(193.388489, 234.199818)"><g><path d="M 4.828125 0 L 3.671875 -1.90625 C 3.609375 -1.90625 3.515625 -1.90625 3.390625 -1.90625 L 1.890625 -1.90625 L 1.890625 0 L 0.828125 0 L 0.828125 -6.296875 L 3.390625 -6.296875 C 4.191406 -6.296875 4.8125 -6.109375 5.25 -5.734375 C 5.695312 -5.359375 5.921875 -4.832031 5.921875 -4.15625 C 5.921875 -3.644531 5.804688 -3.210938 5.578125 -2.859375 C 5.359375 -2.515625 5.035156 -2.265625 4.609375 -2.109375 L 6.03125 0 Z M 1.890625 -2.859375 L 3.390625 -2.859375 C 4.398438 -2.859375 4.90625 -3.28125 4.90625 -4.125 C 4.90625 -4.9375 4.398438 -5.34375 3.390625 -5.34375 L 1.890625 -5.34375 Z M 1.890625 -2.859375 "/></g></g></g><g fill="#000000" fill-opacity="1"><g transform="translate(201.965532, 234.199818)"><g><path d="M 4.890625 -1.421875 L 1.71875 -1.421875 L 1.109375 0 L 0.015625 0 L 2.796875 -6.296875 L 3.875 -6.296875 L 6.640625 0 L 5.5 0 Z M 4.484375 -2.359375 L 3.296875 -5.171875 L 2.109375 -2.359375 Z M 4.484375 -2.359375 "/></g></g></g><g fill="#000000" fill-opacity="1"><g transform="translate(210.67758, 234.199818)"><g><path d="M 0.828125 -6.296875 L 3.34375 -6.296875 C 4.132812 -6.296875 4.742188 -6.109375 5.171875 -5.734375 C 5.609375 -5.359375 5.828125 -4.832031 5.828125 -4.15625 C 5.828125 -3.4375 5.609375 -2.878906 5.171875 -2.484375 C 4.742188 -2.097656 4.132812 -1.90625 3.34375 -1.90625 L 1.890625 -1.90625 L 1.890625 0 L 0.828125 0 Z M 1.890625 -5.34375 L 1.890625 -2.859375 L 3.296875 -2.859375 C 4.304688 -2.859375 4.8125 -3.28125 4.8125 -4.125 C 4.8125 -4.9375 4.304688 -5.34375 3.296875 -5.34375 Z M 1.890625 -5.34375 "/></g></g></g><g fill="#000000" fill-opacity="1"><g transform="translate(218.804619, 234.199818)"><g><path d="M 6.296875 0 L 5.234375 0 L 5.234375 -2.609375 L 1.890625 -2.609375 L 1.890625 0 L 0.828125 0 L 0.828125 -6.296875 L 1.890625 -6.296875 L 1.890625 -3.5625 L 5.234375 -3.5625 L 5.234375 -6.296875 L 6.296875 -6.296875 Z M 6.296875 0 "/></g></g></g><g fill="#000000" fill-opacity="1"><g transform="translate(227.993669, 234.199818)"><g><path d="M 3.40625 -2.09375 L 3.40625 0 L 2.359375 0 L 2.359375 -2.0625 L 0.015625 -6.296875 L 1.078125 -6.296875 L 2.875 -3.234375 L 4.640625 -6.296875 L 5.71875 -6.296875 Z M 3.40625 -2.09375 "/></g></g></g></svg>