<svg xmlns="http://www.w3.org/2000/svg" xmlns:xlink="http://www.w3.org/1999/xlink" width="500" zoomAndPan="magnify" viewBox="0 0 375 374.999991" height="500" preserveAspectRatio="xMidYMid meet" version="1.0"><defs><g/><clipPath id="842d64c9d4"><path d="M 189 168 L 301 168 L 301 192 L 189 192 Z M 189 168 " clip-rule="nonzero"/></clipPath><clipPath id="9aea140c01"><path d="M 191.433594 162.324219 L 300.761719 168.480469 L 299.074219 198.433594 L 189.75 192.277344 Z M 191.433594 162.324219 " clip-rule="nonzero"/></clipPath><clipPath id="75709751d0"><path d="M 168.554688 161.035156 L 300.347656 168.457031 L 298.617188 199.15625 L 166.828125 191.738281 Z M 168.554688 161.035156 " clip-rule="nonzero"/></clipPath></defs><g clip-path="url(#842d64c9d4)"><g clip-path="url(#9aea140c01)"><g clip-path="url(#75709751d0)"><path fill="#000000" d="M 166.992188 191.351562 C 166.925781 191.414062 166.886719 191.488281 166.882812 191.578125 C 166.878906 191.671875 166.90625 191.75 166.96875 191.816406 C 167.027344 191.886719 167.101562 191.921875 167.195312 191.929688 C 167.285156 191.933594 167.363281 191.90625 167.433594 191.84375 C 183.71875 178.023438 205.96875 182.625 225.132812 185.972656 C 235.621094 187.804688 246.132812 190.054688 256.742188 191.074219 C 265.953125 191.96875 275.539062 191.601562 284.074219 187.671875 C 291.351562 184.320312 299.53125 177.644531 300.347656 169.101562 C 300.394531 168.5625 299.667969 168.5 299.472656 168.933594 C 297.808594 172.59375 296.019531 176.15625 293.21875 179.097656 C 290.402344 182.003906 287.152344 184.300781 283.476562 185.992188 C 274.714844 190.101562 264.789062 190.214844 255.34375 189.179688 C 245.046875 188.050781 234.816406 186.039062 224.597656 184.363281 C 214.109375 182.644531 203.496094 180.507812 192.816406 181.15625 C 183.488281 181.71875 173.742188 184.59375 166.992188 191.351562 Z M 166.992188 191.351562 " fill-opacity="1" fill-rule="nonzero"/></g></g></g><g fill="#000000" fill-opacity="1"><g transform="translate(44.190689, 205.445647)"><g><path d="M 14.921875 -0.828125 C 15.085938 0.378906 15.171875 1.585938 15.171875 2.796875 C 15.179688 4.003906 15.25 5.203125 15.375 6.390625 C 15.394531 6.554688 15.414062 6.738281 15.4375 6.9375 C 15.457031 7.144531 15.484375 7.335938 15.515625 7.515625 C 15.578125 7.703125 15.660156 7.894531 15.765625 8.09375 C 15.878906 8.300781 15.757812 8.46875 15.40625 8.59375 C 14.695312 8.851562 14.195312 8.707031 13.90625 8.15625 C 13.675781 7.65625 13.492188 7.140625 13.359375 6.609375 C 11.460938 -0.722656 10.117188 -8.117188 9.328125 -15.578125 C 8.546875 -23.046875 8.082031 -30.546875 7.9375 -38.078125 C 7.894531 -42.054688 8.101562 -46.003906 8.5625 -49.921875 C 9.019531 -53.847656 9.785156 -57.710938 10.859375 -61.515625 C 11.285156 -62.972656 11.785156 -64.390625 12.359375 -65.765625 C 12.929688 -67.140625 13.675781 -68.441406 14.59375 -69.671875 C 14.832031 -69.972656 15.085938 -70.242188 15.359375 -70.484375 C 15.628906 -70.722656 15.953125 -70.878906 16.328125 -70.953125 C 16.390625 -70.929688 16.472656 -70.925781 16.578125 -70.9375 C 16.679688 -70.957031 16.753906 -70.921875 16.796875 -70.828125 C 16.828125 -70.722656 16.816406 -70.644531 16.765625 -70.59375 C 16.710938 -70.539062 16.660156 -70.472656 16.609375 -70.390625 C 15.890625 -69.617188 15.332031 -68.757812 14.9375 -67.8125 C 14.550781 -66.863281 14.191406 -65.898438 13.859375 -64.921875 C 12.960938 -62.472656 12.34375 -59.976562 12 -57.4375 C 11.65625 -54.894531 11.394531 -52.3125 11.21875 -49.6875 C 11.039062 -46.65625 10.988281 -43.601562 11.0625 -40.53125 C 11.144531 -37.457031 11.3125 -34.414062 11.5625 -31.40625 C 11.582031 -31.257812 11.597656 -31.132812 11.609375 -31.03125 C 11.617188 -30.925781 11.632812 -30.800781 11.65625 -30.65625 C 11.6875 -30.664062 11.703125 -30.664062 11.703125 -30.65625 C 11.710938 -30.644531 11.738281 -30.648438 11.78125 -30.671875 C 12.03125 -32.066406 12.285156 -33.457031 12.546875 -34.84375 C 12.804688 -36.238281 13.054688 -37.625 13.296875 -39 C 13.972656 -43.0625 15.015625 -47.003906 16.421875 -50.828125 C 17.828125 -54.648438 19.679688 -58.289062 21.984375 -61.75 C 23.503906 -64.050781 25.242188 -66.128906 27.203125 -67.984375 C 29.160156 -69.835938 31.394531 -71.375 33.90625 -72.59375 C 35.207031 -73.238281 36.546875 -73.75 37.921875 -74.125 C 39.296875 -74.507812 40.71875 -74.675781 42.1875 -74.625 C 44.207031 -74.613281 45.992188 -74.066406 47.546875 -72.984375 C 49.109375 -71.898438 50.265625 -70.425781 51.015625 -68.5625 C 51.648438 -66.84375 52.046875 -65.101562 52.203125 -63.34375 C 52.359375 -61.59375 52.304688 -59.828125 52.046875 -58.046875 C 51.410156 -53.628906 50.265625 -49.410156 48.609375 -45.390625 C 46.953125 -41.378906 44.90625 -37.53125 42.46875 -33.84375 C 40.1875 -30.394531 37.707031 -27.144531 35.03125 -24.09375 C 32.363281 -21.050781 29.3125 -18.34375 25.875 -15.96875 C 25.757812 -15.90625 25.644531 -15.820312 25.53125 -15.71875 C 25.425781 -15.625 25.492188 -15.476562 25.734375 -15.28125 C 26.992188 -14.394531 28.140625 -13.40625 29.171875 -12.3125 C 30.203125 -11.21875 31.257812 -10.125 32.34375 -9.03125 C 32.726562 -8.65625 33.132812 -8.300781 33.5625 -7.96875 C 33.988281 -7.632812 34.425781 -7.332031 34.875 -7.0625 C 36.539062 -6.25 38.132812 -6.347656 39.65625 -7.359375 C 40.675781 -8.035156 41.585938 -8.816406 42.390625 -9.703125 C 43.203125 -10.585938 43.953125 -11.535156 44.640625 -12.546875 C 46.128906 -14.648438 47.472656 -16.851562 48.671875 -19.15625 C 49.867188 -21.46875 51.070312 -23.757812 52.28125 -26.03125 C 52.40625 -26.289062 52.53125 -26.539062 52.65625 -26.78125 C 52.789062 -27.03125 52.921875 -27.285156 53.046875 -27.546875 C 53.253906 -27.984375 53.515625 -28.109375 53.828125 -27.921875 C 54.003906 -27.847656 54.050781 -27.738281 53.96875 -27.59375 C 53.894531 -27.457031 53.835938 -27.351562 53.796875 -27.28125 C 52.460938 -24.53125 51.144531 -21.757812 49.84375 -18.96875 C 48.539062 -16.175781 46.945312 -13.539062 45.0625 -11.0625 C 44.21875 -9.96875 43.285156 -8.972656 42.265625 -8.078125 C 41.242188 -7.191406 40.09375 -6.488281 38.8125 -5.96875 C 37.550781 -5.445312 36.320312 -5.285156 35.125 -5.484375 C 33.9375 -5.691406 32.796875 -6.179688 31.703125 -6.953125 C 30.910156 -7.503906 30.1875 -8.113281 29.53125 -8.78125 C 28.882812 -9.445312 28.210938 -10.113281 27.515625 -10.78125 C 26.941406 -11.332031 26.363281 -11.875 25.78125 -12.40625 C 25.195312 -12.9375 24.609375 -13.4375 24.015625 -13.90625 C 23.566406 -14.257812 23.085938 -14.285156 22.578125 -13.984375 C 21.242188 -13.265625 19.867188 -12.671875 18.453125 -12.203125 C 17.035156 -11.734375 15.539062 -11.566406 13.96875 -11.703125 C 13.570312 -11.734375 13.398438 -11.640625 13.453125 -11.421875 C 13.503906 -11.203125 13.535156 -11.023438 13.546875 -10.890625 C 13.785156 -9.203125 14.015625 -7.519531 14.234375 -5.84375 C 14.453125 -4.175781 14.679688 -2.503906 14.921875 -0.828125 Z M 13.171875 -19.71875 C 13.160156 -19.144531 13.160156 -18.5625 13.171875 -17.96875 C 13.179688 -17.382812 13.171875 -16.78125 13.140625 -16.15625 C 13.484375 -16.3125 13.8125 -16.453125 14.125 -16.578125 C 14.4375 -16.710938 14.738281 -16.832031 15.03125 -16.9375 C 16.4375 -17.4375 17.816406 -17.679688 19.171875 -17.671875 C 20.523438 -17.671875 21.878906 -17.335938 23.234375 -16.671875 C 23.597656 -16.472656 23.914062 -16.398438 24.1875 -16.453125 C 24.457031 -16.515625 24.734375 -16.648438 25.015625 -16.859375 C 28.984375 -19.710938 32.488281 -23.09375 35.53125 -27 C 38.832031 -31.195312 41.644531 -35.632812 43.96875 -40.3125 C 46.300781 -44.988281 47.925781 -49.992188 48.84375 -55.328125 C 49.144531 -57.203125 49.269531 -59.066406 49.21875 -60.921875 C 49.164062 -62.785156 48.882812 -64.640625 48.375 -66.484375 C 47.726562 -68.816406 46.554688 -70.566406 44.859375 -71.734375 C 43.171875 -72.898438 41.210938 -73.320312 38.984375 -73 C 38.460938 -72.914062 37.957031 -72.8125 37.46875 -72.6875 C 36.988281 -72.570312 36.515625 -72.421875 36.046875 -72.234375 C 34.628906 -71.648438 33.3125 -70.941406 32.09375 -70.109375 C 30.882812 -69.273438 29.738281 -68.347656 28.65625 -67.328125 C 26.21875 -64.929688 24.164062 -62.289062 22.5 -59.40625 C 20.84375 -56.519531 19.472656 -53.457031 18.390625 -50.21875 C 15.160156 -40.375 13.421875 -30.207031 13.171875 -19.71875 Z M 13.265625 -13.8125 C 13.316406 -13.476562 13.441406 -13.28125 13.640625 -13.21875 C 13.847656 -13.164062 14.050781 -13.101562 14.25 -13.03125 C 14.6875 -12.9375 15.140625 -12.878906 15.609375 -12.859375 C 16.085938 -12.847656 16.550781 -12.875 17 -12.9375 C 17.914062 -13.070312 18.78125 -13.332031 19.59375 -13.71875 C 20.414062 -14.101562 21.242188 -14.550781 22.078125 -15.0625 C 21.421875 -15.40625 20.78125 -15.691406 20.15625 -15.921875 C 19.539062 -16.148438 18.914062 -16.28125 18.28125 -16.3125 C 17.507812 -16.351562 16.75 -16.296875 16 -16.140625 C 15.257812 -15.992188 14.5625 -15.691406 13.90625 -15.234375 C 13.40625 -14.910156 13.191406 -14.4375 13.265625 -13.8125 Z M 13.265625 -13.8125 "/></g></g></g><g fill="#000000" fill-opacity="1"><g transform="translate(99.107891, 185.896156)"><g><path d="M -0.28125 -12.953125 C 0.46875 -12.671875 0.757812 -12.101562 0.59375 -11.25 C 0.425781 -10.40625 0.238281 -9.570312 0.03125 -8.75 C -0.175781 -7.925781 -0.378906 -7.070312 -0.578125 -6.1875 C -0.960938 -4.238281 -1.1875 -2.285156 -1.25 -0.328125 C -1.3125 1.617188 -1.109375 3.570312 -0.640625 5.53125 C -0.484375 6.050781 -0.316406 6.5625 -0.140625 7.0625 C 0.0351562 7.5625 0.28125 8.046875 0.59375 8.515625 C 0.832031 8.890625 1.0625 9.109375 1.28125 9.171875 C 1.507812 9.242188 1.820312 9.191406 2.21875 9.015625 C 2.789062 8.773438 3.257812 8.441406 3.625 8.015625 C 4 7.585938 4.359375 7.140625 4.703125 6.671875 C 5.304688 5.835938 5.804688 4.960938 6.203125 4.046875 C 6.609375 3.128906 7.023438 2.210938 7.453125 1.296875 C 8.191406 -0.367188 8.988281 -1.992188 9.84375 -3.578125 C 10.707031 -5.171875 11.71875 -6.679688 12.875 -8.109375 C 13.664062 -9.097656 14.507812 -10.035156 15.40625 -10.921875 C 16.300781 -11.804688 17.1875 -12.691406 18.0625 -13.578125 C 18.519531 -14.035156 18.972656 -14.488281 19.421875 -14.9375 C 19.867188 -15.382812 20.332031 -15.816406 20.8125 -16.234375 C 20.9375 -16.359375 21.0625 -16.476562 21.1875 -16.59375 C 21.3125 -16.707031 21.472656 -16.773438 21.671875 -16.796875 C 21.929688 -16.890625 22.097656 -16.84375 22.171875 -16.65625 C 22.253906 -16.5 22.175781 -16.347656 21.9375 -16.203125 C 21.007812 -15.441406 20.144531 -14.640625 19.34375 -13.796875 C 18.550781 -12.953125 17.734375 -12.113281 16.890625 -11.28125 C 15.429688 -9.769531 14.160156 -8.15625 13.078125 -6.4375 C 11.992188 -4.726562 11.03125 -2.921875 10.1875 -1.015625 C 9.519531 0.515625 8.828125 2.054688 8.109375 3.609375 C 7.398438 5.160156 6.617188 6.664062 5.765625 8.125 C 5.679688 8.300781 5.585938 8.476562 5.484375 8.65625 C 5.390625 8.832031 5.273438 9.003906 5.140625 9.171875 C 3.816406 10.867188 2.21875 11.179688 0.34375 10.109375 C -0.132812 9.765625 -0.566406 9.394531 -0.953125 9 C -1.347656 8.601562 -1.703125 8.171875 -2.015625 7.703125 C -2.785156 6.484375 -3.296875 5.207031 -3.546875 3.875 C -4.179688 1.28125 -4.359375 -1.269531 -4.078125 -3.78125 C -3.804688 -6.300781 -3.28125 -8.800781 -2.5 -11.28125 C -2.425781 -11.457031 -2.347656 -11.617188 -2.265625 -11.765625 C -2.191406 -11.921875 -2.117188 -12.085938 -2.046875 -12.265625 C -1.660156 -13.015625 -1.070312 -13.242188 -0.28125 -12.953125 Z M 1.078125 -16.09375 C 0.722656 -16.101562 0.363281 -16.179688 0 -16.328125 C -0.351562 -16.472656 -0.65625 -16.695312 -0.90625 -17 C -1.050781 -17.195312 -1.097656 -17.375 -1.046875 -17.53125 C -1.003906 -17.695312 -0.863281 -17.804688 -0.625 -17.859375 C -0.195312 -17.972656 0.238281 -17.929688 0.6875 -17.734375 C 1.144531 -17.535156 1.4375 -17.257812 1.5625 -16.90625 C 1.664062 -16.6875 1.675781 -16.5 1.59375 -16.34375 C 1.507812 -16.195312 1.335938 -16.113281 1.078125 -16.09375 Z M 1.078125 -16.09375 "/></g></g></g><g fill="#000000" fill-opacity="1"><g transform="translate(123.371398, 177.258804)"><g><path d="M 18.6875 -15.96875 C 18.875 -16.164062 19.082031 -16.332031 19.3125 -16.46875 C 19.550781 -16.613281 19.875 -16.632812 20.28125 -16.53125 C 18.46875 -14.789062 17.015625 -12.9375 15.921875 -10.96875 C 15.421875 -10.113281 14.953125 -9.238281 14.515625 -8.34375 C 14.078125 -7.445312 13.632812 -6.5625 13.1875 -5.6875 C 12.289062 -3.851562 11.375 -2.015625 10.4375 -0.171875 C 9.507812 1.660156 8.507812 3.453125 7.4375 5.203125 C 7.070312 5.804688 6.703125 6.390625 6.328125 6.953125 C 5.953125 7.523438 5.507812 8.054688 5 8.546875 C 4.820312 8.691406 4.65625 8.835938 4.5 8.984375 C 4.34375 9.128906 4.175781 9.269531 4 9.40625 C 3.101562 10.019531 2.160156 10.269531 1.171875 10.15625 C 0.191406 10.050781 -0.65625 9.585938 -1.375 8.765625 C -2.207031 7.867188 -2.816406 6.878906 -3.203125 5.796875 C -3.734375 4.285156 -4.097656 2.769531 -4.296875 1.25 C -4.492188 -0.257812 -4.597656 -1.789062 -4.609375 -3.34375 C -4.597656 -4.96875 -4.523438 -6.578125 -4.390625 -8.171875 C -4.253906 -9.773438 -4.078125 -11.375 -3.859375 -12.96875 C -3.578125 -15.414062 -3.25 -17.859375 -2.875 -20.296875 C -2.5 -22.742188 -2.078125 -25.1875 -1.609375 -27.625 C -1.210938 -29.789062 -0.78125 -31.9375 -0.3125 -34.0625 C 0.144531 -36.195312 0.609375 -38.34375 1.078125 -40.5 C 1.585938 -42.59375 2.125 -44.664062 2.6875 -46.71875 C 3.257812 -48.78125 3.898438 -50.828125 4.609375 -52.859375 C 5.222656 -54.585938 5.859375 -56.300781 6.515625 -58 C 7.179688 -59.695312 7.863281 -61.390625 8.5625 -63.078125 C 8.664062 -63.328125 8.785156 -63.578125 8.921875 -63.828125 C 9.066406 -64.078125 9.207031 -64.320312 9.34375 -64.5625 C 9.539062 -64.875 9.8125 -64.972656 10.15625 -64.859375 C 10.507812 -64.753906 10.828125 -64.546875 11.109375 -64.234375 C 11.390625 -63.921875 11.519531 -63.613281 11.5 -63.3125 C 11.675781 -62.726562 11.675781 -61.59375 11.5 -59.90625 C 11.320312 -58.21875 11.003906 -56.140625 10.546875 -53.671875 C 10.097656 -51.203125 9.519531 -48.453125 8.8125 -45.421875 C 8.101562 -42.390625 7.28125 -39.21875 6.34375 -35.90625 C 5.414062 -32.59375 4.390625 -29.265625 3.265625 -25.921875 C 2.148438 -22.585938 0.96875 -19.382812 -0.28125 -16.3125 L -0.328125 -16.296875 C -0.398438 -15.691406 -0.488281 -15.078125 -0.59375 -14.453125 C -0.695312 -13.835938 -0.785156 -13.210938 -0.859375 -12.578125 C -1.128906 -10.609375 -1.328125 -8.613281 -1.453125 -6.59375 C -1.585938 -4.570312 -1.632812 -2.539062 -1.59375 -0.5 C -1.539062 0.664062 -1.453125 1.835938 -1.328125 3.015625 C -1.210938 4.203125 -0.9375 5.367188 -0.5 6.515625 C -0.351562 6.921875 -0.1875 7.316406 0 7.703125 C 0.195312 8.097656 0.441406 8.453125 0.734375 8.765625 C 1.078125 9.128906 1.351562 9.316406 1.5625 9.328125 C 1.769531 9.347656 2.082031 9.238281 2.5 9 C 3.414062 8.425781 4.210938 7.675781 4.890625 6.75 C 5.753906 5.613281 6.507812 4.4375 7.15625 3.21875 C 7.800781 2 8.429688 0.769531 9.046875 -0.46875 C 9.859375 -2.019531 10.660156 -3.578125 11.453125 -5.140625 C 12.253906 -6.710938 13.09375 -8.238281 13.96875 -9.71875 C 14.601562 -10.882812 15.320312 -11.984375 16.125 -13.015625 C 16.925781 -14.046875 17.78125 -15.03125 18.6875 -15.96875 Z M 0.890625 -24.078125 C 0.816406 -23.578125 0.734375 -23.050781 0.640625 -22.5 C 0.546875 -21.945312 0.457031 -21.40625 0.375 -20.875 C 1.78125 -24.6875 3.148438 -28.832031 4.484375 -33.3125 C 5.816406 -37.789062 7.003906 -42.328125 8.046875 -46.921875 C 8.816406 -50.304688 9.414062 -53.203125 9.84375 -55.609375 C 10.269531 -58.015625 10.546875 -59.90625 10.671875 -61.28125 C 10.503906 -60.820312 10.34375 -60.359375 10.1875 -59.890625 C 10.03125 -59.421875 9.867188 -58.957031 9.703125 -58.5 C 8.890625 -56.007812 8.066406 -53.523438 7.234375 -51.046875 C 6.398438 -48.566406 5.660156 -46.0625 5.015625 -43.53125 C 4.234375 -40.289062 3.492188 -37.054688 2.796875 -33.828125 C 2.109375 -30.597656 1.472656 -27.347656 0.890625 -24.078125 Z M 0.890625 -24.078125 "/></g></g></g><g fill="#000000" fill-opacity="1"><g transform="translate(144.704062, 169.664777)"><g><path d="M 9.9375 -1.3125 C 8.0625 0.25 6.28125 1.015625 4.59375 0.984375 C 2.90625 0.953125 1.128906 0.1875 -0.734375 -1.3125 C -2.628906 -2.875 -3.5625 -4.890625 -3.53125 -7.359375 C -3.5 -9.378906 -3.015625 -11.175781 -2.078125 -12.75 C -1.140625 -14.332031 0.132812 -15.703125 1.75 -16.859375 C 2.375 -17.335938 3.03125 -17.585938 3.71875 -17.609375 C 4.40625 -17.640625 5.113281 -17.550781 5.84375 -17.34375 C 6.78125 -17.0625 7.179688 -16.429688 7.046875 -15.453125 C 7.003906 -15.078125 6.921875 -14.757812 6.796875 -14.5 C 6.335938 -13.570312 5.8125 -12.691406 5.21875 -11.859375 C 4.632812 -11.035156 3.929688 -10.300781 3.109375 -9.65625 C 2.285156 -9.039062 1.382812 -8.6875 0.40625 -8.59375 C 0.0507812 -8.570312 -0.1875 -8.460938 -0.3125 -8.265625 C -0.445312 -8.078125 -0.535156 -7.835938 -0.578125 -7.546875 C -0.722656 -6.015625 -0.519531 -4.648438 0.03125 -3.453125 C 0.59375 -2.265625 1.535156 -1.234375 2.859375 -0.359375 C 3.398438 -0.046875 3.941406 0.0859375 4.484375 0.046875 C 5.023438 0.015625 5.5625 -0.109375 6.09375 -0.328125 C 6.851562 -0.671875 7.546875 -1.070312 8.171875 -1.53125 C 8.796875 -1.988281 9.390625 -2.5 9.953125 -3.0625 C 10.460938 -3.5625 11.160156 -4.332031 12.046875 -5.375 C 12.941406 -6.414062 13.984375 -7.597656 15.171875 -8.921875 C 16.359375 -10.253906 17.644531 -11.609375 19.03125 -12.984375 C 20.425781 -14.359375 21.867188 -15.632812 23.359375 -16.8125 C 24.859375 -17.988281 26.359375 -18.941406 27.859375 -19.671875 C 28.054688 -19.742188 28.265625 -19.789062 28.484375 -19.8125 C 28.710938 -19.84375 28.945312 -19.710938 29.1875 -19.421875 C 27.050781 -18.347656 25.03125 -16.957031 23.125 -15.25 C 21.21875 -13.539062 19.441406 -11.769531 17.796875 -9.9375 C 16.160156 -8.101562 14.679688 -6.410156 13.359375 -4.859375 C 12.046875 -3.316406 10.90625 -2.132812 9.9375 -1.3125 Z M 4.640625 -15.828125 C 4.054688 -15.648438 3.4375 -15.238281 2.78125 -14.59375 C 2.125 -13.945312 1.554688 -13.234375 1.078125 -12.453125 C 0.609375 -11.671875 0.34375 -10.945312 0.28125 -10.28125 C 0.945312 -10.445312 1.617188 -10.847656 2.296875 -11.484375 C 2.972656 -12.128906 3.535156 -12.851562 3.984375 -13.65625 C 4.441406 -14.46875 4.660156 -15.191406 4.640625 -15.828125 Z M 4.640625 -15.828125 "/></g></g></g><g fill="#000000" fill-opacity="1"><g transform="translate(176.030404, 158.513188)"><g><path d="M 8.921875 -17.6875 C 9.078125 -17.945312 9.351562 -18.078125 9.75 -18.078125 C 10.144531 -18.078125 10.507812 -18.003906 10.84375 -17.859375 C 11.1875 -17.710938 11.375 -17.566406 11.40625 -17.421875 C 11.425781 -17.253906 11.40625 -17.078125 11.34375 -16.890625 C 11.28125 -16.710938 11.226562 -16.523438 11.1875 -16.328125 C 10.550781 -13.140625 9.953125 -9.945312 9.390625 -6.75 C 8.835938 -3.5625 8.445312 -0.359375 8.21875 2.859375 C 8.050781 5.515625 7.84375 8.175781 7.59375 10.84375 C 7.351562 13.507812 7.125 16.171875 6.90625 18.828125 C 6.832031 19.304688 6.765625 19.785156 6.703125 20.265625 C 6.640625 20.742188 6.570312 21.242188 6.5 21.765625 C 6.4375 22.378906 6.441406 22.722656 6.515625 22.796875 C 6.597656 22.878906 6.929688 22.882812 7.515625 22.8125 C 8.535156 22.707031 9.566406 22.59375 10.609375 22.46875 C 11.648438 22.351562 12.695312 22.253906 13.75 22.171875 C 13.914062 22.140625 14.078125 22.117188 14.234375 22.109375 C 14.390625 22.097656 14.539062 22.097656 14.6875 22.109375 C 14.96875 22.078125 15.128906 22.125 15.171875 22.25 C 15.265625 22.507812 15.175781 22.722656 14.90625 22.890625 C 14.789062 22.972656 14.671875 23.015625 14.546875 23.015625 C 14.421875 23.023438 14.273438 23.046875 14.109375 23.078125 C 13.023438 23.160156 11.9375 23.269531 10.84375 23.40625 C 9.757812 23.550781 8.664062 23.6875 7.5625 23.8125 C 6.832031 23.90625 6.410156 24.015625 6.296875 24.140625 C 6.179688 24.265625 6.066406 24.675781 5.953125 25.375 C 5.640625 27.570312 5.296875 29.773438 4.921875 31.984375 C 4.546875 34.203125 4.0625 36.410156 3.46875 38.609375 C 2.957031 40.554688 2.390625 42.472656 1.765625 44.359375 C 1.140625 46.242188 0.390625 48.078125 -0.484375 49.859375 C -2.148438 53.304688 -4.296875 56.265625 -6.921875 58.734375 C -9.546875 61.203125 -12.65625 63.109375 -16.25 64.453125 C -21.757812 66.609375 -27.035156 66.175781 -32.078125 63.15625 C -33.753906 62.144531 -35.128906 60.84375 -36.203125 59.25 C -37.285156 57.664062 -38.046875 55.929688 -38.484375 54.046875 C -38.929688 52.171875 -38.984375 50.269531 -38.640625 48.34375 C -38.304688 46.457031 -37.710938 44.703125 -36.859375 43.078125 C -36.015625 41.453125 -34.953125 39.953125 -33.671875 38.578125 C -31.566406 36.222656 -29.21875 34.234375 -26.625 32.609375 C -24.039062 30.992188 -21.316406 29.609375 -18.453125 28.453125 C -16.554688 27.691406 -14.617188 27.039062 -12.640625 26.5 C -10.671875 25.96875 -8.703125 25.472656 -6.734375 25.015625 C -5.222656 24.703125 -3.710938 24.390625 -2.203125 24.078125 C -0.691406 23.773438 0.832031 23.546875 2.375 23.390625 C 2.863281 23.335938 3.160156 23.253906 3.265625 23.140625 C 3.367188 23.023438 3.441406 22.734375 3.484375 22.265625 C 3.617188 20.734375 3.75 19.210938 3.875 17.703125 C 4.007812 16.191406 4.148438 14.675781 4.296875 13.15625 C 4.441406 11.625 4.546875 10.085938 4.609375 8.546875 C 4.671875 7.003906 4.773438 5.46875 4.921875 3.9375 C 5.128906 1.582031 5.398438 -0.757812 5.734375 -3.09375 C 6.078125 -5.4375 6.507812 -7.769531 7.03125 -10.09375 C 7.082031 -10.320312 7.117188 -10.546875 7.140625 -10.765625 C 7.171875 -10.992188 7.21875 -11.226562 7.28125 -11.46875 C 7.175781 -11.476562 7.085938 -11.515625 7.015625 -11.578125 C 6.597656 -10.859375 6.203125 -10.097656 5.828125 -9.296875 C 5.460938 -8.492188 5.113281 -7.71875 4.78125 -6.96875 C 4.144531 -5.507812 3.519531 -4.054688 2.90625 -2.609375 C 2.300781 -1.171875 1.6875 0.289062 1.0625 1.78125 C 0.707031 2.601562 0.242188 3.429688 -0.328125 4.265625 C -0.816406 5.023438 -1.472656 5.335938 -2.296875 5.203125 C -2.734375 5.109375 -3.039062 4.910156 -3.21875 4.609375 C -3.40625 4.316406 -3.550781 3.972656 -3.65625 3.578125 C -3.90625 2.460938 -4.046875 1.34375 -4.078125 0.21875 C -4.117188 -0.894531 -4.066406 -2 -3.921875 -3.09375 C -3.828125 -4.0625 -3.675781 -5.007812 -3.46875 -5.9375 C -3.257812 -6.863281 -3.003906 -7.773438 -2.703125 -8.671875 C -2.585938 -9.035156 -2.425781 -9.421875 -2.21875 -9.828125 C -2.019531 -10.109375 -1.734375 -10.28125 -1.359375 -10.34375 C -0.984375 -10.40625 -0.648438 -10.34375 -0.359375 -10.15625 C -0.191406 -10.070312 -0.125 -9.953125 -0.15625 -9.796875 C -0.1875 -9.640625 -0.210938 -9.484375 -0.234375 -9.328125 C -0.378906 -8.703125 -0.515625 -8.097656 -0.640625 -7.515625 C -0.773438 -6.929688 -0.914062 -6.34375 -1.0625 -5.75 C -1.363281 -4.445312 -1.609375 -3.144531 -1.796875 -1.84375 C -1.984375 -0.550781 -2.078125 0.757812 -2.078125 2.09375 C -2.097656 2.425781 -2.09375 2.757812 -2.0625 3.09375 C -2.03125 3.425781 -1.941406 3.765625 -1.796875 4.109375 C -1.523438 4.046875 -1.328125 3.925781 -1.203125 3.75 C -1.085938 3.582031 -0.988281 3.414062 -0.90625 3.25 C -0.382812 2.363281 0.078125 1.453125 0.484375 0.515625 C 0.890625 -0.410156 1.269531 -1.332031 1.625 -2.25 C 3.519531 -6.75 5.585938 -11.179688 7.828125 -15.546875 C 8.035156 -15.910156 8.21875 -16.269531 8.375 -16.625 C 8.539062 -16.976562 8.722656 -17.332031 8.921875 -17.6875 Z M 3.171875 25.171875 C 3.203125 24.765625 3.179688 24.535156 3.109375 24.484375 C 3.035156 24.441406 2.804688 24.4375 2.421875 24.46875 C 1.304688 24.570312 0.203125 24.722656 -0.890625 24.921875 C -1.992188 25.117188 -3.097656 25.335938 -4.203125 25.578125 C -6.359375 26.023438 -8.476562 26.507812 -10.5625 27.03125 C -12.65625 27.5625 -14.726562 28.222656 -16.78125 29.015625 C -19.375 29.984375 -21.84375 31.164062 -24.1875 32.5625 C -26.539062 33.957031 -28.703125 35.640625 -30.671875 37.609375 C -31.835938 38.703125 -32.875 39.894531 -33.78125 41.1875 C -34.695312 42.488281 -35.414062 43.921875 -35.9375 45.484375 C -36.9375 48.429688 -37.15625 51.207031 -36.59375 53.8125 C -36.039062 56.414062 -34.625 58.773438 -32.34375 60.890625 C -30.226562 62.878906 -27.9375 64.097656 -25.46875 64.546875 C -23 64.992188 -20.476562 64.832031 -17.90625 64.0625 C -15.863281 63.3125 -14.039062 62.40625 -12.4375 61.34375 C -10.832031 60.289062 -9.347656 59.070312 -7.984375 57.6875 C -6.265625 55.945312 -4.851562 54.0625 -3.75 52.03125 C -2.65625 50 -1.734375 47.859375 -0.984375 45.609375 C 0.0546875 42.265625 0.921875 38.894531 1.609375 35.5 C 2.304688 32.101562 2.828125 28.660156 3.171875 25.171875 Z M 3.171875 25.171875 "/></g></g></g><g fill="#000000" fill-opacity="1"><g transform="translate(187.499992, 231.541083)"><g><path d="M 0.921875 0 L 0.921875 -5.75 L 2.75 -5.75 C 3.414062 -5.75 3.9375 -5.582031 4.3125 -5.25 C 4.6875 -4.925781 4.875 -4.460938 4.875 -3.859375 C 4.875 -3.265625 4.6875 -2.800781 4.3125 -2.46875 C 3.9375 -2.132812 3.414062 -1.96875 2.75 -1.96875 L 1.4375 -1.96875 L 1.4375 0 Z M 1.4375 -2.4375 L 2.75 -2.4375 C 3.832031 -2.4375 4.375 -2.910156 4.375 -3.859375 C 4.375 -4.804688 3.832031 -5.28125 2.75 -5.28125 L 1.4375 -5.28125 Z M 1.4375 -2.4375 "/></g></g></g><g fill="#000000" fill-opacity="1"><g transform="translate(196.832422, 231.541083)"><g><path d="M 4.796875 0 L 4.796875 -2.703125 L 1.4375 -2.703125 L 1.4375 0 L 0.921875 0 L 0.921875 -5.75 L 1.4375 -5.75 L 1.4375 -3.171875 L 4.796875 -3.171875 L 4.796875 -5.75 L 5.296875 -5.75 L 5.296875 0 Z M 4.796875 0 "/></g></g></g><g fill="#000000" fill-opacity="1"><g transform="translate(207.135102, 231.541083)"><g><path d="M 3.5 0.109375 C 2.914062 0.109375 2.398438 -0.015625 1.953125 -0.265625 C 1.503906 -0.523438 1.15625 -0.878906 0.90625 -1.328125 C 0.65625 -1.773438 0.53125 -2.289062 0.53125 -2.875 C 0.53125 -3.457031 0.65625 -3.972656 0.90625 -4.421875 C 1.15625 -4.878906 1.503906 -5.234375 1.953125 -5.484375 C 2.398438 -5.734375 2.914062 -5.859375 3.5 -5.859375 C 4.082031 -5.859375 4.597656 -5.734375 5.046875 -5.484375 C 5.492188 -5.234375 5.835938 -4.878906 6.078125 -4.421875 C 6.328125 -3.972656 6.453125 -3.457031 6.453125 -2.875 C 6.453125 -2.289062 6.328125 -1.773438 6.078125 -1.328125 C 5.835938 -0.878906 5.492188 -0.523438 5.046875 -0.265625 C 4.597656 -0.015625 4.082031 0.109375 3.5 0.109375 Z M 1.03125 -2.875 C 1.03125 -2.382812 1.132812 -1.953125 1.34375 -1.578125 C 1.550781 -1.203125 1.835938 -0.910156 2.203125 -0.703125 C 2.578125 -0.492188 3.007812 -0.390625 3.5 -0.390625 C 3.976562 -0.390625 4.398438 -0.492188 4.765625 -0.703125 C 5.140625 -0.910156 5.429688 -1.203125 5.640625 -1.578125 C 5.847656 -1.953125 5.953125 -2.382812 5.953125 -2.875 C 5.953125 -3.363281 5.847656 -3.796875 5.640625 -4.171875 C 5.429688 -4.546875 5.140625 -4.835938 4.765625 -5.046875 C 4.398438 -5.253906 3.976562 -5.359375 3.5 -5.359375 C 3.007812 -5.359375 2.578125 -5.253906 2.203125 -5.046875 C 1.835938 -4.835938 1.550781 -4.546875 1.34375 -4.171875 C 1.132812 -3.796875 1.03125 -3.363281 1.03125 -2.875 Z M 1.03125 -2.875 "/></g></g></g><g fill="#000000" fill-opacity="1"><g transform="translate(218.194242, 231.541083)"><g><path d="M 2.296875 0 L 2.296875 -5.28125 L 0.3125 -5.28125 L 0.3125 -5.75 L 4.78125 -5.75 L 4.78125 -5.28125 L 2.78125 -5.28125 L 2.78125 0 Z M 2.296875 0 "/></g></g></g><g fill="#000000" fill-opacity="1"><g transform="translate(227.354003, 231.541083)"><g><path d="M 3.5 0.109375 C 2.914062 0.109375 2.398438 -0.015625 1.953125 -0.265625 C 1.503906 -0.523438 1.15625 -0.878906 0.90625 -1.328125 C 0.65625 -1.773438 0.53125 -2.289062 0.53125 -2.875 C 0.53125 -3.457031 0.65625 -3.972656 0.90625 -4.421875 C 1.15625 -4.878906 1.503906 -5.234375 1.953125 -5.484375 C 2.398438 -5.734375 2.914062 -5.859375 3.5 -5.859375 C 4.082031 -5.859375 4.597656 -5.734375 5.046875 -5.484375 C 5.492188 -5.234375 5.835938 -4.878906 6.078125 -4.421875 C 6.328125 -3.972656 6.453125 -3.457031 6.453125 -2.875 C 6.453125 -2.289062 6.328125 -1.773438 6.078125 -1.328125 C 5.835938 -0.878906 5.492188 -0.523438 5.046875 -0.265625 C 4.597656 -0.015625 4.082031 0.109375 3.5 0.109375 Z M 1.03125 -2.875 C 1.03125 -2.382812 1.132812 -1.953125 1.34375 -1.578125 C 1.550781 -1.203125 1.835938 -0.910156 2.203125 -0.703125 C 2.578125 -0.492188 3.007812 -0.390625 3.5 -0.390625 C 3.976562 -0.390625 4.398438 -0.492188 4.765625 -0.703125 C 5.140625 -0.910156 5.429688 -1.203125 5.640625 -1.578125 C 5.847656 -1.953125 5.953125 -2.382812 5.953125 -2.875 C 5.953125 -3.363281 5.847656 -3.796875 5.640625 -4.171875 C 5.429688 -4.546875 5.140625 -4.835938 4.765625 -5.046875 C 4.398438 -5.253906 3.976562 -5.359375 3.5 -5.359375 C 3.007812 -5.359375 2.578125 -5.253906 2.203125 -5.046875 C 1.835938 -4.835938 1.550781 -4.546875 1.34375 -4.171875 C 1.132812 -3.796875 1.03125 -3.363281 1.03125 -2.875 Z M 1.03125 -2.875 "/></g></g></g><g fill="#000000" fill-opacity="1"><g transform="translate(238.413146, 231.541083)"><g><path d="M 3.4375 0.109375 C 2.875 0.109375 2.375 -0.015625 1.9375 -0.265625 C 1.5 -0.523438 1.15625 -0.878906 0.90625 -1.328125 C 0.65625 -1.773438 0.53125 -2.289062 0.53125 -2.875 C 0.53125 -3.457031 0.65625 -3.972656 0.90625 -4.421875 C 1.15625 -4.867188 1.492188 -5.21875 1.921875 -5.46875 C 2.359375 -5.726562 2.859375 -5.859375 3.421875 -5.859375 C 3.859375 -5.859375 4.257812 -5.78125 4.625 -5.625 C 5 -5.46875 5.316406 -5.242188 5.578125 -4.953125 C 5.847656 -4.671875 6.046875 -4.347656 6.171875 -3.984375 L 5.625 -3.984375 C 5.4375 -4.410156 5.15625 -4.742188 4.78125 -4.984375 C 4.40625 -5.234375 3.957031 -5.359375 3.4375 -5.359375 C 2.96875 -5.359375 2.550781 -5.253906 2.1875 -5.046875 C 1.820312 -4.835938 1.535156 -4.546875 1.328125 -4.171875 C 1.128906 -3.796875 1.03125 -3.363281 1.03125 -2.875 C 1.03125 -2.382812 1.128906 -1.953125 1.328125 -1.578125 C 1.535156 -1.203125 1.820312 -0.910156 2.1875 -0.703125 C 2.550781 -0.492188 2.96875 -0.390625 3.4375 -0.390625 C 3.894531 -0.390625 4.289062 -0.476562 4.625 -0.65625 C 4.96875 -0.84375 5.238281 -1.097656 5.4375 -1.421875 C 5.644531 -1.753906 5.765625 -2.128906 5.796875 -2.546875 L 3.25 -2.546875 L 3.25 -3.03125 L 6.34375 -3.03125 C 6.34375 -2.414062 6.222656 -1.875 5.984375 -1.40625 C 5.742188 -0.9375 5.40625 -0.566406 4.96875 -0.296875 C 4.53125 -0.0234375 4.019531 0.109375 3.4375 0.109375 Z M 3.4375 0.109375 "/></g></g></g><g fill="#000000" fill-opacity="1"><g transform="translate(249.324283, 231.541083)"><g><path d="M 0.921875 0 L 0.921875 -5.75 L 3.0625 -5.75 C 3.445312 -5.75 3.78125 -5.675781 4.0625 -5.53125 C 4.351562 -5.382812 4.578125 -5.175781 4.734375 -4.90625 C 4.890625 -4.644531 4.96875 -4.332031 4.96875 -3.96875 C 4.96875 -3.488281 4.835938 -3.09375 4.578125 -2.78125 C 4.316406 -2.46875 3.957031 -2.273438 3.5 -2.203125 L 5.0625 0 L 4.46875 0 L 2.921875 -2.15625 L 1.4375 -2.15625 L 1.4375 0 Z M 1.4375 -2.640625 L 3.015625 -2.640625 C 3.460938 -2.640625 3.816406 -2.753906 4.078125 -2.984375 C 4.335938 -3.222656 4.46875 -3.550781 4.46875 -3.96875 C 4.46875 -4.363281 4.335938 -4.679688 4.078125 -4.921875 C 3.816406 -5.160156 3.460938 -5.28125 3.015625 -5.28125 L 1.4375 -5.28125 Z M 1.4375 -2.640625 "/></g></g></g><g fill="#000000" fill-opacity="1"><g transform="translate(259.018498, 231.541083)"><g><path d="M 0.1875 0 L 2.5625 -5.75 L 3.046875 -5.75 L 5.421875 0 L 4.890625 0 L 4.296875 -1.453125 L 1.3125 -1.453125 L 0.71875 0 Z M 1.5 -1.90625 L 4.109375 -1.90625 L 2.796875 -5.078125 Z M 1.5 -1.90625 "/></g></g></g><g fill="#000000" fill-opacity="1"><g transform="translate(268.704495, 231.541083)"><g><path d="M 0.921875 0 L 0.921875 -5.75 L 2.75 -5.75 C 3.414062 -5.75 3.9375 -5.582031 4.3125 -5.25 C 4.6875 -4.925781 4.875 -4.460938 4.875 -3.859375 C 4.875 -3.265625 4.6875 -2.800781 4.3125 -2.46875 C 3.9375 -2.132812 3.414062 -1.96875 2.75 -1.96875 L 1.4375 -1.96875 L 1.4375 0 Z M 1.4375 -2.4375 L 2.75 -2.4375 C 3.832031 -2.4375 4.375 -2.910156 4.375 -3.859375 C 4.375 -4.804688 3.832031 -5.28125 2.75 -5.28125 L 1.4375 -5.28125 Z M 1.4375 -2.4375 "/></g></g></g><g fill="#000000" fill-opacity="1"><g transform="translate(278.036921, 231.541083)"><g><path d="M 4.796875 0 L 4.796875 -2.703125 L 1.4375 -2.703125 L 1.4375 0 L 0.921875 0 L 0.921875 -5.75 L 1.4375 -5.75 L 1.4375 -3.171875 L 4.796875 -3.171875 L 4.796875 -5.75 L 5.296875 -5.75 L 5.296875 0 Z M 4.796875 0 "/></g></g></g><g fill="#000000" fill-opacity="1"><g transform="translate(288.339602, 231.541083)"><g><path d="M 2.359375 0 L 2.359375 -2.109375 L 0.1875 -5.75 L 0.75 -5.75 L 2.609375 -2.640625 L 4.46875 -5.75 L 5.03125 -5.75 L 2.859375 -2.125 L 2.859375 0 Z M 2.359375 0 "/></g></g></g><g fill="#000000" fill-opacity="1"><g transform="translate(187.499992, 214.67234)"><g><path d="M 0.375 0 L 5.375 -12.046875 L 6.359375 -12.046875 L 11.359375 0 L 10.25 0 L 9 -3.03125 L 2.734375 -3.03125 L 1.5 0 Z M 3.140625 -3.984375 L 8.59375 -3.984375 L 5.859375 -10.609375 Z M 3.140625 -3.984375 "/></g></g></g><g fill="#000000" fill-opacity="1"><g transform="translate(202.691538, 214.67234)"><g><path d="M 1.9375 0 L 1.9375 -12.046875 L 5.75 -12.046875 C 7.03125 -12.046875 8.140625 -11.796875 9.078125 -11.296875 C 10.015625 -10.796875 10.734375 -10.09375 11.234375 -9.1875 C 11.742188 -8.289062 12 -7.234375 12 -6.015625 C 12 -4.816406 11.742188 -3.765625 11.234375 -2.859375 C 10.734375 -1.953125 10.015625 -1.25 9.078125 -0.75 C 8.140625 -0.25 7.03125 0 5.75 0 Z M 3 -1 L 5.75 -1 C 6.8125 -1 7.734375 -1.203125 8.515625 -1.609375 C 9.296875 -2.023438 9.894531 -2.609375 10.3125 -3.359375 C 10.726562 -4.109375 10.9375 -4.992188 10.9375 -6.015625 C 10.9375 -7.035156 10.722656 -7.921875 10.296875 -8.671875 C 9.878906 -9.429688 9.28125 -10.015625 8.5 -10.421875 C 7.71875 -10.835938 6.789062 -11.046875 5.71875 -11.046875 L 3 -11.046875 Z M 3 -1 "/></g></g></g><g fill="#000000" fill-opacity="1"><g transform="translate(219.242139, 214.67234)"><g><path d="M 1.9375 0 L 1.9375 -12.046875 L 5.75 -12.046875 C 7.03125 -12.046875 8.140625 -11.796875 9.078125 -11.296875 C 10.015625 -10.796875 10.734375 -10.09375 11.234375 -9.1875 C 11.742188 -8.289062 12 -7.234375 12 -6.015625 C 12 -4.816406 11.742188 -3.765625 11.234375 -2.859375 C 10.734375 -1.953125 10.015625 -1.25 9.078125 -0.75 C 8.140625 -0.25 7.03125 0 5.75 0 Z M 3 -1 L 5.75 -1 C 6.8125 -1 7.734375 -1.203125 8.515625 -1.609375 C 9.296875 -2.023438 9.894531 -2.609375 10.3125 -3.359375 C 10.726562 -4.109375 10.9375 -4.992188 10.9375 -6.015625 C 10.9375 -7.035156 10.722656 -7.921875 10.296875 -8.671875 C 9.878906 -9.429688 9.28125 -10.015625 8.5 -10.421875 C 7.71875 -10.835938 6.789062 -11.046875 5.71875 -11.046875 L 3 -11.046875 Z M 3 -1 "/></g></g></g><g fill="#000000" fill-opacity="1"><g transform="translate(235.792741, 214.67234)"><g><path d="M 1.9375 0 L 1.9375 -12.046875 L 3 -12.046875 L 3 0 Z M 1.9375 0 "/></g></g></g><g fill="#000000" fill-opacity="1"><g transform="translate(244.171836, 214.67234)"><g><path d="M 5.8125 0.21875 C 4.894531 0.21875 4.09375 0.0664062 3.40625 -0.234375 C 2.726562 -0.546875 2.195312 -0.988281 1.8125 -1.5625 C 1.4375 -2.132812 1.234375 -2.804688 1.203125 -3.578125 L 2.234375 -3.578125 C 2.296875 -2.691406 2.644531 -2.003906 3.28125 -1.515625 C 3.925781 -1.023438 4.769531 -0.78125 5.8125 -0.78125 C 6.800781 -0.78125 7.582031 -0.984375 8.15625 -1.390625 C 8.726562 -1.796875 9.015625 -2.347656 9.015625 -3.046875 C 9.015625 -3.671875 8.75 -4.179688 8.21875 -4.578125 C 7.695312 -4.972656 6.828125 -5.304688 5.609375 -5.578125 C 4.128906 -5.921875 3.054688 -6.359375 2.390625 -6.890625 C 1.722656 -7.429688 1.390625 -8.15625 1.390625 -9.0625 C 1.390625 -10.03125 1.753906 -10.804688 2.484375 -11.390625 C 3.222656 -11.972656 4.234375 -12.265625 5.515625 -12.265625 C 6.847656 -12.265625 7.894531 -11.941406 8.65625 -11.296875 C 9.425781 -10.660156 9.832031 -9.757812 9.875 -8.59375 L 8.84375 -8.59375 C 8.800781 -9.445312 8.488281 -10.101562 7.90625 -10.5625 C 7.320312 -11.03125 6.523438 -11.265625 5.515625 -11.265625 C 4.546875 -11.265625 3.789062 -11.0625 3.25 -10.65625 C 2.707031 -10.257812 2.4375 -9.726562 2.4375 -9.0625 C 2.4375 -8.46875 2.691406 -7.972656 3.203125 -7.578125 C 3.710938 -7.179688 4.597656 -6.835938 5.859375 -6.546875 C 7.390625 -6.191406 8.472656 -5.738281 9.109375 -5.1875 C 9.753906 -4.632812 10.078125 -3.925781 10.078125 -3.0625 C 10.078125 -2.050781 9.691406 -1.25 8.921875 -0.65625 C 8.160156 -0.0703125 7.125 0.21875 5.8125 0.21875 Z M 5.8125 0.21875 "/></g></g></g><g fill="#000000" fill-opacity="1"><g transform="translate(258.916099, 214.67234)"><g><path d="M 7.3125 0.21875 C 6.09375 0.21875 5.015625 -0.0390625 4.078125 -0.5625 C 3.148438 -1.09375 2.421875 -1.828125 1.890625 -2.765625 C 1.359375 -3.710938 1.09375 -4.796875 1.09375 -6.015625 C 1.09375 -7.242188 1.359375 -8.328125 1.890625 -9.265625 C 2.421875 -10.210938 3.148438 -10.945312 4.078125 -11.46875 C 5.015625 -12 6.09375 -12.265625 7.3125 -12.265625 C 8.539062 -12.265625 9.617188 -12 10.546875 -11.46875 C 11.484375 -10.945312 12.210938 -10.210938 12.734375 -9.265625 C 13.253906 -8.328125 13.515625 -7.242188 13.515625 -6.015625 C 13.515625 -4.796875 13.253906 -3.710938 12.734375 -2.765625 C 12.210938 -1.828125 11.484375 -1.09375 10.546875 -0.5625 C 9.617188 -0.0390625 8.539062 0.21875 7.3125 0.21875 Z M 2.171875 -6.015625 C 2.171875 -4.992188 2.382812 -4.09375 2.8125 -3.3125 C 3.25 -2.53125 3.851562 -1.921875 4.625 -1.484375 C 5.40625 -1.046875 6.300781 -0.828125 7.3125 -0.828125 C 8.332031 -0.828125 9.226562 -1.046875 10 -1.484375 C 10.78125 -1.921875 11.382812 -2.53125 11.8125 -3.3125 C 12.25 -4.09375 12.46875 -4.992188 12.46875 -6.015625 C 12.46875 -7.046875 12.25 -7.953125 11.8125 -8.734375 C 11.382812 -9.515625 10.78125 -10.125 10 -10.5625 C 9.226562 -11 8.332031 -11.21875 7.3125 -11.21875 C 6.300781 -11.21875 5.40625 -11 4.625 -10.5625 C 3.851562 -10.125 3.25 -9.515625 2.8125 -8.734375 C 2.382812 -7.953125 2.171875 -7.046875 2.171875 -6.015625 Z M 2.171875 -6.015625 "/></g></g></g><g fill="#000000" fill-opacity="1"><g transform="translate(276.980568, 214.67234)"><g><path d="M 1.9375 0 L 1.9375 -12.046875 L 2.921875 -12.046875 L 10.25 -1.8125 L 10.25 -12.046875 L 11.28125 -12.046875 L 11.28125 0 L 10.296875 0 L 2.96875 -10.25 L 2.96875 0 Z M 1.9375 0 "/></g></g></g></svg>